<?xml version="1.0" standalone="no"?>
  <!DOCTYPE svg PUBLIC "-//W3C//DTD SVG 1.1//EN" "http://www.w3.org/Graphics/SVG/1.1/DTD/svg11.dtd" >
  <svg>
  <metadata>
  Created by font-carrier
  </metadata>
  <defs>
  <font id="NeueMachina-Ultrabold" horiz-adv-x="1751" vert-adv-y="1751" >
    <font-face
      
      font-family="Neue Machina Ultrabold"
      
      font-weight="400"
      
      font-stretch="normal"
      
      units-per-em="1000"
      
      ascent="735"
      
      descent="-230"
      
    />
      <missing-glyph />

      

      
      <glyph glyph-name="uni21" unicode="&#x21;" d="M100 705L260 705L230 259L130 259L100 705M179-10Q129-10 99.50 21.50Q70 53 70 101Q70 148 99.50 179Q129 210 179 210Q228 210 259 178.50Q290 147 290 101Q290 53 259 21.50Q228-10 179-10Z"  horiz-adv-x="360" vert-adv-y="1000"  />

      
      <glyph glyph-name="uni22" unicode="&#x22;" d="M70 775L190 775L190 455L70 455L70 775M260 775L380 775L380 455L260 455L260 775Z"  horiz-adv-x="450" vert-adv-y="1000"  />

      
      <glyph glyph-name="uni23" unicode="&#x23;" d="M1045 405L826 405L749 205L938 205L938 105L711 105L613-149L500-105L581 105L381 105L283-149L170-105L251 105L70 105L70 205L289 205L366 405L177 405L177 505L405 505L508 774L621 730L534 505L735 505L838 774L951 730L864 505L1045 505L1045 405M619 205L696 405L496 405L419 205L619 205Z"  horiz-adv-x="1115" vert-adv-y="1000"  />

      
      <glyph glyph-name="uni24" unicode="&#x24;" d="M721 194Q721 0 445-10L445-148L345-148L345-7Q200 7 135 77.50Q70 148 70 272L230 272Q230 208 256.50 176.50Q283 145 345 135L345 310Q283 331 247.50 346.50Q212 362 174 387.50Q136 413 119 447.50Q102 482 102 529Q102 613 163.50 660.50Q225 708 345 714L345 853L445 853L445 711Q568 697 630 630Q692 563 692 465L532 465Q532 549 445 569L445 423Q491 408 523 395.50Q555 383 595.50 361.50Q636 340 661 317.50Q686 295 703.50 263Q721 231 721 194M262 523Q262 502 277.50 489Q293 476 345 457L345 574Q262 566 262 523M445 130Q561 134 561 192Q561 218 532 237.50Q503 257 445 276L445 130Z"  horiz-adv-x="791" vert-adv-y="1000"  />

      
      <glyph glyph-name="uni25" unicode="&#x25;" d="M733 804L846 760L508-119L395-75L733 804M469 348.50Q469 348.50 436.50 314.75Q404 281 302 281Q200 281 135 348.50Q70 416 70 513Q70 610 135 677.50Q200 745 302 745Q404 745 469 677.50Q534 610 534 513Q534 416 469 348.50M221.50 433.50Q221.50 433.50 237.25 417.25Q253 401 302 401Q351 401 382.50 433.50Q414 466 414 513Q414 560 382.50 592.50Q351 625 302 625Q253 625 221.50 592.50Q190 560 190 513Q190 466 221.50 433.50M1103-2.50Q1103-2.50 1070.50-36.25Q1038-70 936-70Q834-70 769-2.50Q704 65 704 162Q704 259 769 326.50Q834 394 936 394Q1038 394 1103 326.50Q1168 259 1168 162Q1168 65 1103-2.50M855.50 82.50Q855.50 82.50 871.25 66.25Q887 50 936 50Q985 50 1016.50 82.50Q1048 115 1048 162Q1048 209 1016.50 241.50Q985 274 936 274Q887 274 855.50 241.50Q824 209 824 162Q824 115 855.50 82.50Z"  horiz-adv-x="1238" vert-adv-y="1000"  />

      
      <glyph glyph-name="uni26" unicode="&#x26;" d="M941-14L815-100L693 56Q584-10 433-10Q265-10 167.50 59.50Q70 129 70 260Q70 355 127.50 404Q185 453 260 453Q341 453 398 391L398 431L238 636L238 705L784 705L784 565L458 565L701 273Q747 357 747 475L907 475Q907 280 803 151L941-14M433 130Q533 130 603 171L543 248Q497 307 454 332Q411 357 356 357Q301 357 265.50 330Q230 303 230 254Q230 130 433 130Z"  horiz-adv-x="1011" vert-adv-y="1000"  />

      
      <glyph glyph-name="uni27" unicode="&#x27;" d="M70 775L190 775L190 455L70 455L70 775Z"  horiz-adv-x="260" vert-adv-y="1000"  />

      
      <glyph glyph-name="uni28" unicode="&#x28;" d="M381-50L381-150Q225-121 147.50-7.50Q70 106 70 278Q70 450 147 563Q224 676 381 705L381 605Q323 587 284 556.50Q245 526 225 482Q205 438 197.50 390.50Q190 343 190 278Q190 213 197.50 165.50Q205 118 225 74Q245 30 284-1Q323-32 381-50Z"  horiz-adv-x="451" vert-adv-y="1000"  />

      
      <glyph glyph-name="uni29" unicode="&#x29;" d="M70-50Q128-32 167-1Q206 30 226 74Q246 118 253.50 165.50Q261 213 261 278Q261 343 253.50 390.50Q246 438 226 482Q206 526 167 556.50Q128 587 70 605L70 705Q227 676 304 563Q381 450 381 278Q381 106 303.50-7.50Q226-121 70-150L70-50Z"  horiz-adv-x="451" vert-adv-y="1000"  />

      
      <glyph glyph-name="uni2a" unicode="&#x2a;" d="M50 548L81 643L178 612L229 573L210 633L210 735L310 735L310 633L290 572L340 609L437 640L468 545L371 513L307 513L357 477L417 395L336 336L277 418L257 479L238 420L178 338L97 397L157 479L209 516L147 517L50 548Z"  horiz-adv-x="518" vert-adv-y="1000"  />

      
      <glyph glyph-name="uni2b" unicode="&#x2b;" d="M610 330L610 210L400 210L400 0L280 0L280 210L70 210L70 330L280 330L280 540L400 540L400 330L610 330Z"  horiz-adv-x="680" vert-adv-y="1000"  />

      
      <glyph glyph-name="uni2c" unicode="&#x2c;" d="M128 182L244 151L146-203L30-172L128 182Z"  horiz-adv-x="314" vert-adv-y="1000"  />

      
      <glyph glyph-name="uni2d" unicode="&#x2d;" d="M70 330L610 330L610 210L70 210L70 330Z"  horiz-adv-x="680" vert-adv-y="1000"  />

      
      <glyph glyph-name="uni2e" unicode="&#x2e;" d="M179-10Q129-10 99.50 21.50Q70 53 70 101Q70 148 99.50 179Q129 210 179 210Q228 210 259 178.50Q290 147 290 101Q290 53 259 21.50Q228-10 179-10Z"  horiz-adv-x="360" vert-adv-y="1000"  />

      
      <glyph glyph-name="uni2f" unicode="&#x2f;" d="M388 814L501 770L163-109L50-65L388 814Z"  horiz-adv-x="551" vert-adv-y="1000"  />

      
      <glyph glyph-name="uni30" unicode="&#x30;" d="M131 616Q131 616 176.50 665.50Q222 715 380 715Q538 715 628.50 616Q719 517 719 353Q719 189 628.50 89.50Q538-10 380-10Q222-10 131 89.50Q40 189 40 353Q40 517 131 616M380 575Q294 575 247 518Q200 461 200 353Q200 303 211 261L480 548Q440 575 380 575M380 130Q466 130 512.50 187Q559 244 559 353Q559 403 548 445L279 158Q320 130 380 130Z"  horiz-adv-x="759" vert-adv-y="1000"  />

      
      <glyph glyph-name="uni31" unicode="&#x31;" d="M30 425Q129 464 169 525Q209 586 209 705L520 705L520 0L360 0L360 575L390 665L350 665Q346 604 339 560.50Q332 517 314.50 470.50Q297 424 269.50 391Q242 358 196 329Q150 300 86 280L30 425Z"  horiz-adv-x="580" vert-adv-y="1000"  />

      
      <glyph glyph-name="uni32" unicode="&#x32;" d="M40 382Q40 468 65.50 533.50Q91 599 137.50 638Q184 677 243 696Q302 715 373 715Q501 715 578.50 653Q656 591 656 478Q656 423 639.50 380.50Q623 338 589 307.50Q555 277 513 255Q471 233 408.50 216Q346 199 285 186.50Q224 174 141 159Q107 153 90 150L90 110L190 140L656 140L656 0L50 0L50 280Q219 303 301 328Q496 386 496 485Q496 523 467 549Q438 575 375 575Q284 575 242 529Q200 483 200 382L40 382Z"  horiz-adv-x="696" vert-adv-y="1000"  />

      
      <glyph glyph-name="uni33" unicode="&#x33;" d="M30 269L190 269Q190 187 226.50 158.50Q263 130 359 130Q436 130 469 149Q502 168 502 211Q502 293 405 293L307 293L307 433L405 433Q492 433 492 504Q492 541 462.50 558Q433 575 359 575Q267 575 233.50 551.50Q200 528 200 466L40 466Q40 595 126.50 655Q213 715 359 715Q491 715 571.50 666Q652 617 652 524Q652 486 639.50 460Q627 434 601 419Q575 404 550 397Q525 390 485 383L485 343Q519 338 539 334.50Q559 331 585.50 320.50Q612 310 626.50 295Q641 280 651.50 253.50Q662 227 662 191Q662 91 577.50 40.50Q493-10 359-10Q288-10 231 4Q174 18 127.50 49.50Q81 81 55.50 136.50Q30 192 30 269Z"  horiz-adv-x="712" vert-adv-y="1000"  />

      
      <glyph glyph-name="uni34" unicode="&#x34;" d="M655 259L655 119L578 119L578 0L418 0L418 119L50 119L50 410Q177 430 250.50 505.50Q324 581 333 705L493 705Q485 531 381.50 419.50Q278 308 90 269L90 229L190 259L418 259L418 415L578 415L578 259L655 259Z"  horiz-adv-x="695" vert-adv-y="1000"  />

      
      <glyph glyph-name="uni35" unicode="&#x35;" d="M40 259L200 259Q200 194 240 162Q280 130 372 130Q454 130 488 162Q522 194 522 262Q522 375 410 375Q323 375 264 300L84 404L84 705L626 705L626 565L244 565L244 464L214 374L247 355Q302 515 458 515Q555 515 618.50 449Q682 383 682 266Q682 126 600 58Q518-10 372-10Q223-10 131.50 56Q40 122 40 259Z"  horiz-adv-x="732" vert-adv-y="1000"  />

      
      <glyph glyph-name="uni36" unicode="&#x36;" d="M50 347Q50 432 69.50 500.50Q89 569 129.50 621Q170 673 238.50 698Q307 723 399 715L636 695L636 555L399 575Q299 584 242 548.50Q185 513 163 417L123 327L163 327Q172 414 242.50 464.50Q313 515 414 515Q545 515 619 446.50Q693 378 693 257Q693 138 606.50 64Q520-10 372-10Q222-10 136 79.50Q50 169 50 347M210 247Q210 197 251.50 163.50Q293 130 372 130Q456 130 494.50 159Q533 188 533 257Q533 318 495 346.50Q457 375 376 375Q210 375 210 247Z"  horiz-adv-x="723" vert-adv-y="1000"  />

      
      <glyph glyph-name="uni37" unicode="&#x37;" d="M114 0Q114 221 225 358Q336 495 539 555L539 595L449 565L30 565L30 705L579 705L579 474Q420 409 352 301.50Q284 194 284 0L114 0Z"  horiz-adv-x="609" vert-adv-y="1000"  />

      
      <glyph glyph-name="uni38" unicode="&#x38;" d="M20 198Q20 282 76 319.50Q132 357 227 368L227 408Q60 423 60 552Q60 598 84.50 631Q109 664 151 681.50Q193 699 241 707Q289 715 345 715Q401 715 448.50 707Q496 699 538 681.50Q580 664 604.50 631Q629 598 629 552Q629 423 462 408L462 368Q553 358 611 317Q669 276 669 198Q669 91 583 40.50Q497-10 345-10Q192-10 106 40.50Q20 91 20 198M220 516Q220 484 249.50 470.50Q279 457 345 457Q410 457 439.50 470.50Q469 484 469 516Q469 547 439 561Q409 575 345 575Q280 575 250 561Q220 547 220 516M180 223Q180 175 219.50 152.50Q259 130 345 130Q431 130 470 152.50Q509 175 509 223Q509 317 345 317Q180 317 180 223Z"  horiz-adv-x="689" vert-adv-y="1000"  />

      
      <glyph glyph-name="uni39" unicode="&#x39;" d="M673 358Q673 273 653.50 204.50Q634 136 593.50 84Q553 32 484.50 7Q416-18 324-10L87 10L87 150L324 130Q424 121 481 156.50Q538 192 560 288L600 378L560 378Q551 291 480.50 240.50Q410 190 309 190Q178 190 104 258.50Q30 327 30 448Q30 567 116.50 641Q203 715 351 715Q501 715 587 625.50Q673 536 673 358M513 458Q513 508 471.50 541.50Q430 575 351 575Q267 575 228.50 546Q190 517 190 448Q190 387 228 358.50Q266 330 347 330Q513 330 513 458Z"  horiz-adv-x="723" vert-adv-y="1000"  />

      
      <glyph glyph-name="uni3a" unicode="&#x3a;" d="M179 295Q129 295 99.50 326.50Q70 358 70 406Q70 453 99.50 484Q129 515 179 515Q228 515 259 483.50Q290 452 290 406Q290 358 259 326.50Q228 295 179 295M179-10Q129-10 99.50 21.50Q70 53 70 101Q70 148 99.50 179Q129 210 179 210Q228 210 259 178.50Q290 147 290 101Q290 53 259 21.50Q228-10 179-10Z"  horiz-adv-x="360" vert-adv-y="1000"  />

      
      <glyph glyph-name="uni3b" unicode="&#x3b;" d="M209 295Q159 295 129.50 326.50Q100 358 100 406Q100 453 129.50 484Q159 515 209 515Q258 515 289 483.50Q320 452 320 406Q320 358 289 326.50Q258 295 209 295M128 182L244 151L146-203L30-172L128 182Z"  horiz-adv-x="390" vert-adv-y="1000"  />

      
      <glyph glyph-name="uni3c" unicode="&#x3c;" d="M70 187L70 307L579 505L617 391L210 247L617 114L579 0L70 187Z"  horiz-adv-x="687" vert-adv-y="1000"  />

      
      <glyph glyph-name="uni3d" unicode="&#x3d;" d="M70 440L610 440L610 320L70 320L70 440M70 220L610 220L610 100L70 100L70 220Z"  horiz-adv-x="680" vert-adv-y="1000"  />

      
      <glyph glyph-name="uni3e" unicode="&#x3e;" d="M617 187L108 0L70 114L477 247L70 391L108 505L617 307L617 187Z"  horiz-adv-x="687" vert-adv-y="1000"  />

      
      <glyph glyph-name="uni3f" unicode="&#x3f;" d="M50 540Q50 631 108.50 688Q167 745 287 745Q394 745 444.50 697Q495 649 495 584Q495 527 464 485.50Q433 444 377 420.50Q321 397 267.50 385Q214 373 144 366L144 332L220 359L448 359L448 259L104 259L104 457Q180 459 238 470.50Q296 482 335.50 510Q375 538 375 580Q375 645 285 645Q170 645 170 540L50 540M275-10Q225-10 195.50 21.50Q166 53 166 101Q166 148 195.50 179Q225 210 275 210Q324 210 355 178.50Q386 147 386 101Q386 53 355 21.50Q324-10 275-10Z"  horiz-adv-x="545" vert-adv-y="1000"  />

      
      <glyph glyph-name="uni40" unicode="&#x40;" d="M180 281Q180 197 208 125.50Q236 54 286 4Q336-46 409.50-71Q483-96 568-87L954-47L954-147L568-187Q434-201 320-146Q206-91 138 22Q70 135 70 281Q70 431 139 541.50Q208 652 319.50 705.50Q431 759 568 759Q775 759 905.50 644Q1036 529 1036 331Q1036 194 973.50 107Q911 20 795 20L741 20Q686 20 686 85L686 95L716 175L676 175Q661 106 610 65Q559 24 485 24Q384 24 324 93.50Q264 163 264 282Q264 400 324 469.50Q384 539 485 539Q559 539 610 498Q661 457 676 388L716 388L686 478L686 529L806 529L806 120L829 120Q926 120 926 331Q926 492 834.50 575.50Q743 659 568 659Q395 659 287.50 551.50Q180 444 180 281M384 282Q384 124 508 124Q632 124 632 282Q632 439 508 439Q384 439 384 282Z"  horiz-adv-x="1106" vert-adv-y="1000"  />

      
      <glyph glyph-name="uni41" unicode="&#x41;" d="M595 0L531 226L245 226L182 0L20 0L223 705L553 705L757 0L595 0M284 366L492 366L408 665L368 665L284 366Z"  horiz-adv-x="777" vert-adv-y="1000"  />

      
      <glyph glyph-name="uni42" unicode="&#x42;" d="M60 0L60 705L308 705Q463 705 531 668.50Q599 632 599 532Q599 505 592.50 483Q586 461 579 447Q572 433 555 422.50Q538 412 529 407Q520 402 495.50 398Q471 394 463.50 393.50Q456 393 430 391L430 351Q470 350 495 347Q520 344 553 334.50Q586 325 605 308.50Q624 292 637.50 261Q651 230 651 187Q651 140 633.50 106Q616 72 588 52Q560 32 515.50 20Q471 8 425.50 4Q380 0 320 0L60 0M220 437L328 437Q353 437 365 437.50Q377 438 394.50 441Q412 444 419.50 450.50Q427 457 433 469.50Q439 482 439 501Q439 520 433 532.50Q427 545 419.50 551.50Q412 558 394.50 561Q377 564 365 564.50Q353 565 328 565L220 565L220 437M220 140L340 140Q376 140 393 140.50Q410 141 433.50 145Q457 149 466.50 157Q476 165 483.50 180Q491 195 491 218Q491 241 483.50 256.50Q476 272 466.50 280Q457 288 433.50 292Q410 296 393 296.50Q376 297 340 297L220 297L220 140Z"  horiz-adv-x="701" vert-adv-y="1000"  />

      
      <glyph glyph-name="uni43" unicode="&#x43;" d="M50 353Q50 510 148.50 612.50Q247 715 412 715Q559 715 651.50 639.50Q744 564 760 433L600 433Q588 501 538 538Q488 575 414 575Q320 575 265 517.50Q210 460 210 353Q210 246 265 188Q320 130 414 130Q488 130 538 167.50Q588 205 600 273L760 273Q744 141 651.50 65.50Q559-10 412-10Q247-10 148.50 92.50Q50 195 50 353Z"  horiz-adv-x="810" vert-adv-y="1000"  />

      
      <glyph glyph-name="uni44" unicode="&#x44;" d="M320 705Q383 705 433 698Q483 691 535.50 668.50Q588 646 623.50 608.50Q659 571 681.50 506Q704 441 704 353Q704 265 681.50 200Q659 135 623.50 97.50Q588 60 535.50 37Q483 14 433 7Q383 0 320 0L60 0L60 705L320 705M320 140Q352 140 372.50 141Q393 142 419 146.50Q445 151 461 159.50Q477 168 494.50 184Q512 200 522 222Q532 244 538 277Q544 310 544 353Q544 412 532 452.50Q520 493 502 515Q484 537 451.50 548.50Q419 560 392 562.50Q365 565 320 565L220 565L220 140L320 140Z"  horiz-adv-x="754" vert-adv-y="1000"  />

      
      <glyph glyph-name="uni45" unicode="&#x45;" d="M60 0L60 705L563 705L563 565L220 565L220 423L513 423L513 283L220 283L220 140L563 140L563 0L60 0Z"  horiz-adv-x="603" vert-adv-y="1000"  />

      
      <glyph glyph-name="uni46" unicode="&#x46;" d="M60 0L60 705L563 705L563 565L220 565L220 362L540 382L540 240L220 220L220 0L60 0Z"  horiz-adv-x="603" vert-adv-y="1000"  />

      
      <glyph glyph-name="uni47" unicode="&#x47;" d="M50 353Q50 513 150.50 614Q251 715 405 715Q538 715 631 642Q724 569 740 453L580 453Q568 516 526 545.50Q484 575 405 575Q210 575 210 353Q210 237 252.50 183.50Q295 130 383 130Q456 130 497.50 166.50Q539 203 539 273L376 273L376 393L744 393Q829 393 829 308L829 0L669 0L669 243L699 353L659 353Q658 181 588 85.50Q518-10 377-10Q222-10 136 89Q50 188 50 353Z"  horiz-adv-x="889" vert-adv-y="1000"  />

      
      <glyph glyph-name="uni48" unicode="&#x48;" d="M574 705L734 705L734 0L574 0L574 273L220 273L220 0L60 0L60 705L220 705L220 413L574 413L574 705Z"  horiz-adv-x="794" vert-adv-y="1000"  />

      
      <glyph glyph-name="uni49" unicode="&#x49;" d="M530 565L370 565L370 140L530 140L530 0L50 0L50 140L210 140L210 565L50 565L50 705L530 705L530 565Z"  horiz-adv-x="580" vert-adv-y="1000"  />

      
      <glyph glyph-name="uni4a" unicode="&#x4a;" d="M199-10L20 0L20 140L199 130Q233 128 257 136.50Q281 145 294 159.50Q307 174 314 202Q321 230 323 256Q325 282 325 324L325 575L113 565L113 705L400 715Q441 716 463 694Q485 672 485 630L485 270Q485 113 423.50 47Q362-19 199-10Z"  horiz-adv-x="535" vert-adv-y="1000"  />

      
      <glyph glyph-name="uni4b" unicode="&#x4b;" d="M749 705L324 352L749 0L515 0L220 249L220 0L60 0L60 705L220 705L220 455L515 705L749 705Z"  horiz-adv-x="769" vert-adv-y="1000"  />

      
      <glyph glyph-name="uni4c" unicode="&#x4c;" d="M146-10Q105-11 82.50 11Q60 33 60 74L60 705L220 705L220 130L563 140L563 0L146-10Z"  horiz-adv-x="583" vert-adv-y="1000"  />

      
      <glyph glyph-name="uni4d" unicode="&#x4d;" d="M60 0L60 705L375 705L478 40L518 40L621 705L936 705L936 0L776 0L776 565L806 665L766 665L653 0L343 0L230 665L190 665L220 565L220 0L60 0Z"  horiz-adv-x="996" vert-adv-y="1000"  />

      
      <glyph glyph-name="uni4e" unicode="&#x4e;" d="M60 0L60 705L375 705L588 40L628 40L598 140L598 705L758 705L758 0L443 0L230 665L190 665L220 565L220 0L60 0Z"  horiz-adv-x="818" vert-adv-y="1000"  />

      
      <glyph glyph-name="uni4f" unicode="&#x4f;" d="M50 353Q50 510 148 612.50Q246 715 410 715Q574 715 671.50 612.50Q769 510 769 353Q769 195 671.50 92.50Q574-10 410-10Q245-10 147.50 92.50Q50 195 50 353M261 516Q261 516 235.50 486.50Q210 457 210 353Q210 249 261 189.50Q312 130 410 130Q508 130 558.50 189.50Q609 249 609 353Q609 457 558.50 516Q508 575 410 575Q312 575 261 516Z"  horiz-adv-x="819" vert-adv-y="1000"  />

      
      <glyph glyph-name="uni50" unicode="&#x50;" d="M313 705Q387 705 438.50 696Q490 687 535.50 662Q581 637 604 586Q627 535 627 458Q627 395 611 350Q595 305 568.50 278Q542 251 500 235.50Q458 220 415 215Q372 210 313 210L220 210L220 0L60 0L60 705L313 705M323 350Q402 350 434.50 369.50Q467 389 467 458Q467 526 434.50 545.50Q402 565 323 565L220 565L220 350L323 350Z"  horiz-adv-x="667" vert-adv-y="1000"  />

      
      <glyph glyph-name="uni51" unicode="&#x51;" d="M556-30Q686-20 915-50L915-190Q699-163 557.50-165Q416-167 220-195L207-65Q209-65 245.50-61.50Q282-58 291-57Q300-56 334-51.50Q368-47 382.50-44Q397-41 427-34.50Q457-28 475.50-21.50Q494-15 517.50-5.50Q541 4 561 15L539 51Q478 0 362 0Q233 0 141.50 98Q50 196 50 353Q50 509 152.50 612Q255 715 420 715Q587 715 688 615Q789 515 789 353Q789 214 724 120Q659 26 556-30M265.50 190Q265.50 190 293.25 160Q321 130 420 130Q519 130 574 190Q629 250 629 353Q629 455 574 515Q519 575 420 575Q321 575 265.50 515Q210 455 210 353Q210 250 265.50 190Z"  horiz-adv-x="835" vert-adv-y="1000"  />

      
      <glyph glyph-name="uni52" unicode="&#x52;" d="M60 0L60 705L333 705Q647 705 647 508Q647 371 468 350L468 310L571 310Q656 310 656 225L656 0L496 0L496 248L220 248L220 0L60 0M220 388L333 388Q370 388 386.50 388.50Q403 389 427 393.50Q451 398 461 407Q471 416 479 433Q487 450 487 476Q487 502 479 519.50Q471 537 461 546Q451 555 427 559.50Q403 564 386.50 564.50Q370 565 333 565L220 565L220 388Z"  horiz-adv-x="716" vert-adv-y="1000"  />

      
      <glyph glyph-name="uni53" unicode="&#x53;" d="M681 194Q681 98 608 44Q535-10 379-10Q195-10 112.50 61.50Q30 133 30 272L190 272Q190 192 233.50 161Q277 130 384 130Q521 130 521 192Q521 214 497 232.50Q473 251 446 261.50Q419 272 362 291Q356 293 352 294Q348 295 342.50 297Q337 299 332 301Q282 318 259 326.50Q236 335 197 351.50Q158 368 139.50 382.50Q121 397 100 419Q79 441 70.50 468Q62 495 62 529Q62 619 132.50 667Q203 715 339 715Q494 715 573 645.50Q652 576 652 465L492 465Q492 575 339 575Q222 575 222 523Q222 499 245 484Q268 469 352 441Q492 393 540 370Q681 299 681 194Z"  horiz-adv-x="711" vert-adv-y="1000"  />

      
      <glyph glyph-name="uni54" unicode="&#x54;" d="M651 705L651 565L421 565L421 0L261 0L261 565L30 565L30 705L651 705Z"  horiz-adv-x="681" vert-adv-y="1000"  />

      
      <glyph glyph-name="uni55" unicode="&#x55;" d="M40 262L40 705L200 705L200 333Q200 289 202.50 262.50Q205 236 213.50 208Q222 180 239 164.50Q256 149 285.50 139.50Q315 130 358 130Q412 130 445 143Q478 156 493 185.50Q508 215 512.50 247Q517 279 517 333L517 705L677 705L677 262Q677 130 595.50 60Q514-10 358-10Q202-10 121 59.50Q40 129 40 262Z"  horiz-adv-x="717" vert-adv-y="1000"  />

      
      <glyph glyph-name="uni56" unicode="&#x56;" d="M20 705L182 705L368 40L408 40L595 705L757 705L553 0L223 0L20 705Z"  horiz-adv-x="777" vert-adv-y="1000"  />

      
      <glyph glyph-name="uni57" unicode="&#x57;" d="M20 705L175 705L287 40L327 40L414 705L754 705L841 40L881 40L993 705L1148 705L1027 0L695 0L604 665L564 665L473 0L141 0L20 705Z"  horiz-adv-x="1168" vert-adv-y="1000"  />

      
      <glyph glyph-name="uni58" unicode="&#x58;" d="M20 0L258 333L258 373L20 705L204 705L394 435L585 705L769 705L530 373L530 333L769 0L585 0L394 271L204 0L20 0Z"  horiz-adv-x="789" vert-adv-y="1000"  />

      
      <glyph glyph-name="uni59" unicode="&#x59;" d="M532 705L703 705L441 227L441 0L281 0L281 227L20 705L191 705L341 411L341 321L381 321L381 411L532 705Z"  horiz-adv-x="723" vert-adv-y="1000"  />

      
      <glyph glyph-name="uni5a" unicode="&#x5a;" d="M40 0L40 295L587 555L587 595L497 565L40 565L40 705L627 705L627 410L80 150L80 110L170 140L627 140L627 0L40 0Z"  horiz-adv-x="667" vert-adv-y="1000"  />

      
      <glyph glyph-name="uni5b" unicode="&#x5b;" d="M70 705L391 705L391 605L191 605L191-50L391-50L391-150L70-150L70 705Z"  horiz-adv-x="461" vert-adv-y="1000"  />

      
      <glyph glyph-name="uni5c" unicode="&#x5c;" d="M163 814L501-65L388-109L50 770L163 814Z"  horiz-adv-x="551" vert-adv-y="1000"  />

      
      <glyph glyph-name="uni5d" unicode="&#x5d;" d="M391 705L391-150L70-150L70-50L270-50L270 605L70 605L70 705L391 705Z"  horiz-adv-x="461" vert-adv-y="1000"  />

      
      <glyph glyph-name="uni5e" unicode="&#x5e;" d="M373 366L306 665L266 665L198 366L70 366L166 705L406 705L501 366L373 366Z"  horiz-adv-x="571" vert-adv-y="1000"  />

      
      <glyph glyph-name="uni5f" unicode="&#x5f;" d="M50-20L590-20L590-140L50-140L50-20Z"  horiz-adv-x="640" vert-adv-y="1000"  />

      
      <glyph glyph-name="uni60" unicode="&#x60;" d="M487 669L460 555L70 641L97 755L487 669Z"  horiz-adv-x="557" vert-adv-y="1000"  />

      
      <glyph glyph-name="uni61" unicode="&#x61;" d="M40 138Q40 205 86 243.50Q132 282 242 297L401 319Q401 385 300 385Q252 385 226 366Q200 347 200 312L50 312Q50 406 120.50 460.50Q191 515 300 515Q413 515 487 457Q561 399 561 282L561 140L634 140L634 0L523 0Q487 0 467.50 19.50Q448 39 448 75L448 85L473 145L433 145Q417 73 369.50 31.50Q322-10 224-10Q169-10 130 5Q91 20 73 45Q55 70 47.50 92.50Q40 115 40 138M200 168Q200 130 255 130Q322 130 361.50 156.50Q401 183 401 229L272 211Q232 205 216 196.50Q200 188 200 168Z"  horiz-adv-x="644" vert-adv-y="1000"  />

      
      <glyph glyph-name="uni62" unicode="&#x62;" d="M60 0L60 735L220 735L220 474L190 384L230 384Q253 444 298.50 479.50Q344 515 429 515Q534 515 591 440.50Q648 366 648 253Q648 140 591 65Q534-10 429-10Q344-10 298.50 25.50Q253 61 230 121L190 121L220 31L220 0L60 0M220 253Q220 130 354 130Q488 130 488 253Q488 375 354 375Q220 375 220 253Z"  horiz-adv-x="688" vert-adv-y="1000"  />

      
      <glyph glyph-name="uni63" unicode="&#x63;" d="M40 253Q40 376 116 445.50Q192 515 316 515Q426 515 504 457Q582 399 587 296L427 296Q422 331 392.50 353Q363 375 316 375Q260 375 230 343Q200 311 200 253Q200 194 229.50 162Q259 130 316 130Q363 130 392.50 152Q422 174 427 209L587 209Q582 106 504 48Q426-10 316-10Q192-10 116 59.50Q40 129 40 253Z"  horiz-adv-x="627" vert-adv-y="1000"  />

      
      <glyph glyph-name="uni64" unicode="&#x64;" d="M628 0L468 0L468 31L498 121L458 121Q435 61 389.50 25.50Q344-10 259-10Q154-10 97 65Q40 140 40 253Q40 366 97 440.50Q154 515 259 515Q344 515 389.50 479.50Q435 444 458 384L498 384L468 474L468 735L628 735L628 0M468 253Q468 375 334 375Q200 375 200 253Q200 130 334 130Q468 130 468 253Z"  horiz-adv-x="688" vert-adv-y="1000"  />

      
      <glyph glyph-name="uni65" unicode="&#x65;" d="M40 259Q40 377 113.50 446Q187 515 306 515Q425 515 499 448.50Q573 382 573 269L573 219L190 219Q190 174 223.50 147Q257 120 323 120Q366 120 395 135Q424 150 431 178L591 178Q587 149 569 117.50Q551 86 519.50 57Q488 28 436.50 9Q385-10 323-10Q185-10 112.50 67Q40 144 40 259M190 309L423 309Q423 341 395.50 363Q368 385 306 385Q244 385 217 363.50Q190 342 190 309Z"  horiz-adv-x="631" vert-adv-y="1000"  />

      
      <glyph glyph-name="uni66" unicode="&#x66;" d="M354 595Q318 595 302 577Q286 559 286 518L286 505L432 505L432 365L286 365L286 140L432 140L432 0L30 0L30 140L126 140L126 365L30 365L30 505L126 505L126 523Q126 735 374 735L460 735L460 595L354 595Z"  horiz-adv-x="470" vert-adv-y="1000"  />

      
      <glyph glyph-name="uni67" unicode="&#x67;" d="M652 505L696 505L696 365L662 365Q629 365 615 356Q629 337 629 298Q629 230 570.50 182Q512 134 401 96Q463 100 510.50 90Q558 80 590.50 48.50Q623 17 623-34Q623-71 609-98Q595-125 562.50-143.50Q530-162 489.50-173Q449-184 381.50-190Q314-196 245-198Q176-200 73-200L73-60Q325-60 393.50-50Q462-40 462 0Q462 25 434 36.50Q406 48 358 45.50Q310 43 256 35.50Q202 28 141 18Q131 16 126 15L109 105Q319 127 420 151L420 191Q350 166 282.50 160Q215 154 160.50 167Q106 180 73 219Q40 258 40 318Q40 414 119.50 464.50Q199 515 325 515Q452 515 525 461Q559 505 652 505M335 241Q469 241 469 308Q469 375 335 375Q200 375 200 308Q200 241 335 241Z"  horiz-adv-x="706" vert-adv-y="1000"  />

      
      <glyph glyph-name="uni68" unicode="&#x68;" d="M421 515Q519 515 573.50 452Q628 389 628 273L628 0L468 0L468 248Q468 317 444.50 346Q421 375 364 375Q294 375 257 331.50Q220 288 220 187L220 0L60 0L60 735L220 735L220 444L190 354L230 354Q246 426 295 470.50Q344 515 421 515Z"  horiz-adv-x="678" vert-adv-y="1000"  />

      
      <glyph glyph-name="uni69" unicode="&#x69;" d="M317.50 576Q317.50 576 304.75 565.50Q292 555 247 555Q202 555 177.50 575.50Q153 596 153 635Q153 673 178 694Q203 715 247 715Q292 715 317.50 694Q343 673 343 635Q343 597 317.50 576M40 0L40 140L183 140L183 371L60 365L60 505L250 515Q292 517 314.50 495Q337 473 337 431L337 140L480 140L480 0L40 0Z"  horiz-adv-x="500" vert-adv-y="1000"  />

      
      <glyph glyph-name="uni6a" unicode="&#x6a;" d="M276.50 576Q276.50 576 263.75 565.50Q251 555 206 555Q161 555 136.50 575.50Q112 596 112 635Q112 673 137 694Q162 715 206 715Q251 715 276.50 694Q302 673 302 635Q302 597 276.50 576M10-200L116-26Q133 1 133 42L133 371L10 365L10 505L213 512Q254 513 276.50 491.50Q299 470 299 429L299 30Q299-7 282-38L190-200L10-200Z"  horiz-adv-x="347" vert-adv-y="1000"  />

      
      <glyph glyph-name="uni6b" unicode="&#x6b;" d="M457 0L331 195L220 143L220 0L60 0L60 735L220 735L220 308L451 414L449 505L609 505L609 395Q609 325 546 295L468 259L639 0L457 0Z"  horiz-adv-x="669" vert-adv-y="1000"  />

      
      <glyph glyph-name="uni6c" unicode="&#x6c;" d="M30 0L30 140L170 140L170 601L50 595L50 735L243 742Q285 743 307.50 721.50Q330 700 330 658L330 140L470 140L470 0L30 0Z"  horiz-adv-x="490" vert-adv-y="1000"  />

      
      <glyph glyph-name="uni6d" unicode="&#x6d;" d="M736 515Q904 515 904 263L904 0L744 0L744 252Q744 324 728.50 349.50Q713 375 669 375Q608 375 585 326Q562 277 562 177L562 0L402 0L402 252Q402 324 386.50 349.50Q371 375 327 375Q266 375 243 326Q220 277 220 177L220 0L60 0L60 505L220 505L220 454L190 364L230 364Q264 515 394 515Q518 515 544 364L573 364Q607 515 736 515Z"  horiz-adv-x="954" vert-adv-y="1000"  />

      
      <glyph glyph-name="uni6e" unicode="&#x6e;" d="M364 375Q294 375 257 331.50Q220 288 220 187L220 0L60 0L60 505L220 505L220 444L190 354L230 354Q246 426 295 470.50Q344 515 421 515Q519 515 573.50 452Q628 389 628 273L628 0L468 0L468 248Q468 317 444.50 346Q421 375 364 375Z"  horiz-adv-x="678" vert-adv-y="1000"  />

      
      <glyph glyph-name="uni6f" unicode="&#x6f;" d="M40 253Q40 380 120 447.50Q200 515 325 515Q450 515 529.50 447.50Q609 380 609 253Q609 126 529.50 58Q450-10 325-10Q200-10 120 57.50Q40 125 40 253M200 253Q200 191 233 160.50Q266 130 325 130Q383 130 416 160.50Q449 191 449 253Q449 314 416 344.50Q383 375 325 375Q266 375 233 344.50Q200 314 200 253Z"  horiz-adv-x="649" vert-adv-y="1000"  />

      
      <glyph glyph-name="uni70" unicode="&#x70;" d="M60 505L220 505L220 474L190 384L230 384Q253 444 298.50 479.50Q344 515 429 515Q534 515 591 440Q648 365 648 252Q648 139 591 64.50Q534-10 429-10Q344-10 298.50 25.50Q253 61 230 121L190 121L220 31L220-190L60-190L60 505M220 252Q220 130 354 130Q488 130 488 252Q488 375 354 375Q220 375 220 252Z"  horiz-adv-x="688" vert-adv-y="1000"  />

      
      <glyph glyph-name="uni71" unicode="&#x71;" d="M628 505L628-190L468-190L468 31L498 121L458 121Q435 61 389.50 25.50Q344-10 259-10Q154-10 97 64.50Q40 139 40 252Q40 365 97 440Q154 515 259 515Q344 515 389.50 479.50Q435 444 458 384L498 384L468 474L468 505L628 505M468 252Q468 375 334 375Q200 375 200 252Q200 130 334 130Q468 130 468 252Z"  horiz-adv-x="688" vert-adv-y="1000"  />

      
      <glyph glyph-name="uni72" unicode="&#x72;" d="M60 0L60 429Q60 470 82.50 492Q105 514 146 513L477 505L477 365L220 371L220 0L60 0Z"  horiz-adv-x="487" vert-adv-y="1000"  />

      
      <glyph glyph-name="uni73" unicode="&#x73;" d="M531 139Q531-10 296-10Q161-10 95.50 40.50Q30 91 30 183L190 183Q190 110 301 110Q371 110 371 144Q371 161 354 170Q337 179 280 198Q268 202 262 204Q257 206 227 215.50Q197 225 188.50 228Q180 231 155 241Q130 251 121 258Q112 265 95 278Q78 291 71.50 303.50Q65 316 59 334Q53 352 53 373Q53 440 111 477.50Q169 515 273 515Q394 515 454 463.50Q514 412 514 332L354 332Q354 360 333 377.50Q312 395 272 395Q213 395 213 366Q213 350 240.50 337.50Q268 325 343 301Q442 269 474 247Q531 209 531 139Z"  horiz-adv-x="551" vert-adv-y="1000"  />

      
      <glyph glyph-name="uni74" unicode="&#x74;" d="M290 130L476 140L476 0L215-10Q174-11 152 11Q130 33 130 75L130 365L10 365L10 505L130 505L130 600L290 650L290 505L456 505L456 365L290 365L290 130Z"  horiz-adv-x="506" vert-adv-y="1000"  />

      
      <glyph glyph-name="uni75" unicode="&#x75;" d="M314 130Q384 130 421 173.50Q458 217 458 318L458 505L618 505L618 0L458 0L458 61L488 151L448 151Q432 79 383 34.50Q334-10 257-10Q159-10 104.50 53Q50 116 50 232L50 505L210 505L210 257Q210 188 233.50 159Q257 130 314 130Z"  horiz-adv-x="668" vert-adv-y="1000"  />

      
      <glyph glyph-name="uni76" unicode="&#x76;" d="M439 505L597 505L469 0L139 0L10 505L168 505L284 40L324 40L439 505Z"  horiz-adv-x="607" vert-adv-y="1000"  />

      
      <glyph glyph-name="uni77" unicode="&#x77;" d="M10 505L163 505L228 40L268 40L307 505L641 505L680 40L720 40L786 505L938 505L867 0L533 0L494 465L454 465L415 0L81 0L10 505Z"  horiz-adv-x="948" vert-adv-y="1000"  />

      
      <glyph glyph-name="uni78" unicode="&#x78;" d="M30 0L222 233L222 273L30 505L220 505L337 343L454 505L644 505L452 273L452 233L644 0L454 0L337 163L220 0L30 0Z"  horiz-adv-x="674" vert-adv-y="1000"  />

      
      <glyph glyph-name="uni79" unicode="&#x79;" d="M471 505L652 505L421 30L421-126Q421-168 398.50-190Q376-212 335-210L88-203L88-63L261-66L261 30L30 505L210 505L321 227L321 147L361 147L361 227L471 505Z"  horiz-adv-x="672" vert-adv-y="1000"  />

      
      <glyph glyph-name="uni7a" unicode="&#x7a;" d="M40 0L40 270L497 355L497 395L407 365L40 365L40 505L537 505L537 235L80 150L80 110L170 140L537 140L537 0L40 0Z"  horiz-adv-x="577" vert-adv-y="1000"  />

      
      <glyph glyph-name="uni7b" unicode="&#x7b;" d="M362 605L272 635L272 595Q399 564 449.50 525Q500 486 500 397Q500 345 466 280Q500 215 500 163Q500 74 449.50 35Q399-4 272-35L272-75L362-45L584-45L584-145L232-145L232 26Q319 53 359.50 88Q400 123 400 191Q327 118 249 118Q173 118 126.50 161Q80 204 80 280Q80 358 124 400Q168 442 249 442Q327 442 400 369Q400 437 359.50 472Q319 507 232 534L232 705L584 705L584 605L362 605M268 208Q292 208 319 228.50Q346 249 367 280Q346 311 319 331.50Q292 352 268 352Q239 352 219.50 333Q200 314 200 280Q200 246 219.50 227Q239 208 268 208Z"  horiz-adv-x="664" vert-adv-y="1000"  />

      
      <glyph glyph-name="uni7c" unicode="&#x7c;" d="M70 853L190 853L190-148L70-148L70 853Z"  horiz-adv-x="260" vert-adv-y="1000"  />

      
      <glyph glyph-name="uni7d" unicode="&#x7d;" d="M574 280Q574 204 527.50 161Q481 118 405 118Q327 118 254 191Q254 123 294.50 88Q335 53 422 26L422-145L70-145L70-45L292-45L382-75L382-35Q255-4 204.50 35Q154 74 154 163Q154 215 188 280Q154 345 154 397Q154 486 204.50 525Q255 564 382 595L382 635L292 605L70 605L70 705L422 705L422 534Q335 507 294.50 472Q254 437 254 369Q327 442 405 442Q486 442 530 400Q574 358 574 280M287 280Q308 249 335 228.50Q362 208 386 208Q415 208 434.50 227Q454 246 454 280Q454 314 434.50 333Q415 352 386 352Q362 352 335 331.50Q308 311 287 280Z"  horiz-adv-x="644" vert-adv-y="1000"  />

      
      <glyph glyph-name="uni7e" unicode="&#x7e;" d="M70 170Q70 264 108 317Q146 370 212 370Q254 370 297 350Q340 330 375 310Q410 290 431 290Q456 290 467 308Q478 326 478 370L598 370Q598 276 560 223Q522 170 456 170Q414 170 371 190Q328 210 293 230Q258 250 237 250Q212 250 201 232Q190 214 190 170L70 170Z"  horiz-adv-x="668" vert-adv-y="1000"  />

      
      <glyph glyph-name="unia1" unicode="&#xa1;" d="M180 515Q229 515 260 483.50Q291 452 291 404Q291 358 260 326.50Q229 295 180 295Q130 295 100.50 326Q71 357 71 404Q71 452 100.50 483.50Q130 515 180 515M101-200L131 246L231 246L261-200L101-200Z"  horiz-adv-x="361" vert-adv-y="1000"  />

      
      <glyph glyph-name="unia2" unicode="&#xa2;" d="M393 242Q451 261 457 314L617 314Q613 222 550 166Q487 110 393 98L393-148L295-147L295 98Q192 113 131 180.50Q70 248 70 358Q70 467 130.50 534.50Q191 602 293 616L293 853L392 852L392 617Q486 605 549.50 549Q613 493 617 401L457 401Q454 426 437 445Q420 464 392 473L393 242M230 358Q230 270 294 244L294 471Q230 445 230 358Z"  horiz-adv-x="687" vert-adv-y="1000"  />

      
      <glyph glyph-name="unia3" unicode="&#xa3;" d="M368 565Q313 568 284.50 557.50Q256 547 256 516Q256 499 266 480Q276 461 283 453Q290 445 311 421L568 421L568 321L366 321Q368 305 368 294Q368 271 359.50 252Q351 233 340.50 220.50Q330 208 306.50 197Q283 186 267 180Q251 174 217.50 167.50Q184 161 166.50 158Q149 155 110 150L110 110L200 140L608 140L608 0L70 0L70 209Q150 229 178.50 249.50Q207 270 208 321L70 321L70 421L153 421Q135 440 125 454Q115 468 105.50 494Q96 520 96 551Q96 609 142.50 646Q189 683 250 695.50Q311 708 378 705L608 695L608 555L368 565Z"  horiz-adv-x="678" vert-adv-y="1000"  />

      
      <glyph glyph-name="unia4" unicode="&#xa4;" d="M587 481Q623 423 623 352Q623 281 587 223L706 104L636 34L516 154Q462 120 391 120Q318 120 262 156L140 34L70 104L193 227Q159 283 159 352Q159 421 193 477L70 600L140 670L262 548Q318 584 391 584Q462 584 516 550L636 670L706 600L587 481M310.50 272.50Q310.50 272.50 326.25 256.25Q342 240 391 240Q440 240 471.50 272.50Q503 305 503 352Q503 399 471.50 431.50Q440 464 391 464Q342 464 310.50 431.50Q279 399 279 352Q279 305 310.50 272.50Z"  horiz-adv-x="776" vert-adv-y="1000"  />

      
      <glyph glyph-name="unia5" unicode="&#xa5;" d="M753 705L543 321L681 321L681 221L491 221L491 181L681 181L681 81L491 81L491 0L331 0L331 81L141 81L141 181L331 181L331 221L141 221L141 321L280 321L70 705L241 705L391 411L391 321L431 321L431 411L582 705L753 705Z"  horiz-adv-x="823" vert-adv-y="1000"  />

      
      <glyph glyph-name="unia6" unicode="&#xa6;" d="M70 483L70 853L190 853L190 483L70 483M190 222L190-148L70-148L70 222L190 222Z"  horiz-adv-x="260" vert-adv-y="1000"  />

      
      <glyph glyph-name="unia7" unicode="&#xa7;" d="M70 356Q70 390 93 418.50Q116 447 167 459Q111 483 90.50 509Q70 535 70 573Q70 640 128 677.50Q186 715 290 715Q411 715 471 663.50Q531 612 531 532L371 532Q371 560 350 577.50Q329 595 289 595Q230 595 230 567Q230 548 265 534Q300 520 360 503Q402 489 419 483Q436 477 467 462.50Q498 448 511.50 434.50Q525 421 536.50 398.50Q548 376 548 349Q548 315 525 286.50Q502 258 451 246Q507 222 527.50 196Q548 170 548 132Q548 65 490 27.50Q432-10 328-10Q207-10 147 41.50Q87 93 87 173L247 173Q247 145 268 127.50Q289 110 329 110Q388 110 388 138Q388 157 353 171Q318 185 258 202Q216 216 199 222Q182 228 151 242.50Q120 257 106.50 270.50Q93 284 81.50 306.50Q70 329 70 356M220 373Q220 332 305 305Q398 275 398 331Q398 354 377 368Q356 382 312 398Q220 431 220 373Z"  horiz-adv-x="618" vert-adv-y="1000"  />

      
      <glyph glyph-name="unia8" unicode="&#xa8;" d="M169 555Q70 555 70 635Q70 673 95.50 694Q121 715 169 715Q217 715 243.50 694Q270 673 270 635Q270 596 243.50 575.50Q217 555 169 555M429 555Q330 555 330 635Q330 673 355.50 694Q381 715 429 715Q477 715 503.50 694Q530 673 530 635Q530 596 503.50 575.50Q477 555 429 555Z"  horiz-adv-x="600" vert-adv-y="1000"  />

      
      <glyph glyph-name="unia9" unicode="&#xa9;" d="M929.50-74Q929.50-74 861.25-145.50Q793-217 568-217Q343-217 206.50-74Q70 69 70 281Q70 493 206.50 636Q343 779 568 779Q793 779 929.50 636Q1066 493 1066 281Q1066 69 929.50-74M279.50-1.50Q279.50-1.50 334.25-59.25Q389-117 568-117Q747-117 856.50-1.50Q966 114 966 281Q966 448 856.50 563.50Q747 679 568 679Q389 679 279.50 563.50Q170 448 170 281Q170 114 279.50-1.50M295 282Q295 405 371 474.50Q447 544 571 544Q681 544 759 486Q837 428 842 325L682 325Q677 360 647.50 382Q618 404 571 404Q515 404 485 372Q455 340 455 282Q455 223 484.50 191Q514 159 571 159Q618 159 647.50 181Q677 203 682 238L842 238Q837 135 759 77Q681 19 571 19Q447 19 371 88.50Q295 158 295 282Z"  horiz-adv-x="1136" vert-adv-y="1000"  />

      
      <glyph glyph-name="uniab" unicode="&#xab;" d="M477 10L389-70L70 248L389 565L477 485L240 248L477 10M777 10L689-70L370 248L689 565L777 485L540 248L777 10Z"  horiz-adv-x="847" vert-adv-y="1000"  />

      
      <glyph glyph-name="uniac" unicode="&#xac;" d="M610 415L610 146L490 146L490 295L70 295L70 415L610 415Z"  horiz-adv-x="680" vert-adv-y="1000"  />

      
      <glyph glyph-name="uniae" unicode="&#xae;" d="M582 301.50Q582 301.50 542 259.25Q502 217 366 217Q230 217 150 301.50Q70 386 70 513Q70 640 150 724.50Q230 809 366 809Q502 809 582 724.50Q662 640 662 513Q662 386 582 301.50M208 359.50Q208 359.50 237 328.25Q266 297 366 297Q466 297 524 359.50Q582 422 582 513Q582 604 524 666.50Q466 729 366 729Q266 729 208 666.50Q150 604 150 513Q150 422 208 359.50M237 375L237 656L361 656Q395 656 424.50 650.50Q454 645 479.50 625.50Q505 606 505 574Q505 539 482 525.50Q459 512 420 508L420 488L480 488Q505 488 505 463L505 375L429 375L429 453L313 453L313 375L237 375M313 529L361 529Q381 529 390 529.50Q399 530 410 532Q421 534 425 540Q429 546 429 555Q429 572 414 576Q399 580 361 580L313 580L313 529Z"  horiz-adv-x="732" vert-adv-y="1000"  />

      
      <glyph glyph-name="uniaf" unicode="&#xaf;" d="M70 720L500 720L500 602L70 600L70 720Z"  horiz-adv-x="570" vert-adv-y="1000"  />

      
      <glyph glyph-name="unib0" unicode="&#xb0;" d="M469 348.50Q469 348.50 436.50 314.75Q404 281 302 281Q200 281 135 348.50Q70 416 70 513Q70 610 135 677.50Q200 745 302 745Q404 745 469 677.50Q534 610 534 513Q534 416 469 348.50M221.50 433.50Q221.50 433.50 237.25 417.25Q253 401 302 401Q351 401 382.50 433.50Q414 466 414 513Q414 560 382.50 592.50Q351 625 302 625Q253 625 221.50 592.50Q190 560 190 513Q190 466 221.50 433.50Z"  horiz-adv-x="604" vert-adv-y="1000"  />

      
      <glyph glyph-name="unib1" unicode="&#xb1;" d="M400 440L610 440L610 320L400 320L400 180L280 180L280 320L70 320L70 440L280 440L280 579L400 579L400 440M70 0L70 120L610 120L610 0L70 0Z"  horiz-adv-x="680" vert-adv-y="1000"  />

      
      <glyph glyph-name="unib4" unicode="&#xb4;" d="M70 669L460 755L487 641L97 555L70 669Z"  horiz-adv-x="557" vert-adv-y="1000"  />

      
      <glyph glyph-name="unib6" unicode="&#xb6;" d="M373 853L493 853L493-148L373-148L373 355Q206 355 138 421.50Q70 488 70 604Q70 720 138 786.50Q206 853 373 853M554 853L674 853L674-148L554-148L554 853Z"  horiz-adv-x="744" vert-adv-y="1000"  />

      
      <glyph glyph-name="unib7" unicode="&#xb7;" d="M179 143Q129 143 99.50 174.50Q70 206 70 254Q70 301 99.50 332Q129 363 179 363Q228 363 259 331.50Q290 300 290 254Q290 206 259 174.50Q228 143 179 143Z"  horiz-adv-x="360" vert-adv-y="1000"  />

      
      <glyph glyph-name="unib8" unicode="&#xb8;" d="M263-40Q349-40 349-102Q349-137 327-160Q305-183 261.50-193Q218-203 175-206.50Q132-210 70-210L70-120Q191-120 209-116Q229-111 229-97Q229-80 206-80Q179-80 128-98L77-59L104 0L224 0L170-60Q214-40 263-40Z"  horiz-adv-x="419" vert-adv-y="1000"  />

      
      <glyph glyph-name="unibb" unicode="&#xbb;" d="M70 10L307 248L70 485L158 565L477 248L158-70L70 10M370 10L607 248L370 485L458 565L777 248L458-70L370 10Z"  horiz-adv-x="847" vert-adv-y="1000"  />

      
      <glyph glyph-name="unibc" unicode="&#xbc;" d="M677 814L790 770L452-109L339-65L677 814M30 596Q77 635 91 662.50Q105 690 113 765L339 765L339 290L219 290L219 655L239 725L209 725Q196 535 81 486L30 596M760 60L760 306Q919 336 942 475L1062 475Q1052 374 983 294.50Q914 215 780 190L780 160L850 180L980 180L980 259L1100 259L1100 180L1165 180L1165 60L1100 60L1100 0L980 0L980 60L760 60Z"  horiz-adv-x="1195" vert-adv-y="1000"  />

      
      <glyph glyph-name="unibd" unicode="&#xbd;" d="M677 814L790 770L452-109L339-65L677 814M30 596Q77 635 91 662.50Q105 690 113 765L339 765L339 290L219 290L219 655L239 725L209 725Q196 535 81 486L30 596M750 273Q750 363 805.50 424Q861 485 965 485Q1060 485 1105 437.50Q1150 390 1150 321Q1150 269 1125 231.50Q1100 194 1052 171.50Q1004 149 948.50 136Q893 123 816 115L816 85L886 100L1150 100L1150 0L776 0L776 185Q778 185 796 187.50Q814 190 826 191.50Q838 193 860.50 197.50Q883 202 900 207Q917 212 938 219.50Q959 227 974 236.50Q989 246 1002.50 258.50Q1016 271 1023 287Q1030 303 1030 321Q1030 348 1012.50 366.50Q995 385 956 385Q908 385 889 357.50Q870 330 870 273L750 273Z"  horiz-adv-x="1180" vert-adv-y="1000"  />

      
      <glyph glyph-name="unibe" unicode="&#xbe;" d="M750 814L863 770L525-109L412-65L750 814M30 473L150 473Q150 420 174.50 402Q199 384 249 384Q291 384 311 396Q331 408 331 441Q331 472 312.50 481.50Q294 491 260 491L212 491L212 590L260 590Q293 590 308.50 598.50Q324 607 324 634Q324 659 306.50 669Q289 679 249 679Q202 679 179 665Q156 651 156 615L36 615Q36 693 92 736Q148 779 249 779Q346 779 395.50 743Q445 707 445 652Q445 604 414.50 583.50Q384 563 328 554L328 524Q353 519 365.50 516Q378 513 397.50 505.50Q417 498 426.50 488.50Q436 479 443.50 462.50Q451 446 451 424Q451 359 400 321.50Q349 284 249 284Q145 284 87.50 331Q30 378 30 473M833 60L833 306Q992 336 1015 475L1135 475Q1125 374 1056 294.50Q987 215 853 190L853 160L923 180L1053 180L1053 259L1173 259L1173 180L1238 180L1238 60L1173 60L1173 0L1053 0L1053 60L833 60Z"  horiz-adv-x="1268" vert-adv-y="1000"  />

      
      <glyph glyph-name="unibf" unicode="&#xbf;" d="M280 515Q330 515 359.50 483.50Q389 452 389 404Q389 357 359.50 326Q330 295 280 295Q231 295 200 326.50Q169 358 169 404Q169 452 200 483.50Q231 515 280 515M505-35Q505-126 446.50-183Q388-240 268-240Q161-240 110.50-192Q60-144 60-79Q60-22 91 19.50Q122 61 178 84.50Q234 108 287.50 120Q341 132 411 139L411 173L335 146L107 146L107 246L451 246L451 48Q375 46 317 34.50Q259 23 219.50-5Q180-33 180-75Q180-140 270-140Q385-140 385-35L505-35Z"  horiz-adv-x="555" vert-adv-y="1000"  />

      
      <glyph glyph-name="unic0" unicode="&#xc0;" d="M607 869L580 755L190 841L217 955L607 869M595 0L531 226L245 226L182 0L20 0L223 705L553 705L757 0L595 0M284 366L492 366L408 665L368 665L284 366Z"  horiz-adv-x="777" vert-adv-y="1000"  />

      
      <glyph glyph-name="unic1" unicode="&#xc1;" d="M587 841L197 755L170 869L560 955L587 841M595 0L531 226L245 226L182 0L20 0L223 705L553 705L757 0L595 0M284 366L492 366L408 665L368 665L284 366Z"  horiz-adv-x="777" vert-adv-y="1000"  />

      
      <glyph glyph-name="unic2" unicode="&#xc2;" d="M389 835L258 744L173 824L389 975L605 824L520 744L389 835M595 0L531 226L245 226L182 0L20 0L223 705L553 705L757 0L595 0M284 366L492 366L408 665L368 665L284 366Z"  horiz-adv-x="777" vert-adv-y="1000"  />

      
      <glyph glyph-name="unic3" unicode="&#xc3;" d="M312 870Q293 870 284 856Q275 842 275 800L155 800Q155 888 194 939Q233 990 302 990Q333 990 360 977.50Q387 965 402 950Q417 935 434.50 922.50Q452 910 466 910Q485 910 494 924Q503 938 503 980L623 980Q623 892 584 841Q545 790 476 790Q445 790 418 802.50Q391 815 376 830Q361 845 343.50 857.50Q326 870 312 870M595 0L531 226L245 226L182 0L20 0L223 705L553 705L757 0L595 0M284 366L492 366L408 665L368 665L284 366Z"  horiz-adv-x="777" vert-adv-y="1000"  />

      
      <glyph glyph-name="unic4" unicode="&#xc4;" d="M258 755Q159 755 159 835Q159 873 184.50 894Q210 915 258 915Q306 915 332.50 894Q359 873 359 835Q359 796 332.50 775.50Q306 755 258 755M518 755Q419 755 419 835Q419 873 444.50 894Q470 915 518 915Q566 915 592.50 894Q619 873 619 835Q619 796 592.50 775.50Q566 755 518 755M595 0L531 226L245 226L182 0L20 0L223 705L553 705L757 0L595 0M284 366L492 366L408 665L368 665L284 366Z"  horiz-adv-x="777" vert-adv-y="1000"  />

      
      <glyph glyph-name="unic5" unicode="&#xc5;" d="M504 786.50Q504 786.50 483 770.75Q462 755 388 755Q314 755 272.50 786Q231 817 231 878Q231 938 272.50 969.50Q314 1001 388 1001Q462 1001 504 969.50Q546 938 546 878Q546 818 504 786.50M388 910Q351 910 351 878Q351 845 388 845Q426 845 426 878Q426 910 388 910M595 0L531 226L245 226L182 0L20 0L223 705L553 705L757 0L595 0M284 366L492 366L408 665L368 665L284 366Z"  horiz-adv-x="777" vert-adv-y="1000"  />

      
      <glyph glyph-name="unic6" unicode="&#xc6;" d="M1064 565L721 565L721 423L1014 423L1014 283L721 283L721 140L1064 140L1064 0L561 0L561 234L309 234L189 0L20 0L383 705L1064 705L1064 565M381 374L561 374L561 665L531 665L381 374Z"  horiz-adv-x="1104" vert-adv-y="1000"  />

      
      <glyph glyph-name="unic7" unicode="&#xc7;" d="M414 130Q488 130 538 167.50Q588 205 600 273L760 273Q746 152 665.50 77.50Q585 3 456-8L409-60Q453-40 502-40Q588-40 588-102Q588-137 566-160Q544-183 500.50-193Q457-203 414-206.50Q371-210 309-210L309-120Q430-120 448-116Q467-110 468-97Q468-80 445-80Q418-80 367-98L316-59L341-4Q206 17 128 115.50Q50 214 50 353Q50 510 148.50 612.50Q247 715 412 715Q559 715 651.50 639.50Q744 564 760 433L600 433Q588 501 538 538Q488 575 414 575Q320 575 265 517.50Q210 460 210 353Q210 246 265 188Q320 130 414 130Z"  horiz-adv-x="810" vert-adv-y="1000"  />

      
      <glyph glyph-name="unic8" unicode="&#xc8;" d="M530 869L503 755L113 841L140 955L530 869M60 0L60 705L563 705L563 565L220 565L220 423L513 423L513 283L220 283L220 140L563 140L563 0L60 0Z"  horiz-adv-x="603" vert-adv-y="1000"  />

      
      <glyph glyph-name="unic9" unicode="&#xc9;" d="M93 869L483 955L510 841L120 755L93 869M60 0L60 705L563 705L563 565L220 565L220 423L513 423L513 283L220 283L220 140L563 140L563 0L60 0Z"  horiz-adv-x="603" vert-adv-y="1000"  />

      
      <glyph glyph-name="unica" unicode="&#xca;" d="M528 824L443 744L312 835L181 744L96 824L312 975L528 824M60 0L60 705L563 705L563 565L220 565L220 423L513 423L513 283L220 283L220 140L563 140L563 0L60 0Z"  horiz-adv-x="603" vert-adv-y="1000"  />

      
      <glyph glyph-name="unicb" unicode="&#xcb;" d="M181 755Q82 755 82 835Q82 873 107.50 894Q133 915 181 915Q229 915 255.50 894Q282 873 282 835Q282 796 255.50 775.50Q229 755 181 755M441 755Q342 755 342 835Q342 873 367.50 894Q393 915 441 915Q489 915 515.50 894Q542 873 542 835Q542 796 515.50 775.50Q489 755 441 755M60 0L60 705L563 705L563 565L220 565L220 423L513 423L513 283L220 283L220 140L563 140L563 0L60 0Z"  horiz-adv-x="603" vert-adv-y="1000"  />

      
      <glyph glyph-name="unicc" unicode="&#xcc;" d="M508 869L481 755L91 841L118 955L508 869M530 565L370 565L370 140L530 140L530 0L50 0L50 140L210 140L210 565L50 565L50 705L530 705L530 565Z"  horiz-adv-x="580" vert-adv-y="1000"  />

      
      <glyph glyph-name="unicd" unicode="&#xcd;" d="M488 841L98 755L71 869L461 955L488 841M530 565L370 565L370 140L530 140L530 0L50 0L50 140L210 140L210 565L50 565L50 705L530 705L530 565Z"  horiz-adv-x="580" vert-adv-y="1000"  />

      
      <glyph glyph-name="unice" unicode="&#xce;" d="M290 835L159 744L74 824L290 975L506 824L421 744L290 835M530 565L370 565L370 140L530 140L530 0L50 0L50 140L210 140L210 565L50 565L50 705L530 705L530 565Z"  horiz-adv-x="580" vert-adv-y="1000"  />

      
      <glyph glyph-name="unicf" unicode="&#xcf;" d="M159 755Q60 755 60 835Q60 873 85.50 894Q111 915 159 915Q207 915 233.50 894Q260 873 260 835Q260 796 233.50 775.50Q207 755 159 755M419 755Q320 755 320 835Q320 873 345.50 894Q371 915 419 915Q467 915 493.50 894Q520 873 520 835Q520 796 493.50 775.50Q467 755 419 755M530 565L370 565L370 140L530 140L530 0L50 0L50 140L210 140L210 565L50 565L50 705L530 705L530 565Z"  horiz-adv-x="580" vert-adv-y="1000"  />

      
      <glyph glyph-name="unid0" unicode="&#xd0;" d="M400 705Q463 705 513 698Q563 691 615.50 668.50Q668 646 703.50 608.50Q739 571 761.50 506Q784 441 784 353Q784 265 761.50 200Q739 135 703.50 97.50Q668 60 615.50 37Q563 14 513 7Q463 0 400 0L140 0L140 305L50 305L50 425L140 425L140 705L400 705M400 140Q432 140 452.50 141Q473 142 499 146.50Q525 151 541 159.50Q557 168 574.50 184Q592 200 602 222Q612 244 618 277Q624 310 624 353Q624 412 612 452.50Q600 493 582 515Q564 537 531.50 548.50Q499 560 472 562.50Q445 565 400 565L300 565L300 425L448 425L448 305L300 305L300 140L400 140Z"  horiz-adv-x="834" vert-adv-y="1000"  />

      
      <glyph glyph-name="unid1" unicode="&#xd1;" d="M195 800Q195 888 234 939Q273 990 342 990Q373 990 400 977.50Q427 965 442 950Q457 935 474.50 922.50Q492 910 506 910Q525 910 534 924Q543 938 543 980L663 980Q663 892 624 841Q585 790 516 790Q485 790 458 802.50Q431 815 416 830Q401 845 383.50 857.50Q366 870 352 870Q333 870 324 856Q315 842 315 800L195 800M60 0L60 705L375 705L588 40L628 40L598 140L598 705L758 705L758 0L443 0L230 665L190 665L220 565L220 0L60 0Z"  horiz-adv-x="818" vert-adv-y="1000"  />

      
      <glyph glyph-name="unid2" unicode="&#xd2;" d="M628 869L601 755L211 841L238 955L628 869M50 353Q50 510 148 612.50Q246 715 410 715Q574 715 671.50 612.50Q769 510 769 353Q769 195 671.50 92.50Q574-10 410-10Q245-10 147.50 92.50Q50 195 50 353M261 516Q261 516 235.50 486.50Q210 457 210 353Q210 249 261 189.50Q312 130 410 130Q508 130 558.50 189.50Q609 249 609 353Q609 457 558.50 516Q508 575 410 575Q312 575 261 516Z"  horiz-adv-x="819" vert-adv-y="1000"  />

      
      <glyph glyph-name="unid3" unicode="&#xd3;" d="M191 869L581 955L608 841L218 755L191 869M50 353Q50 510 148 612.50Q246 715 410 715Q574 715 671.50 612.50Q769 510 769 353Q769 195 671.50 92.50Q574-10 410-10Q245-10 147.50 92.50Q50 195 50 353M261 516Q261 516 235.50 486.50Q210 457 210 353Q210 249 261 189.50Q312 130 410 130Q508 130 558.50 189.50Q609 249 609 353Q609 457 558.50 516Q508 575 410 575Q312 575 261 516Z"  horiz-adv-x="819" vert-adv-y="1000"  />

      
      <glyph glyph-name="unid4" unicode="&#xd4;" d="M626 824L541 744L410 835L279 744L194 824L410 975L626 824M50 353Q50 510 148 612.50Q246 715 410 715Q574 715 671.50 612.50Q769 510 769 353Q769 195 671.50 92.50Q574-10 410-10Q245-10 147.50 92.50Q50 195 50 353M261 516Q261 516 235.50 486.50Q210 457 210 353Q210 249 261 189.50Q312 130 410 130Q508 130 558.50 189.50Q609 249 609 353Q609 457 558.50 516Q508 575 410 575Q312 575 261 516Z"  horiz-adv-x="819" vert-adv-y="1000"  />

      
      <glyph glyph-name="unid5" unicode="&#xd5;" d="M176 800Q176 888 215 939Q254 990 323 990Q354 990 381 977.50Q408 965 423 950Q438 935 455.50 922.50Q473 910 487 910Q506 910 515 924Q524 938 524 980L644 980Q644 892 605 841Q566 790 497 790Q466 790 439 802.50Q412 815 397 830Q382 845 364.50 857.50Q347 870 333 870Q314 870 305 856Q296 842 296 800L176 800M50 353Q50 510 148 612.50Q246 715 410 715Q574 715 671.50 612.50Q769 510 769 353Q769 195 671.50 92.50Q574-10 410-10Q245-10 147.50 92.50Q50 195 50 353M261 516Q261 516 235.50 486.50Q210 457 210 353Q210 249 261 189.50Q312 130 410 130Q508 130 558.50 189.50Q609 249 609 353Q609 457 558.50 516Q508 575 410 575Q312 575 261 516Z"  horiz-adv-x="819" vert-adv-y="1000"  />

      
      <glyph glyph-name="unid6" unicode="&#xd6;" d="M279 755Q180 755 180 835Q180 873 205.50 894Q231 915 279 915Q327 915 353.50 894Q380 873 380 835Q380 796 353.50 775.50Q327 755 279 755M539 755Q440 755 440 835Q440 873 465.50 894Q491 915 539 915Q587 915 613.50 894Q640 873 640 835Q640 796 613.50 775.50Q587 755 539 755M50 353Q50 510 148 612.50Q246 715 410 715Q574 715 671.50 612.50Q769 510 769 353Q769 195 671.50 92.50Q574-10 410-10Q245-10 147.50 92.50Q50 195 50 353M261 516Q261 516 235.50 486.50Q210 457 210 353Q210 249 261 189.50Q312 130 410 130Q508 130 558.50 189.50Q609 249 609 353Q609 457 558.50 516Q508 575 410 575Q312 575 261 516Z"  horiz-adv-x="819" vert-adv-y="1000"  />

      
      <glyph glyph-name="unid7" unicode="&#xd7;" d="M537 408L389 260L537 111L452 26L304 175L155 26L70 111L219 260L70 408L155 493L304 345L452 493L537 408Z"  horiz-adv-x="607" vert-adv-y="1000"  />

      
      <glyph glyph-name="unid8" unicode="&#xd8;" d="M636 644Q700 595 734.50 519.50Q769 444 769 353Q769 195 671.50 92.50Q574-10 410-10Q332-10 269 14L221-69L137-20L184 61Q120 110 85 185.50Q50 261 50 353Q50 510 148 612.50Q246 715 410 715Q485 715 548 692L596 774L682 724L636 644M210 353Q210 248 259 192L476 567Q444 575 410 575Q312 575 261 516Q210 457 210 353M410 130Q508 130 558.50 189.50Q609 249 609 353Q609 456 560 514L342 139Q372 130 410 130Z"  horiz-adv-x="819" vert-adv-y="1000"  />

      
      <glyph glyph-name="unid9" unicode="&#xd9;" d="M576 869L549 755L159 841L186 955L576 869M40 262L40 705L200 705L200 333Q200 289 202.50 262.50Q205 236 213.50 208Q222 180 239 164.50Q256 149 285.50 139.50Q315 130 358 130Q412 130 445 143Q478 156 493 185.50Q508 215 512.50 247Q517 279 517 333L517 705L677 705L677 262Q677 130 595.50 60Q514-10 358-10Q202-10 121 59.50Q40 129 40 262Z"  horiz-adv-x="717" vert-adv-y="1000"  />

      
      <glyph glyph-name="unida" unicode="&#xda;" d="M139 869L529 955L556 841L166 755L139 869M40 262L40 705L200 705L200 333Q200 289 202.50 262.50Q205 236 213.50 208Q222 180 239 164.50Q256 149 285.50 139.50Q315 130 358 130Q412 130 445 143Q478 156 493 185.50Q508 215 512.50 247Q517 279 517 333L517 705L677 705L677 262Q677 130 595.50 60Q514-10 358-10Q202-10 121 59.50Q40 129 40 262Z"  horiz-adv-x="717" vert-adv-y="1000"  />

      
      <glyph glyph-name="unidb" unicode="&#xdb;" d="M574 824L489 744L358 835L227 744L142 824L358 975L574 824M40 262L40 705L200 705L200 333Q200 289 202.50 262.50Q205 236 213.50 208Q222 180 239 164.50Q256 149 285.50 139.50Q315 130 358 130Q412 130 445 143Q478 156 493 185.50Q508 215 512.50 247Q517 279 517 333L517 705L677 705L677 262Q677 130 595.50 60Q514-10 358-10Q202-10 121 59.50Q40 129 40 262Z"  horiz-adv-x="717" vert-adv-y="1000"  />

      
      <glyph glyph-name="unidc" unicode="&#xdc;" d="M227 755Q128 755 128 835Q128 873 153.50 894Q179 915 227 915Q275 915 301.50 894Q328 873 328 835Q328 796 301.50 775.50Q275 755 227 755M487 755Q388 755 388 835Q388 873 413.50 894Q439 915 487 915Q535 915 561.50 894Q588 873 588 835Q588 796 561.50 775.50Q535 755 487 755M40 262L40 705L200 705L200 333Q200 289 202.50 262.50Q205 236 213.50 208Q222 180 239 164.50Q256 149 285.50 139.50Q315 130 358 130Q412 130 445 143Q478 156 493 185.50Q508 215 512.50 247Q517 279 517 333L517 705L677 705L677 262Q677 130 595.50 60Q514-10 358-10Q202-10 121 59.50Q40 129 40 262Z"  horiz-adv-x="717" vert-adv-y="1000"  />

      
      <glyph glyph-name="unidd" unicode="&#xdd;" d="M142 869L532 955L559 841L169 755L142 869M532 705L703 705L441 227L441 0L281 0L281 227L20 705L191 705L341 411L341 321L381 321L381 411L532 705Z"  horiz-adv-x="723" vert-adv-y="1000"  />

      
      <glyph glyph-name="unide" unicode="&#xde;" d="M313 600Q387 600 438.50 591Q490 582 535.50 557Q581 532 604 481Q627 430 627 353Q627 290 611 245Q595 200 568.50 173Q542 146 500 130.50Q458 115 415 110Q372 105 313 105L220 105L220 0L60 0L60 705L220 705L220 600L313 600M323 245Q349 245 361.50 245.50Q374 246 393 247.50Q412 249 420 253.50Q428 258 439.50 265.50Q451 273 455.50 284.50Q460 296 463.50 313Q467 330 467 353Q467 385 460 405.50Q453 426 444.50 437Q436 448 414 453Q392 458 375.50 459Q359 460 323 460L220 460L220 245L323 245Z"  horiz-adv-x="667" vert-adv-y="1000"  />

      
      <glyph glyph-name="unidf" unicode="&#xdf;" d="M276 0L276 140L400 131Q450 127 472 141Q494 155 494 196Q494 223 475.50 240.50Q457 258 430.50 268Q404 278 377 289Q350 300 331.50 322.50Q313 345 313 380Q313 411 328.50 436Q344 461 362.50 474Q381 487 396.50 502.50Q412 518 412 534Q412 555 394.50 565Q377 575 335 575Q280 575 250 547.50Q220 520 220 453L220 0L60 0L60 473Q60 600 135 657.50Q210 715 335 715Q452 715 512 671.50Q572 628 572 567Q572 537 556.50 511.50Q541 486 522.50 471.50Q504 457 488.50 435Q473 413 473 390Q473 367 491.50 352Q510 337 537 327Q564 317 590.50 303Q617 289 635.50 257Q654 225 654 176Q654 78 588 30.50Q522-17 420-10L276 0Z"  horiz-adv-x="674" vert-adv-y="1000"  />

      
      <glyph glyph-name="unie0" unicode="&#xe0;" d="M528 669L501 555L111 641L138 755L528 669M40 138Q40 205 86 243.50Q132 282 242 297L401 319Q401 385 300 385Q252 385 226 366Q200 347 200 312L50 312Q50 406 120.50 460.50Q191 515 300 515Q413 515 487 457Q561 399 561 282L561 140L634 140L634 0L523 0Q487 0 467.50 19.50Q448 39 448 75L448 85L473 145L433 145Q417 73 369.50 31.50Q322-10 224-10Q169-10 130 5Q91 20 73 45Q55 70 47.50 92.50Q40 115 40 138M200 168Q200 130 255 130Q322 130 361.50 156.50Q401 183 401 229L272 211Q232 205 216 196.50Q200 188 200 168Z"  horiz-adv-x="644" vert-adv-y="1000"  />

      
      <glyph glyph-name="unie1" unicode="&#xe1;" d="M91 669L481 755L508 641L118 555L91 669M40 138Q40 205 86 243.50Q132 282 242 297L401 319Q401 385 300 385Q252 385 226 366Q200 347 200 312L50 312Q50 406 120.50 460.50Q191 515 300 515Q413 515 487 457Q561 399 561 282L561 140L634 140L634 0L523 0Q487 0 467.50 19.50Q448 39 448 75L448 85L473 145L433 145Q417 73 369.50 31.50Q322-10 224-10Q169-10 130 5Q91 20 73 45Q55 70 47.50 92.50Q40 115 40 138M200 168Q200 130 255 130Q322 130 361.50 156.50Q401 183 401 229L272 211Q232 205 216 196.50Q200 188 200 168Z"  horiz-adv-x="644" vert-adv-y="1000"  />

      
      <glyph glyph-name="unie2" unicode="&#xe2;" d="M526 624L441 544L310 635L179 544L94 624L310 775L526 624M40 138Q40 205 86 243.50Q132 282 242 297L401 319Q401 385 300 385Q252 385 226 366Q200 347 200 312L50 312Q50 406 120.50 460.50Q191 515 300 515Q413 515 487 457Q561 399 561 282L561 140L634 140L634 0L523 0Q487 0 467.50 19.50Q448 39 448 75L448 85L473 145L433 145Q417 73 369.50 31.50Q322-10 224-10Q169-10 130 5Q91 20 73 45Q55 70 47.50 92.50Q40 115 40 138M200 168Q200 130 255 130Q322 130 361.50 156.50Q401 183 401 229L272 211Q232 205 216 196.50Q200 188 200 168Z"  horiz-adv-x="644" vert-adv-y="1000"  />

      
      <glyph glyph-name="unie3" unicode="&#xe3;" d="M76 600Q76 688 115 739Q154 790 223 790Q254 790 281 777.50Q308 765 323 750Q338 735 355.50 722.50Q373 710 387 710Q406 710 415 724Q424 738 424 780L544 780Q544 692 505 641Q466 590 397 590Q366 590 339 602.50Q312 615 297 630Q282 645 264.50 657.50Q247 670 233 670Q214 670 205 656Q196 642 196 600L76 600M40 138Q40 205 86 243.50Q132 282 242 297L401 319Q401 385 300 385Q252 385 226 366Q200 347 200 312L50 312Q50 406 120.50 460.50Q191 515 300 515Q413 515 487 457Q561 399 561 282L561 140L634 140L634 0L523 0Q487 0 467.50 19.50Q448 39 448 75L448 85L473 145L433 145Q417 73 369.50 31.50Q322-10 224-10Q169-10 130 5Q91 20 73 45Q55 70 47.50 92.50Q40 115 40 138M200 168Q200 130 255 130Q322 130 361.50 156.50Q401 183 401 229L272 211Q232 205 216 196.50Q200 188 200 168Z"  horiz-adv-x="644" vert-adv-y="1000"  />

      
      <glyph glyph-name="unie4" unicode="&#xe4;" d="M179 555Q80 555 80 635Q80 673 105.50 694Q131 715 179 715Q227 715 253.50 694Q280 673 280 635Q280 596 253.50 575.50Q227 555 179 555M439 555Q340 555 340 635Q340 673 365.50 694Q391 715 439 715Q487 715 513.50 694Q540 673 540 635Q540 596 513.50 575.50Q487 555 439 555M40 138Q40 205 86 243.50Q132 282 242 297L401 319Q401 385 300 385Q252 385 226 366Q200 347 200 312L50 312Q50 406 120.50 460.50Q191 515 300 515Q413 515 487 457Q561 399 561 282L561 140L634 140L634 0L523 0Q487 0 467.50 19.50Q448 39 448 75L448 85L473 145L433 145Q417 73 369.50 31.50Q322-10 224-10Q169-10 130 5Q91 20 73 45Q55 70 47.50 92.50Q40 115 40 138M200 168Q200 130 255 130Q322 130 361.50 156.50Q401 183 401 229L272 211Q232 205 216 196.50Q200 188 200 168Z"  horiz-adv-x="644" vert-adv-y="1000"  />

      
      <glyph glyph-name="unie5" unicode="&#xe5;" d="M425 586.50Q425 586.50 404 570.75Q383 555 309 555Q235 555 193.50 586Q152 617 152 678Q152 738 193.50 769.50Q235 801 309 801Q383 801 425 769.50Q467 738 467 678Q467 618 425 586.50M309 645Q347 645 347 678Q347 710 309 710Q272 710 272 678Q272 645 309 645M40 138Q40 205 86 243.50Q132 282 242 297L401 319Q401 385 300 385Q252 385 226 366Q200 347 200 312L50 312Q50 406 120.50 460.50Q191 515 300 515Q413 515 487 457Q561 399 561 282L561 140L634 140L634 0L523 0Q487 0 467.50 19.50Q448 39 448 75L448 85L473 145L433 145Q417 73 369.50 31.50Q322-10 224-10Q169-10 130 5Q91 20 73 45Q55 70 47.50 92.50Q40 115 40 138M200 168Q200 130 255 130Q322 130 361.50 156.50Q401 183 401 229L272 211Q232 205 216 196.50Q200 188 200 168Z"  horiz-adv-x="644" vert-adv-y="1000"  />

      
      <glyph glyph-name="unie6" unicode="&#xe6;" d="M841 178L1001 178Q997 149 979 117.50Q961 86 929.50 57Q898 28 846.50 9Q795-10 733-10Q632-10 566 32Q500 74 471 145L433 145Q417 75 366.50 32.50Q316-10 224-10Q169-10 130 5Q91 20 73 45Q55 70 47.50 92.50Q40 115 40 138Q40 205 86 243.50Q132 282 242 297L401 319Q401 385 300 385Q252 385 226 366Q200 347 200 312L50 312Q50 406 120.50 460.50Q191 515 300 515Q441 515 499 418Q571 515 716 515Q835 515 909 448.50Q983 382 983 269L983 219L600 219Q600 174 633.50 147Q667 120 733 120Q776 120 805 135Q834 150 841 178M805.50 363Q805.50 363 791.75 374Q778 385 716 385Q654 385 627 363.50Q600 342 600 309L833 309Q833 341 805.50 363M255 130Q322 130 361.50 156.50Q401 183 401 229L272 211Q232 205 216 196Q200 187 200 165Q200 130 255 130Z"  horiz-adv-x="1041" vert-adv-y="1000"  />

      
      <glyph glyph-name="unie7" unicode="&#xe7;" d="M316 130Q363 130 392.50 152Q422 174 427 209L587 209Q583 118 521 62Q459 6 366-7L318-60Q362-40 411-40Q497-40 497-102Q497-137 475-160Q453-183 409.50-193Q366-203 323-206.50Q280-210 218-210L218-120Q339-120 357-116Q376-110 377-97Q377-80 354-80Q327-80 276-98L225-59L250-4Q153 13 96.50 80Q40 147 40 253Q40 376 116 445.50Q192 515 316 515Q426 515 504 457Q582 399 587 296L427 296Q422 331 392.50 353Q363 375 316 375Q260 375 230 343Q200 311 200 253Q200 194 229.50 162Q259 130 316 130Z"  horiz-adv-x="627" vert-adv-y="1000"  />

      
      <glyph glyph-name="unie8" unicode="&#xe8;" d="M534 669L507 555L117 641L144 755L534 669M40 259Q40 377 113.50 446Q187 515 306 515Q425 515 499 448.50Q573 382 573 269L573 219L190 219Q190 174 223.50 147Q257 120 323 120Q366 120 395 135Q424 150 431 178L591 178Q587 149 569 117.50Q551 86 519.50 57Q488 28 436.50 9Q385-10 323-10Q185-10 112.50 67Q40 144 40 259M190 309L423 309Q423 341 395.50 363Q368 385 306 385Q244 385 217 363.50Q190 342 190 309Z"  horiz-adv-x="631" vert-adv-y="1000"  />

      
      <glyph glyph-name="unie9" unicode="&#xe9;" d="M97 669L487 755L514 641L124 555L97 669M40 259Q40 377 113.50 446Q187 515 306 515Q425 515 499 448.50Q573 382 573 269L573 219L190 219Q190 174 223.50 147Q257 120 323 120Q366 120 395 135Q424 150 431 178L591 178Q587 149 569 117.50Q551 86 519.50 57Q488 28 436.50 9Q385-10 323-10Q185-10 112.50 67Q40 144 40 259M190 309L423 309Q423 341 395.50 363Q368 385 306 385Q244 385 217 363.50Q190 342 190 309Z"  horiz-adv-x="631" vert-adv-y="1000"  />

      
      <glyph glyph-name="uniea" unicode="&#xea;" d="M532 624L447 544L316 635L185 544L100 624L316 775L532 624M40 259Q40 377 113.50 446Q187 515 306 515Q425 515 499 448.50Q573 382 573 269L573 219L190 219Q190 174 223.50 147Q257 120 323 120Q366 120 395 135Q424 150 431 178L591 178Q587 149 569 117.50Q551 86 519.50 57Q488 28 436.50 9Q385-10 323-10Q185-10 112.50 67Q40 144 40 259M190 309L423 309Q423 341 395.50 363Q368 385 306 385Q244 385 217 363.50Q190 342 190 309Z"  horiz-adv-x="631" vert-adv-y="1000"  />

      
      <glyph glyph-name="unieb" unicode="&#xeb;" d="M185 555Q86 555 86 635Q86 673 111.50 694Q137 715 185 715Q233 715 259.50 694Q286 673 286 635Q286 596 259.50 575.50Q233 555 185 555M445 555Q346 555 346 635Q346 673 371.50 694Q397 715 445 715Q493 715 519.50 694Q546 673 546 635Q546 596 519.50 575.50Q493 555 445 555M40 259Q40 377 113.50 446Q187 515 306 515Q425 515 499 448.50Q573 382 573 269L573 219L190 219Q190 174 223.50 147Q257 120 323 120Q366 120 395 135Q424 150 431 178L591 178Q587 149 569 117.50Q551 86 519.50 57Q488 28 436.50 9Q385-10 323-10Q185-10 112.50 67Q40 144 40 259M190 309L423 309Q423 341 395.50 363Q368 385 306 385Q244 385 217 363.50Q190 342 190 309Z"  horiz-adv-x="631" vert-adv-y="1000"  />

      
      <glyph glyph-name="uniec" unicode="&#xec;" d="M448 669L421 555L31 641L58 755L448 669M40 0L40 140L183 140L183 371L60 365L60 505L250 515Q292 517 314.50 495Q337 473 337 431L337 140L480 140L480 0L40 0Z"  horiz-adv-x="500" vert-adv-y="1000"  />

      
      <glyph glyph-name="unied" unicode="&#xed;" d="M40 669L430 755L457 641L67 555L40 669M59 0L59 140L202 140L202 371L79 365L79 505L269 515Q311 517 333.50 495Q356 473 356 431L356 140L499 140L499 0L59 0Z"  horiz-adv-x="519" vert-adv-y="1000"  />

      
      <glyph glyph-name="uniee" unicode="&#xee;" d="M462 624L377 544L246 635L115 544L30 624L246 775L462 624M56 0L56 140L199 140L199 371L76 365L76 505L266 515Q308 517 330.50 495Q353 473 353 431L353 140L496 140L496 0L56 0Z"  horiz-adv-x="516" vert-adv-y="1000"  />

      
      <glyph glyph-name="unief" unicode="&#xef;" d="M128 555Q29 555 29 635Q29 673 54.50 694Q80 715 128 715Q176 715 202.50 694Q229 673 229 635Q229 596 202.50 575.50Q176 555 128 555M388 555Q289 555 289 635Q289 673 314.50 694Q340 715 388 715Q436 715 462.50 694Q489 673 489 635Q489 596 462.50 575.50Q436 555 388 555M59 0L59 140L202 140L202 371L79 365L79 505L269 515Q311 517 333.50 495Q356 473 356 431L356 140L499 140L499 0L59 0Z"  horiz-adv-x="519" vert-adv-y="1000"  />

      
      <glyph glyph-name="unif0" unicode="&#xf0;" d="M509 660Q663 543 663 319Q663 165 578.50 77.50Q494-10 348-10Q207-10 123.50 63Q40 136 40 252Q40 365 115.50 440Q191 515 319 515Q429 515 490 450.50Q551 386 560 278L600 278L570 368Q552 519 392 584L309 531L203 578L269 620Q235 628 168 637L168 777Q312 761 416 715L489 762L595 715L509 660M352 130Q426 130 464.50 162Q503 194 503 252Q503 317 466 346Q429 375 352 375Q275 375 237.50 346Q200 317 200 252Q200 194 238.50 162Q277 130 352 130Z"  horiz-adv-x="703" vert-adv-y="1000"  />

      
      <glyph glyph-name="unif1" unicode="&#xf1;" d="M125 600Q125 688 164 739Q203 790 272 790Q303 790 330 777.50Q357 765 372 750Q387 735 404.50 722.50Q422 710 436 710Q455 710 464 724Q473 738 473 780L593 780Q593 692 554 641Q515 590 446 590Q415 590 388 602.50Q361 615 346 630Q331 645 313.50 657.50Q296 670 282 670Q263 670 254 656Q245 642 245 600L125 600M364 375Q294 375 257 331.50Q220 288 220 187L220 0L60 0L60 505L220 505L220 444L190 354L230 354Q246 426 295 470.50Q344 515 421 515Q519 515 573.50 452Q628 389 628 273L628 0L468 0L468 248Q468 317 444.50 346Q421 375 364 375Z"  horiz-adv-x="678" vert-adv-y="1000"  />

      
      <glyph glyph-name="unif2" unicode="&#xf2;" d="M543 669L516 555L126 641L153 755L543 669M40 253Q40 380 120 447.50Q200 515 325 515Q450 515 529.50 447.50Q609 380 609 253Q609 126 529.50 58Q450-10 325-10Q200-10 120 57.50Q40 125 40 253M200 253Q200 191 233 160.50Q266 130 325 130Q383 130 416 160.50Q449 191 449 253Q449 314 416 344.50Q383 375 325 375Q266 375 233 344.50Q200 314 200 253Z"  horiz-adv-x="649" vert-adv-y="1000"  />

      
      <glyph glyph-name="unif3" unicode="&#xf3;" d="M106 669L496 755L523 641L133 555L106 669M40 253Q40 380 120 447.50Q200 515 325 515Q450 515 529.50 447.50Q609 380 609 253Q609 126 529.50 58Q450-10 325-10Q200-10 120 57.50Q40 125 40 253M200 253Q200 191 233 160.50Q266 130 325 130Q383 130 416 160.50Q449 191 449 253Q449 314 416 344.50Q383 375 325 375Q266 375 233 344.50Q200 314 200 253Z"  horiz-adv-x="649" vert-adv-y="1000"  />

      
      <glyph glyph-name="unif4" unicode="&#xf4;" d="M541 624L456 544L325 635L194 544L109 624L325 775L541 624M40 253Q40 380 120 447.50Q200 515 325 515Q450 515 529.50 447.50Q609 380 609 253Q609 126 529.50 58Q450-10 325-10Q200-10 120 57.50Q40 125 40 253M200 253Q200 191 233 160.50Q266 130 325 130Q383 130 416 160.50Q449 191 449 253Q449 314 416 344.50Q383 375 325 375Q266 375 233 344.50Q200 314 200 253Z"  horiz-adv-x="649" vert-adv-y="1000"  />

      
      <glyph glyph-name="unif5" unicode="&#xf5;" d="M91 600Q91 688 130 739Q169 790 238 790Q269 790 296 777.50Q323 765 338 750Q353 735 370.50 722.50Q388 710 402 710Q421 710 430 724Q439 738 439 780L559 780Q559 692 520 641Q481 590 412 590Q381 590 354 602.50Q327 615 312 630Q297 645 279.50 657.50Q262 670 248 670Q229 670 220 656Q211 642 211 600L91 600M40 253Q40 380 120 447.50Q200 515 325 515Q450 515 529.50 447.50Q609 380 609 253Q609 126 529.50 58Q450-10 325-10Q200-10 120 57.50Q40 125 40 253M200 253Q200 191 233 160.50Q266 130 325 130Q383 130 416 160.50Q449 191 449 253Q449 314 416 344.50Q383 375 325 375Q266 375 233 344.50Q200 314 200 253Z"  horiz-adv-x="649" vert-adv-y="1000"  />

      
      <glyph glyph-name="unif6" unicode="&#xf6;" d="M194 555Q95 555 95 635Q95 673 120.50 694Q146 715 194 715Q242 715 268.50 694Q295 673 295 635Q295 596 268.50 575.50Q242 555 194 555M454 555Q355 555 355 635Q355 673 380.50 694Q406 715 454 715Q502 715 528.50 694Q555 673 555 635Q555 596 528.50 575.50Q502 555 454 555M40 253Q40 380 120 447.50Q200 515 325 515Q450 515 529.50 447.50Q609 380 609 253Q609 126 529.50 58Q450-10 325-10Q200-10 120 57.50Q40 125 40 253M200 253Q200 191 233 160.50Q266 130 325 130Q383 130 416 160.50Q449 191 449 253Q449 314 416 344.50Q383 375 325 375Q266 375 233 344.50Q200 314 200 253Z"  horiz-adv-x="649" vert-adv-y="1000"  />

      
      <glyph glyph-name="unif7" unicode="&#xf7;" d="M339 370Q289 370 259.50 401.50Q230 433 230 481Q230 528 259.50 559Q289 590 339 590Q388 590 419 558.50Q450 527 450 481Q450 433 419 401.50Q388 370 339 370M70 329L610 329L610 209L70 209L70 329M339-50Q289-50 259.50-18.50Q230 13 230 61Q230 108 259.50 139Q289 170 339 170Q388 170 419 138.50Q450 107 450 61Q450 13 419-18.50Q388-50 339-50Z"  horiz-adv-x="680" vert-adv-y="1000"  />

      
      <glyph glyph-name="unif8" unicode="&#xf8;" d="M505 467Q609 397 609 254Q609 127 529.50 59Q450-9 325-9Q274-9 234 1L201-55L117-7L144 40Q40 110 40 254Q40 381 120 448.50Q200 516 325 516Q374 516 414 506L446 562L532 513L505 467M200 254Q200 205 222 174L338 376L325 376Q266 376 233 345.50Q200 315 200 254M325 131Q383 131 416 161.50Q449 192 449 254Q449 303 427 333L310 132Q315 131 325 131Z"  horiz-adv-x="649" vert-adv-y="1000"  />

      
      <glyph glyph-name="unif9" unicode="&#xf9;" d="M552 669L525 555L135 641L162 755L552 669M314 130Q384 130 421 173.50Q458 217 458 318L458 505L618 505L618 0L458 0L458 61L488 151L448 151Q432 79 383 34.50Q334-10 257-10Q159-10 104.50 53Q50 116 50 232L50 505L210 505L210 257Q210 188 233.50 159Q257 130 314 130Z"  horiz-adv-x="668" vert-adv-y="1000"  />

      
      <glyph glyph-name="unifa" unicode="&#xfa;" d="M115 669L505 755L532 641L142 555L115 669M314 130Q384 130 421 173.50Q458 217 458 318L458 505L618 505L618 0L458 0L458 61L488 151L448 151Q432 79 383 34.50Q334-10 257-10Q159-10 104.50 53Q50 116 50 232L50 505L210 505L210 257Q210 188 233.50 159Q257 130 314 130Z"  horiz-adv-x="668" vert-adv-y="1000"  />

      
      <glyph glyph-name="unifb" unicode="&#xfb;" d="M550 624L465 544L334 635L203 544L118 624L334 775L550 624M314 130Q384 130 421 173.50Q458 217 458 318L458 505L618 505L618 0L458 0L458 61L488 151L448 151Q432 79 383 34.50Q334-10 257-10Q159-10 104.50 53Q50 116 50 232L50 505L210 505L210 257Q210 188 233.50 159Q257 130 314 130Z"  horiz-adv-x="668" vert-adv-y="1000"  />

      
      <glyph glyph-name="unifc" unicode="&#xfc;" d="M203 555Q104 555 104 635Q104 673 129.50 694Q155 715 203 715Q251 715 277.50 694Q304 673 304 635Q304 596 277.50 575.50Q251 555 203 555M463 555Q364 555 364 635Q364 673 389.50 694Q415 715 463 715Q511 715 537.50 694Q564 673 564 635Q564 596 537.50 575.50Q511 555 463 555M314 130Q384 130 421 173.50Q458 217 458 318L458 505L618 505L618 0L458 0L458 61L488 151L448 151Q432 79 383 34.50Q334-10 257-10Q159-10 104.50 53Q50 116 50 232L50 505L210 505L210 257Q210 188 233.50 159Q257 130 314 130Z"  horiz-adv-x="668" vert-adv-y="1000"  />

      
      <glyph glyph-name="unifd" unicode="&#xfd;" d="M539 641L149 555L122 669L512 755L539 641M471 505L652 505L421 30L421-126Q421-168 398.50-190Q376-212 335-210L88-203L88-63L261-66L261 30L30 505L210 505L321 227L321 147L361 147L361 227L471 505Z"  horiz-adv-x="672" vert-adv-y="1000"  />

      
      <glyph glyph-name="unife" unicode="&#xfe;" d="M429 515Q534 515 591 440Q648 365 648 252Q648 139 591 64.50Q534-10 429-10Q344-10 298.50 25.50Q253 61 230 121L190 121L220 31L220-190L60-190L60 735L220 735L220 474L190 384L230 384Q253 444 298.50 479.50Q344 515 429 515M220 252Q220 130 354 130Q488 130 488 252Q488 375 354 375Q220 375 220 252Z"  horiz-adv-x="688" vert-adv-y="1000"  />

      
      <glyph glyph-name="uniff" unicode="&#xff;" d="M210 555Q111 555 111 635Q111 673 136.50 694Q162 715 210 715Q258 715 284.50 694Q311 673 311 635Q311 596 284.50 575.50Q258 555 210 555M470 555Q371 555 371 635Q371 673 396.50 694Q422 715 470 715Q518 715 544.50 694Q571 673 571 635Q571 596 544.50 575.50Q518 555 470 555M471 505L652 505L421 30L421-126Q421-168 398.50-190Q376-212 335-210L88-203L88-63L261-66L261 30L30 505L210 505L321 227L321 147L361 147L361 227L471 505Z"  horiz-adv-x="672" vert-adv-y="1000"  />

      
      <glyph glyph-name="uni0100" unicode="&#x0100;" d="M604 920L604 802L174 800L174 920L604 920M595 0L531 226L245 226L182 0L20 0L223 705L553 705L757 0L595 0M284 366L492 366L408 665L368 665L284 366Z"  horiz-adv-x="777" vert-adv-y="1000"  />

      
      <glyph glyph-name="uni0101" unicode="&#x0101;" d="M95 720L525 720L525 602L95 600L95 720M40 138Q40 205 86 243.50Q132 282 242 297L401 319Q401 385 300 385Q252 385 226 366Q200 347 200 312L50 312Q50 406 120.50 460.50Q191 515 300 515Q413 515 487 457Q561 399 561 282L561 140L634 140L634 0L523 0Q487 0 467.50 19.50Q448 39 448 75L448 85L473 145L433 145Q417 73 369.50 31.50Q322-10 224-10Q169-10 130 5Q91 20 73 45Q55 70 47.50 92.50Q40 115 40 138M200 168Q200 130 255 130Q322 130 361.50 156.50Q401 183 401 229L272 211Q232 205 216 196.50Q200 188 200 168Z"  horiz-adv-x="644" vert-adv-y="1000"  />

      
      <glyph glyph-name="uni0102" unicode="&#x0102;" d="M527.50 812Q527.50 812 505.25 783.50Q483 755 389 755Q295 755 250.50 812Q206 869 206 954L326 954Q326 904 342 884.50Q358 865 389 865Q420 865 436 884.50Q452 904 452 954L572 954Q572 869 527.50 812M595 0L531 226L245 226L182 0L20 0L223 705L553 705L757 0L595 0M284 366L492 366L408 665L368 665L284 366Z"  horiz-adv-x="777" vert-adv-y="1000"  />

      
      <glyph glyph-name="uni0103" unicode="&#x0103;" d="M493 754Q493 669 448.50 612Q404 555 310 555Q216 555 171.50 612Q127 669 127 754L247 754Q247 704 263 684.50Q279 665 310 665Q341 665 357 684.50Q373 704 373 754L493 754M40 138Q40 205 86 243.50Q132 282 242 297L401 319Q401 385 300 385Q252 385 226 366Q200 347 200 312L50 312Q50 406 120.50 460.50Q191 515 300 515Q413 515 487 457Q561 399 561 282L561 140L634 140L634 0L523 0Q487 0 467.50 19.50Q448 39 448 75L448 85L473 145L433 145Q417 73 369.50 31.50Q322-10 224-10Q169-10 130 5Q91 20 73 45Q55 70 47.50 92.50Q40 115 40 138M200 168Q200 130 255 130Q322 130 361.50 156.50Q401 183 401 229L272 211Q232 205 216 196.50Q200 188 200 168Z"  horiz-adv-x="644" vert-adv-y="1000"  />

      
      <glyph glyph-name="uni0104" unicode="&#x0104;" d="M719-79L855-65L855-185L670-200Q617-204 588.50-168Q560-132 585-94L646 0L595 0L531 226L245 226L182 0L20 0L223 705L553 705L757 1L757 0L719-79M284 366L492 366L408 665L368 665L284 366Z"  horiz-adv-x="777" vert-adv-y="1000"  />

      
      <glyph glyph-name="uni0105" unicode="&#x0105;" d="M596-79L732-65L732-185L547-200Q494-204 465.50-168Q437-132 462-94L523 0Q487 0 467.50 19.50Q448 39 448 75L448 85L473 145L433 145Q417 73 369.50 31.50Q322-10 224-10Q169-10 130 5Q91 20 73 45Q55 70 47.50 92.50Q40 115 40 138Q40 205 86 243.50Q132 282 242 297L401 319Q401 385 300 385Q252 385 226 366Q200 347 200 312L50 312Q50 406 120.50 460.50Q191 515 300 515Q413 515 487 457Q561 399 561 282L561 140L634 140L634 0L596-79M255 130Q322 130 361.50 156.50Q401 183 401 229L272 211Q232 205 216 196.50Q200 188 200 168Q200 130 255 130Z"  horiz-adv-x="644" vert-adv-y="1000"  />

      
      <glyph glyph-name="uni0106" unicode="&#x0106;" d="M191 869L581 955L608 841L218 755L191 869M50 353Q50 510 148.50 612.50Q247 715 412 715Q559 715 651.50 639.50Q744 564 760 433L600 433Q588 501 538 538Q488 575 414 575Q320 575 265 517.50Q210 460 210 353Q210 246 265 188Q320 130 414 130Q488 130 538 167.50Q588 205 600 273L760 273Q744 141 651.50 65.50Q559-10 412-10Q247-10 148.50 92.50Q50 195 50 353Z"  horiz-adv-x="810" vert-adv-y="1000"  />

      
      <glyph glyph-name="uni0107" unicode="&#x0107;" d="M97 669L487 755L514 641L124 555L97 669M40 253Q40 376 116 445.50Q192 515 316 515Q426 515 504 457Q582 399 587 296L427 296Q422 331 392.50 353Q363 375 316 375Q260 375 230 343Q200 311 200 253Q200 194 229.50 162Q259 130 316 130Q363 130 392.50 152Q422 174 427 209L587 209Q582 106 504 48Q426-10 316-10Q192-10 116 59.50Q40 129 40 253Z"  horiz-adv-x="627" vert-adv-y="1000"  />

      
      <glyph glyph-name="uni010A" unicode="&#x010A;" d="M409 755Q310 755 310 835Q310 873 335.50 894Q361 915 409 915Q457 915 483.50 894Q510 873 510 835Q510 796 483.50 775.50Q457 755 409 755M50 353Q50 510 148.50 612.50Q247 715 412 715Q559 715 651.50 639.50Q744 564 760 433L600 433Q588 501 538 538Q488 575 414 575Q320 575 265 517.50Q210 460 210 353Q210 246 265 188Q320 130 414 130Q488 130 538 167.50Q588 205 600 273L760 273Q744 141 651.50 65.50Q559-10 412-10Q247-10 148.50 92.50Q50 195 50 353Z"  horiz-adv-x="810" vert-adv-y="1000"  />

      
      <glyph glyph-name="uni010B" unicode="&#x010B;" d="M315 555Q216 555 216 635Q216 673 241.50 694Q267 715 315 715Q363 715 389.50 694Q416 673 416 635Q416 596 389.50 575.50Q363 555 315 555M40 253Q40 376 116 445.50Q192 515 316 515Q426 515 504 457Q582 399 587 296L427 296Q422 331 392.50 353Q363 375 316 375Q260 375 230 343Q200 311 200 253Q200 194 229.50 162Q259 130 316 130Q363 130 392.50 152Q422 174 427 209L587 209Q582 106 504 48Q426-10 316-10Q192-10 116 59.50Q40 129 40 253Z"  horiz-adv-x="627" vert-adv-y="1000"  />

      
      <glyph glyph-name="uni010C" unicode="&#x010C;" d="M626 901L410 750L194 901L279 981L410 890L541 981L626 901M50 353Q50 510 148.50 612.50Q247 715 412 715Q559 715 651.50 639.50Q744 564 760 433L600 433Q588 501 538 538Q488 575 414 575Q320 575 265 517.50Q210 460 210 353Q210 246 265 188Q320 130 414 130Q488 130 538 167.50Q588 205 600 273L760 273Q744 141 651.50 65.50Q559-10 412-10Q247-10 148.50 92.50Q50 195 50 353Z"  horiz-adv-x="810" vert-adv-y="1000"  />

      
      <glyph glyph-name="uni010D" unicode="&#x010D;" d="M532 701L316 550L100 701L185 781L316 690L447 781L532 701M40 253Q40 376 116 445.50Q192 515 316 515Q426 515 504 457Q582 399 587 296L427 296Q422 331 392.50 353Q363 375 316 375Q260 375 230 343Q200 311 200 253Q200 194 229.50 162Q259 130 316 130Q363 130 392.50 152Q422 174 427 209L587 209Q582 106 504 48Q426-10 316-10Q192-10 116 59.50Q40 129 40 253Z"  horiz-adv-x="627" vert-adv-y="1000"  />

      
      <glyph glyph-name="uni010E" unicode="&#x010E;" d="M529 901L313 750L97 901L182 981L313 890L444 981L529 901M320 705Q383 705 433 698Q483 691 535.50 668.50Q588 646 623.50 608.50Q659 571 681.50 506Q704 441 704 353Q704 265 681.50 200Q659 135 623.50 97.50Q588 60 535.50 37Q483 14 433 7Q383 0 320 0L60 0L60 705L320 705M320 140Q352 140 372.50 141Q393 142 419 146.50Q445 151 461 159.50Q477 168 494.50 184Q512 200 522 222Q532 244 538 277Q544 310 544 353Q544 412 532 452.50Q520 493 502 515Q484 537 451.50 548.50Q419 560 392 562.50Q365 565 320 565L220 565L220 140L320 140Z"  horiz-adv-x="754" vert-adv-y="1000"  />

      
      <glyph glyph-name="uni010F" unicode="&#x010F;" d="M718 775L838 775L838 455L718 455L718 775M628 0L468 0L468 31L498 121L458 121Q435 61 389.50 25.50Q344-10 259-10Q154-10 97 65Q40 140 40 253Q40 366 97 440.50Q154 515 259 515Q344 515 389.50 479.50Q435 444 458 384L498 384L468 474L468 735L628 735L628 0M468 253Q468 375 334 375Q200 375 200 253Q200 130 334 130Q468 130 468 253Z"  horiz-adv-x="868" vert-adv-y="1000"  />

      
      <glyph glyph-name="uni0110" unicode="&#x0110;" d="M400 705Q463 705 513 698Q563 691 615.50 668.50Q668 646 703.50 608.50Q739 571 761.50 506Q784 441 784 353Q784 265 761.50 200Q739 135 703.50 97.50Q668 60 615.50 37Q563 14 513 7Q463 0 400 0L140 0L140 305L50 305L50 425L140 425L140 705L400 705M400 140Q432 140 452.50 141Q473 142 499 146.50Q525 151 541 159.50Q557 168 574.50 184Q592 200 602 222Q612 244 618 277Q624 310 624 353Q624 412 612 452.50Q600 493 582 515Q564 537 531.50 548.50Q499 560 472 562.50Q445 565 400 565L300 565L300 425L448 425L448 305L300 305L300 140L400 140Z"  horiz-adv-x="834" vert-adv-y="1000"  />

      
      <glyph glyph-name="uni0111" unicode="&#x0111;" d="M688 687L688 567L628 567L628 0L468 0L468 31L498 121L458 121Q435 61 389.50 25.50Q344-10 259-10Q154-10 97 65Q40 140 40 253Q40 366 97 440.50Q154 515 259 515Q344 515 389.50 479.50Q435 444 458 384L498 384L468 474L468 567L328 567L328 687L468 687L468 735L628 735L628 687L688 687M200 253Q200 130 334 130Q468 130 468 253Q468 375 334 375Q200 375 200 253Z"  horiz-adv-x="718" vert-adv-y="1000"  />

      
      <glyph glyph-name="uni0112" unicode="&#x0112;" d="M97 920L527 920L527 802L97 800L97 920M60 0L60 705L563 705L563 565L220 565L220 423L513 423L513 283L220 283L220 140L563 140L563 0L60 0Z"  horiz-adv-x="603" vert-adv-y="1000"  />

      
      <glyph glyph-name="uni0113" unicode="&#x0113;" d="M101 720L531 720L531 602L101 600L101 720M40 259Q40 377 113.50 446Q187 515 306 515Q425 515 499 448.50Q573 382 573 269L573 219L190 219Q190 174 223.50 147Q257 120 323 120Q366 120 395 135Q424 150 431 178L591 178Q587 149 569 117.50Q551 86 519.50 57Q488 28 436.50 9Q385-10 323-10Q185-10 112.50 67Q40 144 40 259M190 309L423 309Q423 341 395.50 363Q368 385 306 385Q244 385 217 363.50Q190 342 190 309Z"  horiz-adv-x="631" vert-adv-y="1000"  />

      
      <glyph glyph-name="uni0116" unicode="&#x0116;" d="M311 755Q212 755 212 835Q212 873 237.50 894Q263 915 311 915Q359 915 385.50 894Q412 873 412 835Q412 796 385.50 775.50Q359 755 311 755M60 0L60 705L563 705L563 565L220 565L220 423L513 423L513 283L220 283L220 140L563 140L563 0L60 0Z"  horiz-adv-x="603" vert-adv-y="1000"  />

      
      <glyph glyph-name="uni0117" unicode="&#x0117;" d="M315 555Q216 555 216 635Q216 673 241.50 694Q267 715 315 715Q363 715 389.50 694Q416 673 416 635Q416 596 389.50 575.50Q363 555 315 555M40 259Q40 377 113.50 446Q187 515 306 515Q425 515 499 448.50Q573 382 573 269L573 219L190 219Q190 174 223.50 147Q257 120 323 120Q366 120 395 135Q424 150 431 178L591 178Q587 149 569 117.50Q551 86 519.50 57Q488 28 436.50 9Q385-10 323-10Q185-10 112.50 67Q40 144 40 259M190 309L423 309Q423 341 395.50 363Q368 385 306 385Q244 385 217 363.50Q190 342 190 309Z"  horiz-adv-x="631" vert-adv-y="1000"  />

      
      <glyph glyph-name="uni0118" unicode="&#x0118;" d="M563 565L220 565L220 423L513 423L513 283L220 283L220 140L563 140L563 0L455 0L417-79L553-65L553-185L368-200Q315-204 286.50-168Q258-132 283-94L344 0L60 0L60 705L563 705L563 565Z"  horiz-adv-x="603" vert-adv-y="1000"  />

      
      <glyph glyph-name="uni0119" unicode="&#x0119;" d="M591 178Q584 126 535.50 72.50Q487 19 405-1L368-79L504-65L504-185L319-200Q266-204 237.50-168Q209-132 234-94L290-9Q168 1 104 76Q40 151 40 259Q40 377 113.50 446Q187 515 306 515Q425 515 499 448.50Q573 382 573 269L573 219L190 219Q190 174 223.50 147Q257 120 323 120Q366 120 395 135Q424 150 431 178L591 178M395.50 363Q395.50 363 381.75 374Q368 385 306 385Q244 385 217 363.50Q190 342 190 309L423 309Q423 341 395.50 363Z"  horiz-adv-x="631" vert-adv-y="1000"  />

      
      <glyph glyph-name="uni011A" unicode="&#x011A;" d="M528 901L312 750L96 901L181 981L312 890L443 981L528 901M60 0L60 705L563 705L563 565L220 565L220 423L513 423L513 283L220 283L220 140L563 140L563 0L60 0Z"  horiz-adv-x="603" vert-adv-y="1000"  />

      
      <glyph glyph-name="uni011B" unicode="&#x011B;" d="M532 701L316 550L100 701L185 781L316 690L447 781L532 701M40 259Q40 377 113.50 446Q187 515 306 515Q425 515 499 448.50Q573 382 573 269L573 219L190 219Q190 174 223.50 147Q257 120 323 120Q366 120 395 135Q424 150 431 178L591 178Q587 149 569 117.50Q551 86 519.50 57Q488 28 436.50 9Q385-10 323-10Q185-10 112.50 67Q40 144 40 259M190 309L423 309Q423 341 395.50 363Q368 385 306 385Q244 385 217 363.50Q190 342 190 309Z"  horiz-adv-x="631" vert-adv-y="1000"  />

      
      <glyph glyph-name="uni011E" unicode="&#x011E;" d="M588 954Q588 869 543.50 812Q499 755 405 755Q311 755 266.50 812Q222 869 222 954L342 954Q342 904 358 884.50Q374 865 405 865Q436 865 452 884.50Q468 904 468 954L588 954M50 353Q50 513 150.50 614Q251 715 405 715Q538 715 631 642Q724 569 740 453L580 453Q568 516 526 545.50Q484 575 405 575Q210 575 210 353Q210 237 252.50 183.50Q295 130 383 130Q456 130 497.50 166.50Q539 203 539 273L376 273L376 393L744 393Q829 393 829 308L829 0L669 0L669 243L699 353L659 353Q658 181 588 85.50Q518-10 377-10Q222-10 136 89Q50 188 50 353Z"  horiz-adv-x="889" vert-adv-y="1000"  />

      
      <glyph glyph-name="uni011F" unicode="&#x011F;" d="M473.50 612Q473.50 612 451.25 583.50Q429 555 335 555Q241 555 196.50 612Q152 669 152 754L272 754Q272 704 288 684.50Q304 665 335 665Q366 665 382 684.50Q398 704 398 754L518 754Q518 669 473.50 612M652 505L696 505L696 365L662 365Q629 365 615 356Q629 337 629 298Q629 230 570.50 182Q512 134 401 96Q463 100 510.50 90Q558 80 590.50 48.50Q623 17 623-34Q623-71 609-98Q595-125 562.50-143.50Q530-162 489.50-173Q449-184 381.50-190Q314-196 245-198Q176-200 73-200L73-60Q325-60 393.50-50Q462-40 462 0Q462 25 434 36.50Q406 48 358 45.50Q310 43 256 35.50Q202 28 141 18Q131 16 126 15L109 105Q319 127 420 151L420 191Q350 166 282.50 160Q215 154 160.50 167Q106 180 73 219Q40 258 40 318Q40 414 119.50 464.50Q199 515 325 515Q452 515 525 461Q559 505 652 505M335 241Q469 241 469 308Q469 375 335 375Q200 375 200 308Q200 241 335 241Z"  horiz-adv-x="706" vert-adv-y="1000"  />

      
      <glyph glyph-name="uni0120" unicode="&#x0120;" d="M404 755Q305 755 305 835Q305 873 330.50 894Q356 915 404 915Q452 915 478.50 894Q505 873 505 835Q505 796 478.50 775.50Q452 755 404 755M50 353Q50 513 150.50 614Q251 715 405 715Q538 715 631 642Q724 569 740 453L580 453Q568 516 526 545.50Q484 575 405 575Q210 575 210 353Q210 237 252.50 183.50Q295 130 383 130Q456 130 497.50 166.50Q539 203 539 273L376 273L376 393L744 393Q829 393 829 308L829 0L669 0L669 243L699 353L659 353Q658 181 588 85.50Q518-10 377-10Q222-10 136 89Q50 188 50 353Z"  horiz-adv-x="889" vert-adv-y="1000"  />

      
      <glyph glyph-name="uni0121" unicode="&#x0121;" d="M334 555Q235 555 235 635Q235 673 260.50 694Q286 715 334 715Q382 715 408.50 694Q435 673 435 635Q435 596 408.50 575.50Q382 555 334 555M652 505L696 505L696 365L662 365Q629 365 615 356Q629 337 629 298Q629 230 570.50 182Q512 134 401 96Q463 100 510.50 90Q558 80 590.50 48.50Q623 17 623-34Q623-71 609-98Q595-125 562.50-143.50Q530-162 489.50-173Q449-184 381.50-190Q314-196 245-198Q176-200 73-200L73-60Q325-60 393.50-50Q462-40 462 0Q462 25 434 36.50Q406 48 358 45.50Q310 43 256 35.50Q202 28 141 18Q131 16 126 15L109 105Q319 127 420 151L420 191Q350 166 282.50 160Q215 154 160.50 167Q106 180 73 219Q40 258 40 318Q40 414 119.50 464.50Q199 515 325 515Q452 515 525 461Q559 505 652 505M335 241Q469 241 469 308Q469 375 335 375Q200 375 200 308Q200 241 335 241Z"  horiz-adv-x="706" vert-adv-y="1000"  />

      
      <glyph glyph-name="uni0122" unicode="&#x0122;" d="M50 353Q50 513 150.50 614Q251 715 405 715Q538 715 631 642Q724 569 740 453L580 453Q568 516 526 545.50Q484 575 405 575Q210 575 210 353Q210 237 252.50 183.50Q295 130 383 130Q456 130 497.50 166.50Q539 203 539 273L376 273L376 393L744 393Q829 393 829 308L829 0L669 0L669 243L699 353L659 353Q658 181 588 85.50Q518-10 377-10Q222-10 136 89Q50 188 50 353M317-49L431-86L369-257L255-220L317-49Z"  horiz-adv-x="889" vert-adv-y="1000"  />

      
      <glyph glyph-name="uni0123" unicode="&#x0123;" d="M455 772L382 555L266 586L339 803L455 772M652 505L696 505L696 365L662 365Q629 365 615 356Q629 337 629 298Q629 230 570.50 182Q512 134 401 96Q463 100 510.50 90Q558 80 590.50 48.50Q623 17 623-34Q623-71 609-98Q595-125 562.50-143.50Q530-162 489.50-173Q449-184 381.50-190Q314-196 245-198Q176-200 73-200L73-60Q325-60 393.50-50Q462-40 462 0Q462 25 434 36.50Q406 48 358 45.50Q310 43 256 35.50Q202 28 141 18Q131 16 126 15L109 105Q319 127 420 151L420 191Q350 166 282.50 160Q215 154 160.50 167Q106 180 73 219Q40 258 40 318Q40 414 119.50 464.50Q199 515 325 515Q452 515 525 461Q559 505 652 505M335 241Q469 241 469 308Q469 375 335 375Q200 375 200 308Q200 241 335 241Z"  horiz-adv-x="706" vert-adv-y="1000"  />

      
      <glyph glyph-name="uni0126" unicode="&#x0126;" d="M824 625L824 505L764 505L764 0L604 0L604 273L250 273L250 0L90 0L90 505L30 505L30 625L90 625L90 705L250 705L250 625L604 625L604 705L764 705L764 625L824 625M604 413L604 505L250 505L250 413L604 413Z"  horiz-adv-x="854" vert-adv-y="1000"  />

      
      <glyph glyph-name="uni0127" unicode="&#x0127;" d="M461 515Q559 515 613.50 452Q668 389 668 273L668 0L508 0L508 248Q508 317 484.50 346Q461 375 404 375Q334 375 297 331.50Q260 288 260 187L260 0L100 0L100 567L40 567L40 687L100 687L100 735L260 735L260 687L400 687L400 567L260 567L260 444L230 354L270 354Q286 426 335 470.50Q384 515 461 515Z"  horiz-adv-x="718" vert-adv-y="1000"  />

      
      <glyph glyph-name="uni012A" unicode="&#x012A;" d="M505 920L505 802L75 800L75 920L505 920M530 565L370 565L370 140L530 140L530 0L50 0L50 140L210 140L210 565L50 565L50 705L530 705L530 565Z"  horiz-adv-x="580" vert-adv-y="1000"  />

      
      <glyph glyph-name="uni012B" unicode="&#x012B;" d="M40 720L470 720L470 602L40 600L40 720M55 0L55 140L198 140L198 371L75 365L75 505L265 515Q307 517 329.50 495Q352 473 352 431L352 140L495 140L495 0L55 0Z"  horiz-adv-x="515" vert-adv-y="1000"  />

      
      <glyph glyph-name="uni012E" unicode="&#x012E;" d="M530 565L370 565L370 140L530 140L530 0L431 0L393-79L529-65L529-185L344-200Q291-204 262.50-168Q234-132 259-94L320 0L50 0L50 140L210 140L210 565L50 565L50 705L530 705L530 565Z"  horiz-adv-x="580" vert-adv-y="1000"  />

      
      <glyph glyph-name="uni012F" unicode="&#x012F;" d="M229 555Q130 555 130 635Q130 673 155.50 694Q181 715 229 715Q277 715 303.50 694Q330 673 330 635Q330 596 303.50 575.50Q277 555 229 555M480 0L372 0L334-79L470-65L470-185L285-200Q232-204 203.50-168Q175-132 200-94L261 0L40 0L40 140L183 140L183 371L60 365L60 505L250 515Q292 517 314.50 495Q337 473 337 431L337 140L480 140L480 0Z"  horiz-adv-x="500" vert-adv-y="1000"  />

      
      <glyph glyph-name="uni0130" unicode="&#x0130;" d="M289 755Q190 755 190 835Q190 873 215.50 894Q241 915 289 915Q337 915 363.50 894Q390 873 390 835Q390 796 363.50 775.50Q337 755 289 755M530 565L370 565L370 140L530 140L530 0L50 0L50 140L210 140L210 565L50 565L50 705L530 705L530 565Z"  horiz-adv-x="580" vert-adv-y="1000"  />

      
      <glyph glyph-name="uni0131" unicode="&#x0131;" d="M40 0L40 140L183 140L183 371L60 365L60 505L250 515Q292 517 314.50 495Q337 473 337 431L337 140L480 140L480 0L40 0Z"  horiz-adv-x="500" vert-adv-y="1000"  />

      
      <glyph glyph-name="uni0136" unicode="&#x0136;" d="M749 705L324 352L749 0L515 0L220 249L220 0L60 0L60 705L220 705L220 455L515 705L749 705M245-220L307-49L421-86L359-257L245-220Z"  horiz-adv-x="769" vert-adv-y="1000"  />

      
      <glyph glyph-name="uni0137" unicode="&#x0137;" d="M468 259L639 0L457 0L331 195L220 143L220 0L60 0L60 735L220 735L220 308L451 414L449 505L609 505L609 395Q609 325 546 295L468 259M210-220L272-49L386-86L324-257L210-220Z"  horiz-adv-x="669" vert-adv-y="1000"  />

      
      <glyph glyph-name="uni0139" unicode="&#x0139;" d="M60 869L450 955L477 841L87 755L60 869M153-10Q112-11 89.50 11Q67 33 67 74L67 705L227 705L227 130L570 140L570 0L153-10Z"  horiz-adv-x="590" vert-adv-y="1000"  />

      
      <glyph glyph-name="uni013A" unicode="&#x013A;" d="M28 899L418 985L445 871L55 785L28 899M52 0L52 140L192 140L192 601L72 595L72 735L265 742Q307 743 329.50 721.50Q352 700 352 658L352 140L492 140L492 0L52 0Z"  horiz-adv-x="512" vert-adv-y="1000"  />

      
      <glyph glyph-name="uni013B" unicode="&#x013B;" d="M146-10Q105-11 82.50 11Q60 33 60 74L60 705L220 705L220 130L563 140L563 0L146-10M269-49L383-86L321-257L207-220L269-49Z"  horiz-adv-x="583" vert-adv-y="1000"  />

      
      <glyph glyph-name="uni013C" unicode="&#x013C;" d="M30 0L30 140L170 140L170 601L50 595L50 735L243 742Q285 743 307.50 721.50Q330 700 330 658L330 140L470 140L470 0L30 0M182-49L296-86L234-257L120-220L182-49Z"  horiz-adv-x="490" vert-adv-y="1000"  />

      
      <glyph glyph-name="uni013D" unicode="&#x013D;" d="M337 775L457 775L457 455L337 455L337 775M146-10Q105-11 82.50 11Q60 33 60 74L60 705L220 705L220 130L563 140L563 0L146-10Z"  horiz-adv-x="593" vert-adv-y="1000"  />

      
      <glyph glyph-name="uni013E" unicode="&#x013E;" d="M400 775L520 775L520 455L400 455L400 775M30 0L30 140L170 140L170 601L50 595L50 735L243 742Q285 743 307.50 721.50Q330 700 330 658L330 140L470 140L470 0L30 0Z"  horiz-adv-x="540" vert-adv-y="1000"  />

      
      <glyph glyph-name="uni0141" unicode="&#x0141;" d="M303 130L646 140L646 0L229-10Q188-11 165.50 11Q143 33 143 74L143 299L70 279L40 393L143 421L143 705L303 705L303 464L475 511L505 397L303 342L303 130Z"  horiz-adv-x="676" vert-adv-y="1000"  />

      
      <glyph glyph-name="uni0142" unicode="&#x0142;" d="M330 140L470 140L470 0L30 0L30 140L170 140L170 282L72 255L42 370L170 405L170 601L50 595L50 735L243 742Q285 743 307.50 721.50Q330 700 330 658L330 448L428 475L458 360L330 325L330 140Z"  horiz-adv-x="490" vert-adv-y="1000"  />

      
      <glyph glyph-name="uni0143" unicode="&#x0143;" d="M210 869L600 955L627 841L237 755L210 869M60 0L60 705L375 705L588 40L628 40L598 140L598 705L758 705L758 0L443 0L230 665L190 665L220 565L220 0L60 0Z"  horiz-adv-x="818" vert-adv-y="1000"  />

      
      <glyph glyph-name="uni0144" unicode="&#x0144;" d="M140 669L530 755L557 641L167 555L140 669M364 375Q294 375 257 331.50Q220 288 220 187L220 0L60 0L60 505L220 505L220 444L190 354L230 354Q246 426 295 470.50Q344 515 421 515Q519 515 573.50 452Q628 389 628 273L628 0L468 0L468 248Q468 317 444.50 346Q421 375 364 375Z"  horiz-adv-x="678" vert-adv-y="1000"  />

      
      <glyph glyph-name="uni0145" unicode="&#x0145;" d="M60 0L60 705L375 705L588 40L628 40L598 140L598 705L758 705L758 0L443 0L230 665L190 665L220 565L220 0L60 0M346-49L460-86L398-257L284-220L346-49Z"  horiz-adv-x="818" vert-adv-y="1000"  />

      
      <glyph glyph-name="uni0146" unicode="&#x0146;" d="M364 375Q294 375 257 331.50Q220 288 220 187L220 0L60 0L60 505L220 505L220 444L190 354L230 354Q246 426 295 470.50Q344 515 421 515Q519 515 573.50 452Q628 389 628 273L628 0L468 0L468 248Q468 317 444.50 346Q421 375 364 375M286-49L400-86L338-257L224-220L286-49Z"  horiz-adv-x="678" vert-adv-y="1000"  />

      
      <glyph glyph-name="uni0147" unicode="&#x0147;" d="M645 901L429 750L213 901L298 981L429 890L560 981L645 901M60 0L60 705L375 705L588 40L628 40L598 140L598 705L758 705L758 0L443 0L230 665L190 665L220 565L220 0L60 0Z"  horiz-adv-x="818" vert-adv-y="1000"  />

      
      <glyph glyph-name="uni0148" unicode="&#x0148;" d="M575 701L359 550L143 701L228 781L359 690L490 781L575 701M364 375Q294 375 257 331.50Q220 288 220 187L220 0L60 0L60 505L220 505L220 444L190 354L230 354Q246 426 295 470.50Q344 515 421 515Q519 515 573.50 452Q628 389 628 273L628 0L468 0L468 248Q468 317 444.50 346Q421 375 364 375Z"  horiz-adv-x="678" vert-adv-y="1000"  />

      
      <glyph glyph-name="uni014A" unicode="&#x014A;" d="M598 705L758 705L758-116Q758-158 735.50-180Q713-202 672-200L425-193L425-53L598-59L598 0L443 0L230 665L190 665L220 565L220 0L60 0L60 705L375 705L588 40L628 40L598 140L598 705Z"  horiz-adv-x="818" vert-adv-y="1000"  />

      
      <glyph glyph-name="uni014B" unicode="&#x014B;" d="M421 515Q519 515 573.50 452Q628 389 628 273L628-116Q628-158 605.50-180Q583-202 542-200L295-193L295-53L468-59L468 248Q468 317 444.50 346Q421 375 364 375Q294 375 257 331.50Q220 288 220 187L220 0L60 0L60 505L220 505L220 444L190 354L230 354Q246 426 295 470.50Q344 515 421 515Z"  horiz-adv-x="678" vert-adv-y="1000"  />

      
      <glyph glyph-name="uni014C" unicode="&#x014C;" d="M195 920L625 920L625 802L195 800L195 920M50 353Q50 510 148 612.50Q246 715 410 715Q574 715 671.50 612.50Q769 510 769 353Q769 195 671.50 92.50Q574-10 410-10Q245-10 147.50 92.50Q50 195 50 353M261 516Q261 516 235.50 486.50Q210 457 210 353Q210 249 261 189.50Q312 130 410 130Q508 130 558.50 189.50Q609 249 609 353Q609 457 558.50 516Q508 575 410 575Q312 575 261 516Z"  horiz-adv-x="819" vert-adv-y="1000"  />

      
      <glyph glyph-name="uni014D" unicode="&#x014D;" d="M110 720L540 720L540 602L110 600L110 720M40 253Q40 380 120 447.50Q200 515 325 515Q450 515 529.50 447.50Q609 380 609 253Q609 126 529.50 58Q450-10 325-10Q200-10 120 57.50Q40 125 40 253M200 253Q200 191 233 160.50Q266 130 325 130Q383 130 416 160.50Q449 191 449 253Q449 314 416 344.50Q383 375 325 375Q266 375 233 344.50Q200 314 200 253Z"  horiz-adv-x="649" vert-adv-y="1000"  />

      
      <glyph glyph-name="uni0150" unicode="&#x0150;" d="M178 833L378 1002L462 924L262 755L178 833M428 833L628 1002L712 924L512 755L428 833M50 353Q50 510 148 612.50Q246 715 410 715Q574 715 671.50 612.50Q769 510 769 353Q769 195 671.50 92.50Q574-10 410-10Q245-10 147.50 92.50Q50 195 50 353M261 516Q261 516 235.50 486.50Q210 457 210 353Q210 249 261 189.50Q312 130 410 130Q508 130 558.50 189.50Q609 249 609 353Q609 457 558.50 516Q508 575 410 575Q312 575 261 516Z"  horiz-adv-x="819" vert-adv-y="1000"  />

      
      <glyph glyph-name="uni0151" unicode="&#x0151;" d="M93 633L293 802L377 724L177 555L93 633M343 633L543 802L627 724L427 555L343 633M40 253Q40 380 120 447.50Q200 515 325 515Q450 515 529.50 447.50Q609 380 609 253Q609 126 529.50 58Q450-10 325-10Q200-10 120 57.50Q40 125 40 253M200 253Q200 191 233 160.50Q266 130 325 130Q383 130 416 160.50Q449 191 449 253Q449 314 416 344.50Q383 375 325 375Q266 375 233 344.50Q200 314 200 253Z"  horiz-adv-x="649" vert-adv-y="1000"  />

      
      <glyph glyph-name="uni0152" unicode="&#x0152;" d="M1122 565L779 565L779 423L1072 423L1072 283L779 283L779 140L1122 140L1122 0L619 0L619 49Q532-10 410-10Q245-10 147.50 92.50Q50 195 50 353Q50 510 148 612.50Q246 715 410 715Q532 715 619 656L619 705L1122 705L1122 565M261 189.50Q261 189.50 286.50 159.75Q312 130 410 130Q508 130 558.50 189.50Q609 249 609 353Q609 457 558.50 516Q508 575 410 575Q312 575 261 516Q210 457 210 353Q210 249 261 189.50Z"  horiz-adv-x="1162" vert-adv-y="1000"  />

      
      <glyph glyph-name="uni0153" unicode="&#x0153;" d="M880 178L1040 178Q1036 149 1018 117.50Q1000 86 968.50 57Q937 28 885.50 9Q834-10 772-10Q627-10 550 79Q474-10 325-10Q200-10 120 57.50Q40 125 40 253Q40 380 120 447.50Q200 515 325 515Q469 515 547 430Q620 515 755 515Q874 515 948 448.50Q1022 382 1022 269L1022 219L639 219Q639 174 672.50 147Q706 120 772 120Q815 120 844 135Q873 150 880 178M844.50 363Q844.50 363 830.75 374Q817 385 755 385Q693 385 666 363.50Q639 342 639 309L872 309Q872 341 844.50 363M325 130Q383 130 416 160.50Q449 191 449 253Q449 314 416 344.50Q383 375 325 375Q266 375 233 344.50Q200 314 200 253Q200 191 233 160.50Q266 130 325 130Z"  horiz-adv-x="1080" vert-adv-y="1000"  />

      
      <glyph glyph-name="uni0154" unicode="&#x0154;" d="M124 869L514 955L541 841L151 755L124 869M60 0L60 705L333 705Q647 705 647 508Q647 371 468 350L468 310L571 310Q656 310 656 225L656 0L496 0L496 248L220 248L220 0L60 0M220 388L333 388Q370 388 386.50 388.50Q403 389 427 393.50Q451 398 461 407Q471 416 479 433Q487 450 487 476Q487 502 479 519.50Q471 537 461 546Q451 555 427 559.50Q403 564 386.50 564.50Q370 565 333 565L220 565L220 388Z"  horiz-adv-x="716" vert-adv-y="1000"  />

      
      <glyph glyph-name="uni0155" unicode="&#x0155;" d="M60 669L450 755L477 641L87 555L60 669M72 0L72 429Q72 470 94.50 492Q117 514 158 513L489 505L489 365L232 371L232 0L72 0Z"  horiz-adv-x="499" vert-adv-y="1000"  />

      
      <glyph glyph-name="uni0156" unicode="&#x0156;" d="M60 0L60 705L333 705Q647 705 647 508Q647 371 468 350L468 310L571 310Q656 310 656 225L656 0L496 0L496 248L220 248L220 0L60 0M220 388L333 388Q370 388 386.50 388.50Q403 389 427 393.50Q451 398 461 407Q471 416 479 433Q487 450 487 476Q487 502 479 519.50Q471 537 461 546Q451 555 427 559.50Q403 564 386.50 564.50Q370 565 333 565L220 565L220 388M310-49L424-86L362-257L248-220L310-49Z"  horiz-adv-x="716" vert-adv-y="1000"  />

      
      </font>
</defs>
</svg>
