<?xml version="1.0" standalone="no"?>
  <!DOCTYPE svg PUBLIC "-//W3C//DTD SVG 1.1//EN" "http://www.w3.org/Graphics/SVG/1.1/DTD/svg11.dtd" >
  <svg>
  <metadata>
  Created by font-carrier
  </metadata>
  <defs>
  <font id="NeueMachina-Light" horiz-adv-x="1641" vert-adv-y="1641" >
    <font-face
      
      font-family="Neue Machina Light"
      
      font-weight="400"
      
      font-stretch="normal"
      
      units-per-em="1000"
      
      ascent="735"
      
      descent="-230"
      
    />
      <missing-glyph />

      

      
      <glyph glyph-name="uni21" unicode="&#x21;" d="M131 705L197 705L192 239L136 239L131 705M218 12.50Q218 12.50 206.50 1.25Q195-10 163-10Q131-10 108.50 12.50Q86 35 86 68Q86 100 108.50 122.50Q131 145 163 145Q195 145 218 122.50Q241 100 241 68Q241 35 218 12.50Z"  horiz-adv-x="327" vert-adv-y="1000"  />

      
      <glyph glyph-name="uni22" unicode="&#x22;" d="M86 735L152 735L152 495L86 495L86 735M212 735L278 735L278 495L212 495L212 735Z"  horiz-adv-x="364" vert-adv-y="1000"  />

      
      <glyph glyph-name="uni23" unicode="&#x23;" d="M989 439L773 439L692 195L894 195L894 139L674 139L579-149L526-131L615 139L344 139L249-149L196-131L285 139L86 139L86 195L303 195L384 439L181 439L181 495L402 495L494 774L547 756L461 495L732 495L824 774L877 756L791 495L989 495L989 439M633 195L714 439L443 439L362 195L633 195Z"  horiz-adv-x="1075" vert-adv-y="1000"  />

      
      <glyph glyph-name="uni24" unicode="&#x24;" d="M663 175Q663-9 403-10L403-148L347-148L347-8Q203 2 144.50 71Q86 140 86 262L152 262Q152 150 201 102.50Q250 55 347 48L347 344Q288 361 253 375.50Q218 390 183.50 412.50Q149 435 133.50 467Q118 499 118 543Q118 709 347 715L347 853L403 853L403 713Q465 707 512 683.50Q559 660 584.50 625.50Q610 591 622 553.50Q634 516 634 475L568 475Q568 554 522.50 600Q477 646 403 656L403 389Q455 373 481.50 364.50Q508 356 549 336.50Q590 317 610.50 297.50Q631 278 647 246Q663 214 663 175M184 547Q184 493 223 463.50Q262 434 347 407L347 659Q184 654 184 547M403 46Q499 47 548 75Q597 103 597 170Q597 199 585.50 222.50Q574 246 558 261Q542 276 513 290Q484 304 462 311.50Q440 319 403 329L403 46Z"  horiz-adv-x="749" vert-adv-y="1000"  />

      
      <glyph glyph-name="uni25" unicode="&#x25;" d="M698 814L751 796L453-109L400-91L698 814M433.50 399.50Q433.50 399.50 405.25 370.25Q377 341 288 341Q199 341 142.50 399.50Q86 458 86 543Q86 628 142.50 686.50Q199 745 288 745Q377 745 433.50 686.50Q490 628 490 543Q490 458 433.50 399.50M183.50 440Q183.50 440 204.25 418.50Q225 397 288 397Q351 397 392.50 440Q434 483 434 543Q434 603 392.50 646Q351 689 288 689Q225 689 183.50 646Q142 603 142 543Q142 483 183.50 440M1015.50 48.50Q1015.50 48.50 987.25 19.25Q959-10 870-10Q781-10 724.50 48.50Q668 107 668 192Q668 277 724.50 335.50Q781 394 870 394Q959 394 1015.50 335.50Q1072 277 1072 192Q1072 107 1015.50 48.50M765.50 89Q765.50 89 786.25 67.50Q807 46 870 46Q933 46 974.50 89Q1016 132 1016 192Q1016 252 974.50 295Q933 338 870 338Q807 338 765.50 295Q724 252 724 192Q724 132 765.50 89Z"  horiz-adv-x="1158" vert-adv-y="1000"  />

      
      <glyph glyph-name="uni26" unicode="&#x26;" d="M856-17L804-51L696 86Q582-28 402-28Q263-28 174.50 44.50Q86 117 86 237Q86 344 149 409.50Q212 475 304 475Q376 475 415 426L415 446L246 661L245 705L767 705L767 649L334 649L697 185Q773 307 773 495L839 495Q839 273 738 134L856-17M402 28Q562 28 659 134L511 322Q468 376 428 397.50Q388 419 330 419Q249 419 200.50 371Q152 323 152 237Q152 140 220.50 84Q289 28 402 28Z"  horiz-adv-x="942" vert-adv-y="1000"  />

      
      <glyph glyph-name="uni27" unicode="&#x27;" d="M86 735L152 735L152 495L86 495L86 735Z"  horiz-adv-x="238" vert-adv-y="1000"  />

      
      <glyph glyph-name="uni28" unicode="&#x28;" d="M340-87L340-150Q86-95 86 278Q86 650 340 705L340 642Q152 599 152 278Q152-44 340-87Z"  horiz-adv-x="426" vert-adv-y="1000"  />

      
      <glyph glyph-name="uni29" unicode="&#x29;" d="M86-87Q274-44 274 278Q274 599 86 642L86 705Q340 650 340 278Q340-95 86-150L86-87Z"  horiz-adv-x="426" vert-adv-y="1000"  />

      
      <glyph glyph-name="uni2a" unicode="&#x2a;" d="M66 579L83 633L203 594L236 571L225 609L225 735L281 735L281 609L270 570L302 593L422 631L439 578L319 539L281 537L311 515L385 413L339 380L265 482L252 518L238 482L164 380L119 413L193 515L224 538L186 540L66 579Z"  horiz-adv-x="505" vert-adv-y="1000"  />

      
      <glyph glyph-name="uni2b" unicode="&#x2b;" d="M550 276L550 220L346 220L346 16L290 16L290 220L86 220L86 276L290 276L290 480L346 480L346 276L550 276Z"  horiz-adv-x="636" vert-adv-y="1000"  />

      
      <glyph glyph-name="uni2c" unicode="&#x2c;" d="M120 159L184 142L110-134L46-117L120 159Z"  horiz-adv-x="270" vert-adv-y="1000"  />

      
      <glyph glyph-name="uni2d" unicode="&#x2d;" d="M86 276L550 276L550 220L86 220L86 276Z"  horiz-adv-x="636" vert-adv-y="1000"  />

      
      <glyph glyph-name="uni2e" unicode="&#x2e;" d="M218 12.50Q218 12.50 206.50 1.25Q195-10 163-10Q131-10 108.50 12.50Q86 35 86 68Q86 100 108.50 122.50Q131 145 163 145Q195 145 218 122.50Q241 100 241 68Q241 35 218 12.50Z"  horiz-adv-x="327" vert-adv-y="1000"  />

      
      <glyph glyph-name="uni2f" unicode="&#x2f;" d="M364 814L417 796L119-109L66-91L364 814Z"  horiz-adv-x="483" vert-adv-y="1000"  />

      
      <glyph glyph-name="uni30" unicode="&#x30;" d="M359 715Q499 715 575 614Q651 513 651 353Q651 192 575 91Q499-10 359-10Q218-10 142 91Q66 192 66 353Q66 513 142 614Q218 715 359 715M359 659Q248 659 190 574.50Q132 490 132 353Q132 241 169 166L511 595Q453 659 359 659M359 46Q470 46 527.50 130.50Q585 215 585 353Q585 465 548 540L206 111Q265 46 359 46Z"  horiz-adv-x="717" vert-adv-y="1000"  />

      
      <glyph glyph-name="uni31" unicode="&#x31;" d="M56 385Q233 457 239 705L376 705L376 0L310 0L310 635L320 685L300 685Q296 623 284 572.50Q272 522 247.50 472.50Q223 423 179.50 386.50Q136 350 76 330L56 385Z"  horiz-adv-x="462" vert-adv-y="1000"  />

      
      <glyph glyph-name="uni32" unicode="&#x32;" d="M56 362Q56 544 137 629.50Q218 715 352 715Q465 715 531.50 653Q598 591 598 478Q598 368 528 280.50Q458 193 344.50 140.50Q231 88 86 66L86 46L136 56L598 56L598 0L66 0L66 116Q88 119 115 124.50Q142 130 189.50 143.50Q237 157 280 174.50Q323 192 370.50 221.50Q418 251 452.50 286Q487 321 509.50 371Q532 421 532 478Q532 568 485.50 613.50Q439 659 354 659Q122 659 122 362L56 362Z"  horiz-adv-x="664" vert-adv-y="1000"  />

      
      <glyph glyph-name="uni33" unicode="&#x33;" d="M66 269L132 269Q132 150 184.50 98Q237 46 348 46Q538 46 538 206Q538 345 394 345L296 345L296 401L394 401Q528 401 528 519Q528 659 348 659Q241 659 191.50 613.50Q142 568 142 476L76 476Q76 591 145 653Q214 715 348 715Q469 715 531.50 663.50Q594 612 594 529Q594 403 464 383L464 363Q535 348 569.50 309.50Q604 271 604 196Q604 101 538 45.50Q472-10 348-10Q66-10 66 269Z"  horiz-adv-x="670" vert-adv-y="1000"  />

      
      <glyph glyph-name="uni34" unicode="&#x34;" d="M601 219L601 163L507 163L507 0L441 0L441 163L66 163L66 280Q193 342 281.50 452Q370 562 386 705L452 705Q403 386 86 229L86 209L136 219L441 219L441 495L507 495L507 219L601 219Z"  horiz-adv-x="657" vert-adv-y="1000"  />

      
      <glyph glyph-name="uni35" unicode="&#x35;" d="M66 249L132 249Q132 150 188 98Q244 46 352 46Q453 46 510.50 102.50Q568 159 568 262Q568 351 525.50 400Q483 449 399 449Q277 449 213 350L123 394L123 705L585 705L585 649L189 649L189 464L179 414L196 404Q228 447 283.50 476Q339 505 409 505Q515 505 574.50 438Q634 371 634 256Q634 134 557 62Q480-10 352-10Q217-10 141.50 58.50Q66 127 66 249Z"  horiz-adv-x="700" vert-adv-y="1000"  />

      
      <glyph glyph-name="uni36" unicode="&#x36;" d="M66 327Q66 417 82.50 488.50Q99 560 133.50 615.50Q168 671 227.50 697Q287 723 368 715L565 695L565 639L368 659Q304 665 257.50 645Q211 625 184 582Q157 539 143 493Q129 447 122 387L102 337L122 337Q139 411 207 458Q275 505 368 505Q482 505 548.50 434.50Q615 364 615 252Q615 136 541 63Q467-10 341-10Q214-10 140 76.50Q66 163 66 327M132 242Q132 165 189.50 105.50Q247 46 341 46Q439 46 494 100.50Q549 155 549 252Q549 341 499.50 395Q450 449 363 449Q265 449 198.50 392.50Q132 336 132 242Z"  horiz-adv-x="681" vert-adv-y="1000"  />

      
      <glyph glyph-name="uni37" unicode="&#x37;" d="M165 0Q165 229 252 384Q339 539 525 639L525 659L475 649L36 649L36 705L545 705L545 585Q387 502 309 359Q231 216 231 0L165 0Z"  horiz-adv-x="581" vert-adv-y="1000"  />

      
      <glyph glyph-name="uni38" unicode="&#x38;" d="M56 193Q56 265 95 309.50Q134 354 216 378L216 398Q154 419 125 453.50Q96 488 96 547Q96 629 161 672Q226 715 334 715Q442 715 506.50 672Q571 629 571 547Q571 488 542 453.50Q513 419 451 398L451 378Q533 354 572 309.50Q611 265 611 193Q611 104 537.50 47Q464-10 334-10Q204-10 130 47Q56 104 56 193M162 537Q162 470 205.50 442.50Q249 415 334 415Q418 415 461.50 443Q505 471 505 537Q505 603 461.50 631Q418 659 334 659Q250 659 206 631Q162 603 162 537M122 203Q122 130 175 88Q228 46 334 46Q439 46 492 88Q545 130 545 203Q545 275 492 317Q439 359 334 359Q228 359 175 317Q122 275 122 203Z"  horiz-adv-x="667" vert-adv-y="1000"  />

      
      <glyph glyph-name="uni39" unicode="&#x39;" d="M615 378Q615 288 598.50 216.50Q582 145 547.50 89.50Q513 34 453.50 8Q394-18 313-10L116 10L116 66L313 46Q377 40 423.50 60Q470 80 497 123Q524 166 538 212Q552 258 559 318L579 368L559 368Q542 294 474 247Q406 200 313 200Q199 200 132.50 270.50Q66 341 66 453Q66 569 140 642Q214 715 340 715Q467 715 541 628.50Q615 542 615 378M549 463Q549 540 491.50 599.50Q434 659 340 659Q242 659 187 604.50Q132 550 132 453Q132 364 181.50 310Q231 256 318 256Q416 256 482.50 312.50Q549 369 549 463Z"  horiz-adv-x="681" vert-adv-y="1000"  />

      
      <glyph glyph-name="uni3a" unicode="&#x3a;" d="M218 372.50Q218 372.50 206.50 361.25Q195 350 163 350Q131 350 108.50 372.50Q86 395 86 428Q86 460 108.50 482.50Q131 505 163 505Q195 505 218 482.50Q241 460 241 428Q241 395 218 372.50M218 12.50Q218 12.50 206.50 1.25Q195-10 163-10Q131-10 108.50 12.50Q86 35 86 68Q86 100 108.50 122.50Q131 145 163 145Q195 145 218 122.50Q241 100 241 68Q241 35 218 12.50Z"  horiz-adv-x="327" vert-adv-y="1000"  />

      
      <glyph glyph-name="uni3b" unicode="&#x3b;" d="M218 372.50Q218 372.50 206.50 361.25Q195 350 163 350Q131 350 108.50 372.50Q86 395 86 428Q86 460 108.50 482.50Q131 505 163 505Q195 505 218 482.50Q241 460 241 428Q241 395 218 372.50M120 159L184 142L110-134L46-117L120 159Z"  horiz-adv-x="327" vert-adv-y="1000"  />

      
      <glyph glyph-name="uni3c" unicode="&#x3c;" d="M86 212L86 282L526 434L550 380L158 247L550 116L526 62L86 212Z"  horiz-adv-x="636" vert-adv-y="1000"  />

      
      <glyph glyph-name="uni3d" unicode="&#x3d;" d="M86 376L550 376L550 320L86 320L86 376M86 176L550 176L550 120L86 120L86 176Z"  horiz-adv-x="636" vert-adv-y="1000"  />

      
      <glyph glyph-name="uni3e" unicode="&#x3e;" d="M550 212L110 62L86 116L478 247L86 380L110 434L550 282L550 212Z"  horiz-adv-x="636" vert-adv-y="1000"  />

      
      <glyph glyph-name="uni3f" unicode="&#x3f;" d="M66 500Q66 600 119 657.50Q172 715 268 715Q354 715 400.50 669.50Q447 624 447 544Q447 492 422.50 449.50Q398 407 354 378.50Q310 350 258 331.50Q206 313 143 302L143 288L179 295L387 295L387 239L123 239L123 352Q381 392 381 554Q381 659 269 659Q199 659 165.50 620Q132 581 132 500L66 500M306 12.50Q306 12.50 294.50 1.25Q283-10 251-10Q219-10 196.50 12.50Q174 35 174 68Q174 100 196.50 122.50Q219 145 251 145Q283 145 306 122.50Q329 100 329 68Q329 35 306 12.50Z"  horiz-adv-x="513" vert-adv-y="1000"  />

      
      <glyph glyph-name="uni40" unicode="&#x40;" d="M698 96L698 130L708 180L688 180Q672 117 619.50 78Q567 39 487 39Q380 39 313 111.50Q246 184 246 297Q246 409 313 481.50Q380 554 487 554Q567 554 619.50 515Q672 476 688 413L708 413L698 463L698 515L764 515L764 96L787 96Q908 96 908 291Q908 446 802 552.50Q696 659 530 659Q364 659 253 552Q142 445 142 291Q142 126 253 23.50Q364-79 550-67L876-47L876-103L550-123Q337-136 211.50-18.50Q86 99 86 291Q86 472 211.50 593.50Q337 715 530 715Q722 715 843 594.50Q964 474 964 291Q964 247 955.50 206.50Q947 166 928.50 127Q910 88 873.50 64Q837 40 787 40L753 40Q698 40 698 96M500 95Q586 95 642 145.50Q698 196 698 297Q698 397 642 447.50Q586 498 500 498Q416 498 364 448Q312 398 312 297Q312 195 363.50 145Q415 95 500 95Z"  horiz-adv-x="1050" vert-adv-y="1000"  />

      
      <glyph glyph-name="uni41" unicode="&#x41;" d="M571 0L477 286L195 286L101 0L36 0L268 705L404 705L636 0L571 0M213 342L459 342L346 685L326 685L213 342Z"  horiz-adv-x="672" vert-adv-y="1000"  />

      
      <glyph glyph-name="uni42" unicode="&#x42;" d="M76 0L76 705L250 705Q386 705 451.50 668Q517 631 517 532Q517 463 478.50 424Q440 385 382 381L382 361Q468 359 518.50 316.50Q569 274 569 187Q569 87 501.50 43.50Q434 0 302 0L76 0M142 395L250 395Q353 395 402 421Q451 447 451 522Q451 557 441.50 580.50Q432 604 417 617.50Q402 631 374 638Q346 645 319.50 647Q293 649 250 649L142 649L142 395M142 56L302 56Q405 56 454 85.50Q503 115 503 197Q503 274 452 306.50Q401 339 302 339L142 339L142 56Z"  horiz-adv-x="635" vert-adv-y="1000"  />

      
      <glyph glyph-name="uni43" unicode="&#x43;" d="M66 353Q66 511 153 613Q240 715 389 715Q521 715 603.50 639.50Q686 564 702 433L636 433Q624 541 560.50 600Q497 659 389 659Q264 659 198 574.50Q132 490 132 353Q132 215 198 130.50Q264 46 389 46Q497 46 560.50 105.50Q624 165 636 273L702 273Q686 141 603.50 65.50Q521-10 389-10Q240-10 153 92Q66 194 66 353Z"  horiz-adv-x="768" vert-adv-y="1000"  />

      
      <glyph glyph-name="uni44" unicode="&#x44;" d="M292 705Q338 705 376.50 699.50Q415 694 456.50 681Q498 668 529 642.50Q560 617 586 579.50Q612 542 625.50 484Q639 426 639 353Q639 265 618.50 200Q598 135 566 97.50Q534 60 486 37Q438 14 393 7Q348 0 292 0L76 0L76 705L292 705M292 56Q337 56 370 60.50Q403 65 444 82.50Q485 100 511 130.50Q537 161 555 217.50Q573 274 573 353Q573 431 555 488Q537 545 511 575Q485 605 444 622.50Q403 640 370 644.50Q337 649 292 649L142 649L142 56L292 56Z"  horiz-adv-x="705" vert-adv-y="1000"  />

      
      <glyph glyph-name="uni45" unicode="&#x45;" d="M76 0L76 705L499 705L499 649L142 649L142 381L449 381L449 325L142 325L142 56L499 56L499 0L76 0Z"  horiz-adv-x="555" vert-adv-y="1000"  />

      
      <glyph glyph-name="uni46" unicode="&#x46;" d="M76 0L76 705L529 705L529 649L142 649L142 352L478 372L478 315L142 295L142 0L76 0Z"  horiz-adv-x="585" vert-adv-y="1000"  />

      
      <glyph glyph-name="uni47" unicode="&#x47;" d="M66 353Q66 510 155 612.50Q244 715 394 715Q522 715 593.50 644.50Q665 574 682 453L616 453Q589 659 394 659Q268 659 200 574Q132 489 132 353Q132 261 154.50 194.50Q177 128 232 87Q287 46 371 46Q482 46 533.50 112.50Q585 179 582 317L325 317L325 373L669 373Q724 373 724 324L724 0L658 0L658 267L668 353L648 353Q647-10 371-10Q222-10 144 90.50Q66 191 66 353Z"  horiz-adv-x="800" vert-adv-y="1000"  />

      
      <glyph glyph-name="uni48" unicode="&#x48;" d="M570 705L636 705L636 0L570 0L570 321L142 321L142 0L76 0L76 705L142 705L142 377L570 377L570 705Z"  horiz-adv-x="712" vert-adv-y="1000"  />

      
      <glyph glyph-name="uni49" unicode="&#x49;" d="M446 649L289 649L289 56L446 56L446 0L66 0L66 56L223 56L223 649L66 649L66 705L446 705L446 649Z"  horiz-adv-x="512" vert-adv-y="1000"  />

      
      <glyph glyph-name="uni4a" unicode="&#x4a;" d="M195-10L36 0L36 56L195 46Q279 41 303.50 98Q328 155 328 324L328 659L149 649L149 705L339 715Q365 716 379.50 701.50Q394 687 394 660L394 324Q394 274 393 240.50Q392 207 387.50 167.50Q383 128 374.50 103Q366 78 351.50 53Q337 28 316 15Q295 2 264.50-5.50Q234-13 195-10Z"  horiz-adv-x="460" vert-adv-y="1000"  />

      
      <glyph glyph-name="uni4b" unicode="&#x4b;" d="M615 705L184 353L615 0L520 0L142 310L142 0L76 0L76 705L142 705L142 395L520 705L615 705Z"  horiz-adv-x="651" vert-adv-y="1000"  />

      
      <glyph glyph-name="uni4c" unicode="&#x4c;" d="M131-10Q105-11 90.50 4Q76 19 76 45L76 705L142 705L142 46L499 56L499 0L131-10Z"  horiz-adv-x="535" vert-adv-y="1000"  />

      
      <glyph glyph-name="uni4d" unicode="&#x4d;" d="M76 0L76 705L210 705L430 20L450 20L670 705L804 705L804 0L738 0L738 635L748 685L728 685L508 0L372 0L152 685L132 685L142 635L142 0L76 0Z"  horiz-adv-x="880" vert-adv-y="1000"  />

      
      <glyph glyph-name="uni4e" unicode="&#x4e;" d="M76 0L76 705L211 705L590 20L610 20L600 70L600 705L666 705L666 0L531 0L152 685L132 685L142 635L142 0L76 0Z"  horiz-adv-x="742" vert-adv-y="1000"  />

      
      <glyph glyph-name="uni4f" unicode="&#x4f;" d="M66 353Q66 511 153 613Q240 715 389 715Q538 715 624.50 613Q711 511 711 353Q711 194 624.50 92Q538-10 389-10Q240-10 153 92Q66 194 66 353M132 353Q132 215 198 130.50Q264 46 389 46Q514 46 579.50 130.50Q645 215 645 353Q645 490 579.50 574.50Q514 659 389 659Q264 659 198 574.50Q132 490 132 353Z"  horiz-adv-x="777" vert-adv-y="1000"  />

      
      <glyph glyph-name="uni50" unicode="&#x50;" d="M262 705Q405 705 477 655Q549 605 549 478Q549 351 477 300.50Q405 250 262 250L142 250L142 0L76 0L76 705L262 705M262 306Q314 306 350 312.50Q386 319 418.50 336.50Q451 354 467 389Q483 424 483 478Q483 579 426.50 614Q370 649 262 649L142 649L142 306L262 306Z"  horiz-adv-x="605" vert-adv-y="1000"  />

      
      <glyph glyph-name="uni51" unicode="&#x51;" d="M440-54Q599-49 824-94L824-150Q658-118 519.50-110Q381-102 189-122L180-68Q189-67 224.50-62Q260-57 275.50-54.50Q291-52 323-46.50Q355-41 374.50-35.50Q394-30 419-23Q444-16 464-7Q484 2 500 13L493 23Q452 0 369 0Q238 0 152 102Q66 204 66 358Q66 515 152.50 615Q239 715 389 715Q538 715 624.50 613Q711 511 711 353Q711 266 686.50 194Q662 122 620 74Q578 26 534-4.50Q490-35 440-54M200.50 139.50Q200.50 139.50 234.75 97.75Q269 56 389 56Q509 56 577 137.50Q645 219 645 353Q645 488 576.50 573.50Q508 659 389 659Q269 659 200.50 575.50Q132 492 132 358Q132 223 200.50 139.50Z"  horiz-adv-x="760" vert-adv-y="1000"  />

      
      <glyph glyph-name="uni52" unicode="&#x52;" d="M76 0L76 705L302 705Q438 705 503.50 662.50Q569 620 569 508Q569 363 447 340L447 320L528 320Q555 320 566.50 309Q578 298 578 273L578 0L512 0L512 290L142 290L142 0L76 0M142 346L302 346Q355 346 387 350.50Q419 355 448 370Q477 385 490 416.50Q503 448 503 498Q503 539 493.50 567Q484 595 469 611Q454 627 426.50 635.50Q399 644 371.50 646.50Q344 649 302 649L142 649L142 346Z"  horiz-adv-x="654" vert-adv-y="1000"  />

      
      <glyph glyph-name="uni53" unicode="&#x53;" d="M623 175Q623-10 358-10Q185-10 115.50 60Q46 130 46 262L112 262Q112 137 173 91.50Q234 46 358 46Q456 46 506.50 74.50Q557 103 557 170Q557 192 550.50 210.50Q544 229 535.50 242Q527 255 508.50 268Q490 281 477.50 288.50Q465 296 438.50 305Q412 314 398.50 318.50Q385 323 353.50 331.50Q322 340 311 343Q264 357 233.50 367.50Q203 378 170.50 395Q138 412 120 431.50Q102 451 90 479Q78 507 78 543Q78 715 322 715Q396 715 451 693.50Q506 672 536 636Q566 600 580 559.50Q594 519 594 475L528 475Q528 565 470 612Q412 659 322 659Q144 659 144 547Q144 490 187.50 460Q231 430 331 399Q462 359 498 342Q611 290 622 197Q623 187 623 175Z"  horiz-adv-x="669" vert-adv-y="1000"  />

      
      <glyph glyph-name="uni54" unicode="&#x54;" d="M607 705L607 649L360 649L360 0L294 0L294 649L46 649L46 705L607 705Z"  horiz-adv-x="653" vert-adv-y="1000"  />

      
      <glyph glyph-name="uni55" unicode="&#x55;" d="M56 262L56 705L122 705L122 263Q122 152 170 99Q218 46 327 46Q436 46 484.50 99Q533 152 533 263L533 705L599 705L599 262Q599-10 327-10Q56-10 56 262Z"  horiz-adv-x="655" vert-adv-y="1000"  />

      
      <glyph glyph-name="uni56" unicode="&#x56;" d="M36 705L101 705L326 20L346 20L571 705L636 705L404 0L268 0L36 705Z"  horiz-adv-x="672" vert-adv-y="1000"  />

      
      <glyph glyph-name="uni57" unicode="&#x57;" d="M36 705L98 705L249 20L269 20L424 705L558 705L713 20L733 20L884 705L946 705L790 0L656 0L501 685L481 685L326 0L192 0L36 705Z"  horiz-adv-x="982" vert-adv-y="1000"  />

      
      <glyph glyph-name="uni58" unicode="&#x58;" d="M36 0L282 339L282 367L36 705L111 705L333 395L555 705L630 705L384 367L384 339L630 0L555 0L333 311L111 0L36 0Z"  horiz-adv-x="666" vert-adv-y="1000"  />

      
      <glyph glyph-name="uni59" unicode="&#x59;" d="M539 705L610 705L356 270L356 0L290 0L290 270L36 705L107 705L313 351L313 301L333 301L333 351L539 705Z"  horiz-adv-x="646" vert-adv-y="1000"  />

      
      <glyph glyph-name="uni5a" unicode="&#x5a;" d="M56 0L56 131L573 639L573 659L523 649L56 649L56 705L593 705L593 574L76 66L76 46L126 56L593 56L593 0L56 0Z"  horiz-adv-x="649" vert-adv-y="1000"  />

      
      <glyph glyph-name="uni5b" unicode="&#x5b;" d="M86 705L339 705L339 649L151 649L151-94L339-94L339-150L86-150L86 705Z"  horiz-adv-x="425" vert-adv-y="1000"  />

      
      <glyph glyph-name="uni5c" unicode="&#x5c;" d="M119 814L417-91L364-109L66 796L119 814Z"  horiz-adv-x="483" vert-adv-y="1000"  />

      
      <glyph glyph-name="uni5d" unicode="&#x5d;" d="M339 705L339-150L86-150L86-94L274-94L274 649L86 649L86 705L339 705Z"  horiz-adv-x="425" vert-adv-y="1000"  />

      
      <glyph glyph-name="uni5e" unicode="&#x5e;" d="M387 386L280 685L260 685L152 386L86 386L203 705L337 705L453 386L387 386Z"  horiz-adv-x="539" vert-adv-y="1000"  />

      
      <glyph glyph-name="uni5f" unicode="&#x5f;" d="M66-50L530-50L530-106L66-106L66-50Z"  horiz-adv-x="596" vert-adv-y="1000"  />

      
      <glyph glyph-name="uni60" unicode="&#x60;" d="M390 636L376 582L86 660L100 714L390 636Z"  horiz-adv-x="476" vert-adv-y="1000"  />

      
      <glyph glyph-name="uni61" unicode="&#x61;" d="M56 138Q56 198 94 235.50Q132 273 211 280L417 299Q408 449 269 449Q206 449 164 416.50Q122 384 122 312L56 312Q56 391 112.50 448Q169 505 269 505Q370 505 426.50 442.50Q483 380 483 282L483 56L556 56L556 0L472 0Q417 0 417 55L417 85L427 135L407 135Q391 72 345 31Q299-10 218-10Q168-10 133.50 5Q99 20 83.50 45Q68 70 62 92Q56 114 56 138M122 144Q122 97 149 71.50Q176 46 224 46Q311 46 364 102Q417 158 417 243L221 224Q170 219 146 201Q122 183 122 144Z"  horiz-adv-x="582" vert-adv-y="1000"  />

      
      <glyph glyph-name="uni62" unicode="&#x62;" d="M76 0L76 735L142 735L142 414L132 364L152 364Q168 427 221 466Q274 505 354 505Q461 505 527.50 432.50Q594 360 594 248Q594 135 527.50 62.50Q461-10 354-10Q274-10 221 29Q168 68 152 131L132 131L142 81L142 0L76 0M142 248Q142 147 198 96.50Q254 46 340 46Q425 46 476.50 96Q528 146 528 248Q528 349 476 399Q424 449 340 449Q254 449 198 398.50Q142 348 142 248Z"  horiz-adv-x="650" vert-adv-y="1000"  />

      
      <glyph glyph-name="uni63" unicode="&#x63;" d="M122.50 64.50Q122.50 64.50 89.25 101.75Q56 139 56 248Q56 357 122.50 431Q189 505 305 505Q384 505 451.50 457Q519 409 529 311L462 311Q441 449 305 449Q215 449 168.50 391.50Q122 334 122 248Q122 161 168.50 103.50Q215 46 305 46Q441 46 462 184L529 184Q519 86 451.50 38Q384-10 305-10Q189-10 122.50 64.50Z"  horiz-adv-x="585" vert-adv-y="1000"  />

      
      <glyph glyph-name="uni64" unicode="&#x64;" d="M574 0L508 0L508 81L518 131L498 131Q482 68 429 29Q376-10 296-10Q189-10 122.50 62.50Q56 135 56 248Q56 360 122.50 432.50Q189 505 296 505Q376 505 429 466Q482 427 498 364L518 364L508 414L508 735L574 735L574 0M508 248Q508 348 452 398.50Q396 449 310 449Q226 449 174 399Q122 349 122 248Q122 146 173.50 96Q225 46 310 46Q396 46 452 96.50Q508 147 508 248Z"  horiz-adv-x="650" vert-adv-y="1000"  />

      
      <glyph glyph-name="uni65" unicode="&#x65;" d="M56 254Q56 372 121 438.50Q186 505 291 505Q395 505 455.50 441.50Q516 378 516 264L516 236L122 236Q127 151 169.50 98.50Q212 46 302 46Q436 46 467 173L533 173Q524 140 509.50 111Q495 82 469 53Q443 24 400 7Q357-10 302-10Q178-10 117 64Q56 138 56 254M122 292L450 292Q450 360 407.50 404.50Q365 449 291 449Q217 449 169.50 404Q122 359 122 292Z"  horiz-adv-x="589" vert-adv-y="1000"  />

      
      <glyph glyph-name="uni66" unicode="&#x66;" d="M310 679Q261 679 242.50 656Q224 633 224 582L224 495L368 495L368 439L224 439L224 56L368 56L368 0L46 0L46 56L158 56L158 439L46 439L46 495L158 495L158 583Q158 735 310 735L396 735L396 679L310 679Z"  horiz-adv-x="422" vert-adv-y="1000"  />

      
      <glyph glyph-name="uni67" unicode="&#x67;" d="M581 495L625 495L625 439L581 439Q542 439 513 417Q551 370 551 303Q551 223 492.50 167.50Q434 112 316 68Q376 77 427 75.50Q478 74 511.50 46.50Q545 19 545-34Q545-73 528-99Q511-125 480.50-141Q450-157 391-165.50Q332-174 265-177Q198-180 92-180L92-124Q317-124 398-108Q479-92 479-34Q479-6 462 11Q445 28 415.50 32.50Q386 37 351.50 36Q317 35 276 26Q235 17 201.50 8Q168-1 135-12L118 38Q155 50 228.50 74.50Q302 99 339 111L339 131Q218 103 137 148Q56 193 56 303Q56 402 125 453.50Q194 505 304 505Q399 505 467 459Q511 483 529.50 489Q548 495 581 495M304 156Q485 156 485 303Q485 449 304 449Q122 449 122 303Q122 156 304 156Z"  horiz-adv-x="651" vert-adv-y="1000"  />

      
      <glyph glyph-name="uni68" unicode="&#x68;" d="M343 505Q428 505 476 456.50Q524 408 524 310L524 0L458 0L458 302Q458 380 426.50 414.50Q395 449 328 449Q246 449 194 387.50Q142 326 142 227L142 0L76 0L76 735L142 735L142 404L132 354L152 354Q168 424 216.50 464.50Q265 505 343 505Z"  horiz-adv-x="590" vert-adv-y="1000"  />

      
      <glyph glyph-name="uni69" unicode="&#x69;" d="M261 600Q261 600 251 590Q241 580 213 580Q185 580 165.50 600Q146 620 146 648Q146 675 165.50 695Q185 715 213 715Q241 715 261 695Q281 675 281 648Q281 620 261 600M56 0L56 56L195 56L195 449L96 439L96 495L196 505Q257 510 257 450L257 56L396 56L396 0L56 0Z"  horiz-adv-x="432" vert-adv-y="1000"  />

      
      <glyph glyph-name="uni6a" unicode="&#x6a;" d="M195 600Q195 600 185 590Q175 580 147 580Q119 580 99.50 600Q80 620 80 648Q80 675 99.50 695Q119 715 147 715Q175 715 195 695Q215 675 215 648Q215 620 195 600M26-180L112-26Q129 4 129 42L129 449L26 439L26 495L130 505Q162 508 178.50 493Q195 478 195 450L195 30Q195-8 178-38L97-180L26-180Z"  horiz-adv-x="273" vert-adv-y="1000"  />

      
      <glyph glyph-name="uni6b" unicode="&#x6b;" d="M419 0L245 238L142 180L142 0L76 0L76 735L142 735L142 250L399 395L388 495L454 495L464 408Q468 365 428 342L298 268L494 0L419 0Z"  horiz-adv-x="540" vert-adv-y="1000"  />

      
      <glyph glyph-name="uni6c" unicode="&#x6c;" d="M46 0L46 56L185 56L185 689L86 679L86 735L186 745Q219 749 235 732Q251 715 251 680L251 56L390 56L390 0L46 0Z"  horiz-adv-x="426" vert-adv-y="1000"  />

      
      <glyph glyph-name="uni6d" unicode="&#x6d;" d="M675 505Q747 505 786.50 455Q826 405 826 323L826 0L760 0L760 302Q760 378 736.50 413.50Q713 449 652 449Q576 449 530 387.50Q484 326 484 227L484 0L418 0L418 302Q418 378 394.50 413.50Q371 449 310 449Q234 449 188 387.50Q142 326 142 227L142 0L76 0L76 495L142 495L142 404L132 354L152 354Q186 505 333 505Q398 505 436.50 464Q475 423 482 354L494 354Q528 505 675 505Z"  horiz-adv-x="892" vert-adv-y="1000"  />

      
      <glyph glyph-name="uni6e" unicode="&#x6e;" d="M328 449Q246 449 194 387.50Q142 326 142 227L142 0L76 0L76 495L142 495L142 404L132 354L152 354Q168 424 216.50 464.50Q265 505 343 505Q428 505 476 456.50Q524 408 524 310L524 0L458 0L458 302Q458 380 426.50 414.50Q395 449 328 449Z"  horiz-adv-x="590" vert-adv-y="1000"  />

      
      <glyph glyph-name="uni6f" unicode="&#x6f;" d="M56 248Q56 355 127 430Q198 505 314 505Q429 505 500 430Q571 355 571 248Q571 140 500 65Q429-10 314-10Q198-10 127 65Q56 140 56 248M122 248Q122 162 172.50 104Q223 46 314 46Q404 46 454.50 104.50Q505 163 505 248Q505 333 454.50 391Q404 449 314 449Q224 449 173 391Q122 333 122 248Z"  horiz-adv-x="627" vert-adv-y="1000"  />

      
      <glyph glyph-name="uni70" unicode="&#x70;" d="M76 495L142 495L142 414L132 364L152 364Q168 427 220.50 466Q273 505 353 505Q460 505 527 432.50Q594 360 594 247Q594 135 527 62.50Q460-10 353-10Q273-10 220.50 29Q168 68 152 131L132 131L142 81L142-180L76-180L76 495M142 247Q142 147 198 96.50Q254 46 340 46Q424 46 476 96.50Q528 147 528 247Q528 347 476 398Q424 449 340 449Q254 449 198 398.50Q142 348 142 247Z"  horiz-adv-x="650" vert-adv-y="1000"  />

      
      <glyph glyph-name="uni71" unicode="&#x71;" d="M574 495L574-180L508-180L508 81L518 131L498 131Q482 68 429.50 29Q377-10 297-10Q190-10 123 62.50Q56 135 56 247Q56 360 123 432.50Q190 505 297 505Q377 505 429.50 466Q482 427 498 364L518 364L508 414L508 495L574 495M508 247Q508 348 452 398.50Q396 449 310 449Q226 449 174 398Q122 347 122 247Q122 147 174 96.50Q226 46 310 46Q396 46 452 96.50Q508 147 508 247Z"  horiz-adv-x="650" vert-adv-y="1000"  />

      
      <glyph glyph-name="uni72" unicode="&#x72;" d="M76 0L76 440Q76 508 141 505L406 495L406 439L142 449L142 0L76 0Z"  horiz-adv-x="432" vert-adv-y="1000"  />

      
      <glyph glyph-name="uni73" unicode="&#x73;" d="M453 127Q453 66 409.50 28Q366-10 265-10Q46-10 46 183L112 183Q112 46 265 46Q329 46 358 63.50Q387 81 387 122Q387 135 383 146.50Q379 158 374 166.50Q369 175 358.50 182.50Q348 190 340 195Q332 200 315.50 206Q299 212 289.50 214.50Q280 217 260.50 223Q241 229 231 232Q148 257 108.50 287.50Q69 318 69 377Q69 435 115 470Q161 505 242 505Q296 505 335.50 491Q375 477 396 452.50Q417 428 426.50 400.50Q436 373 436 342L370 342Q370 449 242 449Q135 449 135 381Q135 344 158 326.50Q181 309 246 288Q255 285 282.50 276.50Q310 268 320.50 264.50Q331 261 354 251.50Q377 242 387 235.50Q397 229 412.50 217Q428 205 435 192.50Q442 180 447.50 163.50Q453 147 453 127Z"  horiz-adv-x="489" vert-adv-y="1000"  />

      
      <glyph glyph-name="uni74" unicode="&#x74;" d="M199 45L372 56L372 0L198-10Q165-12 149 4.50Q133 21 133 55L133 439L26 439L26 495L133 495L133 630L199 650L199 495L352 495L352 439L199 439L199 45Z"  horiz-adv-x="418" vert-adv-y="1000"  />

      
      <glyph glyph-name="uni75" unicode="&#x75;" d="M262 46Q344 46 396 107.50Q448 169 448 268L448 495L514 495L514 0L448 0L448 91L458 141L438 141Q422 71 373.50 30.50Q325-10 247-10Q162-10 114 38.50Q66 87 66 185L66 495L132 495L132 193Q132 115 163.50 80.50Q195 46 262 46Z"  horiz-adv-x="580" vert-adv-y="1000"  />

      
      <glyph glyph-name="uni76" unicode="&#x76;" d="M435 495L499 495L330 0L196 0L26 495L90 495L253 20L273 20L435 495Z"  horiz-adv-x="525" vert-adv-y="1000"  />

      
      <glyph glyph-name="uni77" unicode="&#x77;" d="M26 495L89 495L220 20L240 20L353 495L489 495L602 20L622 20L753 495L816 495L679 0L545 0L431 475L411 475L297 0L163 0L26 495Z"  horiz-adv-x="842" vert-adv-y="1000"  />

      
      <glyph glyph-name="uni78" unicode="&#x78;" d="M46 0L232 238L232 258L46 495L124 495L282 288L440 495L518 495L332 258L332 238L518 0L440 0L282 208L124 0L46 0Z"  horiz-adv-x="564" vert-adv-y="1000"  />

      
      <glyph glyph-name="uni79" unicode="&#x79;" d="M468 495L539 495L326 0L326-135Q326-193 261-190L80-180L80-124L260-134L260 0L46 495L117 495L283 87L283 57L303 57L303 87L468 495Z"  horiz-adv-x="575" vert-adv-y="1000"  />

      
      <glyph glyph-name="uni7a" unicode="&#x7a;" d="M56 0L56 126L483 429L483 449L433 439L56 439L56 495L503 495L503 369L76 66L76 46L126 56L503 56L503 0L56 0Z"  horiz-adv-x="559" vert-adv-y="1000"  />

      
      <glyph glyph-name="uni7b" unicode="&#x7b;" d="M271 649L221 659L221 639Q323 606 369 541Q415 476 415 401Q415 347 380 280Q415 213 415 159Q415 84 369 19Q323-46 221-79L221-99L271-89L493-89L493-145L201-145L201-48Q287-10 318 42.50Q349 95 349 169Q349 198 343 223Q284 150 218 150Q163 150 124.50 185Q86 220 86 280Q86 340 124.50 375Q163 410 218 410Q284 410 343 337Q349 362 349 391Q349 465 318 517.50Q287 570 201 608L201 705L493 705L493 649L271 649M223 206Q284 206 323 280Q284 354 223 354Q192 354 172 333Q152 312 152 280Q152 248 172 227Q192 206 223 206Z"  horiz-adv-x="579" vert-adv-y="1000"  />

      
      <glyph glyph-name="uni7c" unicode="&#x7c;" d="M86 853L142 853L142-148L86-148L86 853Z"  horiz-adv-x="228" vert-adv-y="1000"  />

      
      <glyph glyph-name="uni7d" unicode="&#x7d;" d="M361 150Q295 150 236 223Q230 198 230 169Q230 95 261 42.50Q292-10 378-48L378-145L86-145L86-89L308-89L358-99L358-79Q256-46 210 19Q164 84 164 159Q164 213 199 280Q164 347 164 401Q164 476 210 541Q256 606 358 639L358 659L308 649L86 649L86 705L378 705L378 608Q292 570 261 517.50Q230 465 230 391Q230 362 236 337Q295 410 361 410Q416 410 454.50 375Q493 340 493 280Q493 220 454.50 185Q416 150 361 150M356 354Q295 354 256 280Q295 206 356 206Q387 206 407 227Q427 248 427 280Q427 312 407 333Q387 354 356 354Z"  horiz-adv-x="579" vert-adv-y="1000"  />

      
      <glyph glyph-name="uni7e" unicode="&#x7e;" d="M86 190Q86 255 120.50 285.50Q155 316 199 316Q249 316 325.50 276Q402 236 437 236Q494 236 494 306L550 306Q550 241 515.50 210.50Q481 180 437 180Q396 180 352.50 200Q309 220 269.50 240Q230 260 199 260Q142 260 142 190L86 190Z"  horiz-adv-x="636" vert-adv-y="1000"  />

      
      <glyph glyph-name="unia1" unicode="&#xa1;" d="M108.50 482.50Q108.50 482.50 119.75 493.75Q131 505 163 505Q195 505 218 482.50Q241 460 241 427Q241 395 218 372.50Q195 350 163 350Q131 350 108.50 372.50Q86 395 86 427Q86 460 108.50 482.50M131-210L136 256L192 256L197-210L131-210Z"  horiz-adv-x="327" vert-adv-y="1000"  />

      
      <glyph glyph-name="unia2" unicode="&#xa2;" d="M351 152Q472 159 492 289L559 289Q550 196 488.50 148Q427 100 351 96L351-148L295-147L295 98Q196 111 141 182.50Q86 254 86 353Q86 451 141 522.50Q196 594 294 607L294 853L350 852L350 610Q426 605 488 557Q550 509 559 416L492 416Q472 545 350 554L351 152M152 353Q152 277 188.50 222.50Q225 168 295 155L294 550Q224 537 188 482.50Q152 428 152 353Z"  horiz-adv-x="645" vert-adv-y="1000"  />

      
      <glyph glyph-name="unia3" unicode="&#xa3;" d="M394 649Q305 656 265 635Q225 614 225 552Q225 524 233.50 495Q242 466 258 428.50Q274 391 280 371L484 371L484 315L294 315Q297 295 297 274Q297 200 251.50 151.50Q206 103 106 66L106 46L156 56L524 56L524 0L86 0L86 115Q231 165 231 274Q231 292 226 315L86 315L86 371L210 371Q206 381 196.50 405Q187 429 182 442.50Q177 456 171 476Q165 496 162 514.50Q159 533 159 552Q159 603 178 636.50Q197 670 232 685Q267 700 305.50 704.50Q344 709 394 705L524 695L524 639L394 649Z"  horiz-adv-x="610" vert-adv-y="1000"  />

      
      <glyph glyph-name="unia4" unicode="&#xa4;" d="M552 458Q591 405 591 335Q591 265 552 212L692 72L652 32L512 172Q461 133 389 133Q317 133 266 172L126 32L86 72L226 212Q187 265 187 335Q187 405 226 458L86 598L126 638L266 498Q317 537 389 537Q461 537 512 498L652 638L692 598L552 458M284.50 232Q284.50 232 305.25 210.50Q326 189 389 189Q452 189 493.50 232Q535 275 535 335Q535 395 493.50 438Q452 481 389 481Q326 481 284.50 438Q243 395 243 335Q243 275 284.50 232Z"  horiz-adv-x="778" vert-adv-y="1000"  />

      
      <glyph glyph-name="unia5" unicode="&#xa5;" d="M660 705L424 301L572 301L572 245L406 245L406 195L572 195L572 139L406 139L406 0L340 0L340 139L174 139L174 195L340 195L340 245L174 245L174 301L322 301L86 705L157 705L363 351L363 301L383 301L383 351L589 705L660 705Z"  horiz-adv-x="746" vert-adv-y="1000"  />

      
      <glyph glyph-name="unia6" unicode="&#xa6;" d="M86 483L86 853L142 853L142 483L86 483M142 222L142-148L86-148L86 222L142 222Z"  horiz-adv-x="228" vert-adv-y="1000"  />

      
      <glyph glyph-name="unia7" unicode="&#xa7;" d="M86 361Q86 453 182 483Q112 517 112 587Q112 645 158 680Q204 715 285 715Q339 715 378.50 701Q418 687 439 662.50Q460 638 469.50 610.50Q479 583 479 552L413 552Q413 659 285 659Q178 659 178 591Q178 554 201 536.50Q224 519 289 498Q298 495 325.50 486.50Q353 478 363.50 474.50Q374 471 397 461.50Q420 452 430 445.50Q440 439 455.50 427Q471 415 478 402.50Q485 390 490.50 373.50Q496 357 496 337Q496 245 400 215Q470 181 470 111Q470 53 424 18Q378-17 297-17Q243-17 203.50-3Q164 11 143 35.50Q122 60 112.50 87.50Q103 115 103 146L169 146Q169 39 297 39Q404 39 404 107Q404 144 381 161.50Q358 179 293 200Q284 203 256.50 211.50Q229 220 218.50 223.50Q208 227 185 236.50Q162 246 152 252.50Q142 259 126.50 271Q111 283 104 295.50Q97 308 91.50 324.50Q86 341 86 361M152 376Q152 361 155.50 348.50Q159 336 169.50 325Q180 314 186.50 307.50Q193 301 212 292.50Q231 284 238 281Q245 278 269.50 269.50Q294 261 299 259Q358 239 394 258.50Q430 278 430 322Q430 354 407.50 377.50Q385 401 364.50 409.50Q344 418 297 434Q288 437 283 439Q225 459 188.50 439.50Q152 420 152 376Z"  horiz-adv-x="582" vert-adv-y="1000"  />

      
      <glyph glyph-name="unia8" unicode="&#xa8;" d="M201 600Q201 600 191 590Q181 580 153 580Q125 580 105.50 600Q86 620 86 648Q86 675 105.50 695Q125 715 153 715Q181 715 201 695Q221 675 221 648Q221 620 201 600M396 600Q396 600 386 590Q376 580 348 580Q320 580 300.50 600Q281 620 281 648Q281 675 300.50 695Q320 715 348 715Q376 715 396 695Q416 675 416 648Q416 620 396 600Z"  horiz-adv-x="502" vert-adv-y="1000"  />

      
      <glyph glyph-name="unia9" unicode="&#xa9;" d="M747-94.50Q747-94.50 697-123.75Q647-153 520-153Q393-153 293-94.50Q193-36 139.50 62.50Q86 161 86 281Q86 401 139.50 499.50Q193 598 293 656.50Q393 715 520 715Q647 715 747 656.50Q847 598 900.50 499.50Q954 401 954 281Q954 161 900.50 62.50Q847-36 747-94.50M323.50-45Q323.50-45 367.25-71Q411-97 520-97Q629-97 716.50-45Q804 7 851 93Q898 179 898 281Q898 383 851 469Q804 555 716.50 607Q629 659 520 659Q411 659 323.50 607Q236 555 189 469Q142 383 142 281Q142 179 189 93Q236 7 323.50-45M344.50 98.50Q344.50 98.50 311.25 135.75Q278 173 278 282Q278 391 344.50 465Q411 539 527 539Q606 539 673.50 491Q741 443 751 345L684 345Q663 483 527 483Q437 483 390.50 425.50Q344 368 344 282Q344 195 390.50 137.50Q437 80 527 80Q663 80 684 218L751 218Q741 120 673.50 72Q606 24 527 24Q411 24 344.50 98.50Z"  horiz-adv-x="1040" vert-adv-y="1000"  />

      
      <glyph glyph-name="uniab" unicode="&#xab;" d="M401 20L355-20L86 248L355 515L401 475L172 248L401 20M587 20L541-20L272 248L541 515L587 475L358 248L587 20Z"  horiz-adv-x="673" vert-adv-y="1000"  />

      
      <glyph glyph-name="uniac" unicode="&#xac;" d="M550 351L550 120L494 120L494 295L86 295L86 351L550 351Z"  horiz-adv-x="636" vert-adv-y="1000"  />

      
      <glyph glyph-name="uniae" unicode="&#xae;" d="M485 348Q485 348 452.50 314.50Q420 281 318 281Q216 281 151 348Q86 415 86 513Q86 611 151 678Q216 745 318 745Q420 745 485 678Q550 611 550 513Q550 415 485 348M184.50 381.50Q184.50 381.50 210.75 354.25Q237 327 318 327Q399 327 451.50 381.50Q504 436 504 513Q504 590 451.50 644.50Q399 699 318 699Q237 699 184.50 644.50Q132 590 132 513Q132 436 184.50 381.50M219 399L219 630L313 630Q427 630 427 563Q427 537 411.50 526Q396 515 362 512L362 492L402 492Q427 492 427 467L427 399L381 399L381 477L265 477L265 399L219 399M265 523L313 523Q339 523 350.50 524Q362 525 371.50 532Q381 539 381 554Q381 568 371.50 575Q362 582 350.50 583Q339 584 313 584L265 584L265 523Z"  horiz-adv-x="636" vert-adv-y="1000"  />

      
      <glyph glyph-name="uniaf" unicode="&#xaf;" d="M86 676L387 676L387 621L86 620L86 676Z"  horiz-adv-x="473" vert-adv-y="1000"  />

      
      <glyph glyph-name="unib0" unicode="&#xb0;" d="M433.50 399.50Q433.50 399.50 405.25 370.25Q377 341 288 341Q199 341 142.50 399.50Q86 458 86 543Q86 628 142.50 686.50Q199 745 288 745Q377 745 433.50 686.50Q490 628 490 543Q490 458 433.50 399.50M183.50 440Q183.50 440 204.25 418.50Q225 397 288 397Q351 397 392.50 440Q434 483 434 543Q434 603 392.50 646Q351 689 288 689Q225 689 183.50 646Q142 603 142 543Q142 483 183.50 440Z"  horiz-adv-x="576" vert-adv-y="1000"  />

      
      <glyph glyph-name="unib1" unicode="&#xb1;" d="M346 351L550 351L550 295L346 295L346 152L290 152L290 295L86 295L86 351L290 351L290 495L346 495L346 351M86 30L86 86L550 86L550 30L86 30Z"  horiz-adv-x="636" vert-adv-y="1000"  />

      
      <glyph glyph-name="unib4" unicode="&#xb4;" d="M86 636L376 714L390 660L100 582L86 636Z"  horiz-adv-x="476" vert-adv-y="1000"  />

      
      <glyph glyph-name="unib6" unicode="&#xb6;" d="M93.50 552Q93.50 552 89.75 568Q86 584 86 624Q86 664 93.50 696Q101 728 120.50 758Q140 788 172.50 808.50Q205 829 257.50 841Q310 853 380 853L436 853L436-148L380-148L380 395Q310 395 257.50 407Q205 419 172.50 439.50Q140 460 120.50 490Q101 520 93.50 552M496 853L552 853L552-148L496-148L496 853Z"  horiz-adv-x="638" vert-adv-y="1000"  />

      
      <glyph glyph-name="unib7" unicode="&#xb7;" d="M218 192.50Q218 192.50 206.50 181.25Q195 170 163 170Q131 170 108.50 192.50Q86 215 86 248Q86 280 108.50 302.50Q131 325 163 325Q195 325 218 302.50Q241 280 241 248Q241 215 218 192.50Z"  horiz-adv-x="327" vert-adv-y="1000"  />

      
      <glyph glyph-name="unib8" unicode="&#xb8;" d="M220-42Q246-42 263.50-56Q281-70 281-97Q281-148 235-164Q189-180 86-180L86-124Q164-124 194.50-119Q225-114 225-91Q225-70 202-70Q175-70 134-98L102-51L149 0L215 0L159-56Q189-42 220-42Z"  horiz-adv-x="367" vert-adv-y="1000"  />

      
      <glyph glyph-name="unibb" unicode="&#xbb;" d="M86 20L315 248L86 475L132 515L401 248L132-20L86 20M272 20L501 248L272 475L318 515L587 248L318-20L272 20Z"  horiz-adv-x="673" vert-adv-y="1000"  />

      
      <glyph glyph-name="unibc" unicode="&#xbc;" d="M581 814L634 796L336-109L283-91L581 814M46 543Q92 573 110.50 608Q129 643 129 705L261 705L261 290L195 290L195 656L201 685L189 685Q184 613 157.50 565.50Q131 518 69 488L46 543M562 84L562 201Q704 270 731 415L797 415Q787 330 734 259Q681 188 582 146L582 134L612 140L779 140L779 291L845 291L845 140L897 140L897 84L845 84L845 0L779 0L779 84L562 84Z"  horiz-adv-x="943" vert-adv-y="1000"  />

      
      <glyph glyph-name="unibd" unicode="&#xbd;" d="M581 814L634 796L336-109L283-91L581 814M46 543Q92 573 110.50 608Q129 643 129 705L261 705L261 290L195 290L195 656L201 685L189 685Q184 613 157.50 565.50Q131 518 69 488L46 543M592 217Q592 323 646 374Q700 425 780 425Q853 425 895.50 388.50Q938 352 938 285Q938 117 631 62L631 50L661 56L924 56L924 0L611 0L611 111Q630 114 655.50 119.50Q681 125 721 139Q761 153 793 171.50Q825 190 848.50 220Q872 250 872 285Q872 369 781 369Q721 369 689.50 333.50Q658 298 658 217L592 217Z"  horiz-adv-x="984" vert-adv-y="1000"  />

      
      <glyph glyph-name="unibe" unicode="&#xbe;" d="M662 814L715 796L417-109L364-91L662 814M46 451L112 451Q112 389 140 364.50Q168 340 228 340Q329 340 329 413Q329 485 246 485L196 485L196 542L246 542Q323 542 323 601Q323 663 228 663Q170 663 143.50 642Q117 621 117 575L51 575Q51 643 98.50 681Q146 719 228 719Q302 719 345.50 687Q389 655 389 607Q389 571 364 548.50Q339 526 297 519L297 507Q394 487 394 407Q394 351 349 317.50Q304 284 228 284Q143 284 94.50 325.50Q46 367 46 451M665 84L665 201Q807 270 834 415L900 415Q890 330 837 259Q784 188 685 146L685 134L715 140L882 140L882 291L948 291L948 140L1000 140L1000 84L948 84L948 0L882 0L882 84L665 84Z"  horiz-adv-x="1046" vert-adv-y="1000"  />

      
      <glyph glyph-name="unibf" unicode="&#xbf;" d="M217 482.50Q217 482.50 228.50 493.75Q240 505 272 505Q304 505 326.50 482.50Q349 460 349 427Q349 395 326.50 372.50Q304 350 272 350Q240 350 217 372.50Q194 395 194 427Q194 460 217 482.50M457-5Q457-105 404-162.50Q351-220 255-220Q169-220 122.50-174.50Q76-129 76-49Q76 3 100.50 45.50Q125 88 169 116.50Q213 145 265 163.50Q317 182 380 193L380 207L344 200L136 200L136 256L400 256L400 143Q142 103 142-59Q142-164 254-164Q324-164 357.50-125Q391-86 391-5L457-5Z"  horiz-adv-x="523" vert-adv-y="1000"  />

      
      <glyph glyph-name="unic0" unicode="&#xc0;" d="M488 846L474 792L184 870L198 924L488 846M571 0L477 286L195 286L101 0L36 0L268 705L404 705L636 0L571 0M213 342L459 342L346 685L326 685L213 342Z"  horiz-adv-x="672" vert-adv-y="1000"  />

      
      <glyph glyph-name="unic1" unicode="&#xc1;" d="M488 870L198 792L184 846L474 924L488 870M571 0L477 286L195 286L101 0L36 0L268 705L404 705L636 0L571 0M213 342L459 342L346 685L326 685L213 342Z"  horiz-adv-x="672" vert-adv-y="1000"  />

      
      <glyph glyph-name="unic2" unicode="&#xc2;" d="M336 869L225 774L185 814L336 941L487 814L447 774L336 869M571 0L477 286L195 286L101 0L36 0L268 705L404 705L636 0L571 0M213 342L459 342L346 685L326 685L213 342Z"  horiz-adv-x="672" vert-adv-y="1000"  />

      
      <glyph glyph-name="unic3" unicode="&#xc3;" d="M264 870Q244 870 233 855.50Q222 841 222 800L166 800Q166 926 259 926Q287 926 310.50 913.50Q334 901 347.50 886Q361 871 377.50 858.50Q394 846 408 846Q428 846 439 860.50Q450 875 450 916L506 916Q506 790 413 790Q385 790 361.50 802.50Q338 815 324.50 830Q311 845 294.50 857.50Q278 870 264 870M571 0L477 286L195 286L101 0L36 0L268 705L404 705L636 0L571 0M213 342L459 342L346 685L326 685L213 342Z"  horiz-adv-x="672" vert-adv-y="1000"  />

      
      <glyph glyph-name="unic4" unicode="&#xc4;" d="M286 810Q286 810 276 800Q266 790 238 790Q210 790 190.50 810Q171 830 171 858Q171 885 190.50 905Q210 925 238 925Q266 925 286 905Q306 885 306 858Q306 830 286 810M481 810Q481 810 471 800Q461 790 433 790Q405 790 385.50 810Q366 830 366 858Q366 885 385.50 905Q405 925 433 925Q461 925 481 905Q501 885 501 858Q501 830 481 810M571 0L477 286L195 286L101 0L36 0L268 705L404 705L636 0L571 0M213 342L459 342L346 685L326 685L213 342Z"  horiz-adv-x="672" vert-adv-y="1000"  />

      
      <glyph glyph-name="unic5" unicode="&#xc5;" d="M416 802Q416 802 401 786Q386 770 335 770Q284 770 254.50 801.50Q225 833 225 876Q225 918 254.50 949.50Q284 981 335 981Q386 981 416 949.50Q446 918 446 876Q446 834 416 802M375.50 911.50Q375.50 911.50 368.25 918.25Q361 925 335 925Q309 925 295 911.50Q281 898 281 876Q281 826 335 826Q390 826 390 876Q390 898 375.50 911.50M571 0L477 286L195 286L101 0L36 0L268 705L404 705L636 0L571 0M213 342L459 342L346 685L326 685L213 342Z"  horiz-adv-x="672" vert-adv-y="1000"  />

      
      <glyph glyph-name="unic6" unicode="&#xc6;" d="M925 649L568 649L568 381L875 381L875 325L568 325L568 56L925 56L925 0L502 0L502 286L267 286L106 0L36 0L434 705L925 705L925 649M299 342L502 342L502 685L492 685L299 342Z"  horiz-adv-x="981" vert-adv-y="1000"  />

      
      <glyph glyph-name="unic7" unicode="&#xc7;" d="M389 46Q497 46 560.50 105.50Q624 165 636 273L702 273Q687 146 609.50 71Q532-4 408-10L361-56Q391-42 422-42Q448-42 465.50-56Q483-70 483-97Q483-148 437-164Q391-180 288-180L288-124Q366-124 396.50-119Q427-114 427-91Q427-70 404-70Q377-70 336-98L304-51L344-7Q215 8 140.50 107.50Q66 207 66 353Q66 511 153 613Q240 715 389 715Q521 715 603.50 639.50Q686 564 702 433L636 433Q624 541 560.50 600Q497 659 389 659Q264 659 198 574.50Q132 490 132 353Q132 215 198 130.50Q264 46 389 46Z"  horiz-adv-x="768" vert-adv-y="1000"  />

      
      <glyph glyph-name="unic8" unicode="&#xc8;" d="M440 846L426 792L136 870L150 924L440 846M76 0L76 705L499 705L499 649L142 649L142 381L449 381L449 325L142 325L142 56L499 56L499 0L76 0Z"  horiz-adv-x="555" vert-adv-y="1000"  />

      
      <glyph glyph-name="unic9" unicode="&#xc9;" d="M136 846L426 924L440 870L150 792L136 846M76 0L76 705L499 705L499 649L142 649L142 381L449 381L449 325L142 325L142 56L499 56L499 0L76 0Z"  horiz-adv-x="555" vert-adv-y="1000"  />

      
      <glyph glyph-name="unica" unicode="&#xca;" d="M439 814L399 774L288 869L177 774L137 814L288 941L439 814M76 0L76 705L499 705L499 649L142 649L142 381L449 381L449 325L142 325L142 56L499 56L499 0L76 0Z"  horiz-adv-x="555" vert-adv-y="1000"  />

      
      <glyph glyph-name="unicb" unicode="&#xcb;" d="M238 810Q238 810 228 800Q218 790 190 790Q162 790 142.50 810Q123 830 123 858Q123 885 142.50 905Q162 925 190 925Q218 925 238 905Q258 885 258 858Q258 830 238 810M433 810Q433 810 423 800Q413 790 385 790Q357 790 337.50 810Q318 830 318 858Q318 885 337.50 905Q357 925 385 925Q413 925 433 905Q453 885 453 858Q453 830 433 810M76 0L76 705L499 705L499 649L142 649L142 381L449 381L449 325L142 325L142 56L499 56L499 0L76 0Z"  horiz-adv-x="555" vert-adv-y="1000"  />

      
      <glyph glyph-name="unicc" unicode="&#xcc;" d="M408 846L394 792L104 870L118 924L408 846M446 649L289 649L289 56L446 56L446 0L66 0L66 56L223 56L223 649L66 649L66 705L446 705L446 649Z"  horiz-adv-x="512" vert-adv-y="1000"  />

      
      <glyph glyph-name="unicd" unicode="&#xcd;" d="M408 870L118 792L104 846L394 924L408 870M446 649L289 649L289 56L446 56L446 0L66 0L66 56L223 56L223 649L66 649L66 705L446 705L446 649Z"  horiz-adv-x="512" vert-adv-y="1000"  />

      
      <glyph glyph-name="unice" unicode="&#xce;" d="M256 869L145 774L105 814L256 941L407 814L367 774L256 869M446 649L289 649L289 56L446 56L446 0L66 0L66 56L223 56L223 649L66 649L66 705L446 705L446 649Z"  horiz-adv-x="512" vert-adv-y="1000"  />

      
      <glyph glyph-name="unicf" unicode="&#xcf;" d="M206 810Q206 810 196 800Q186 790 158 790Q130 790 110.50 810Q91 830 91 858Q91 885 110.50 905Q130 925 158 925Q186 925 206 905Q226 885 226 858Q226 830 206 810M401 810Q401 810 391 800Q381 790 353 790Q325 790 305.50 810Q286 830 286 858Q286 885 305.50 905Q325 925 353 925Q381 925 401 905Q421 885 421 858Q421 830 401 810M446 649L289 649L289 56L446 56L446 0L66 0L66 56L223 56L223 649L66 649L66 705L446 705L446 649Z"  horiz-adv-x="512" vert-adv-y="1000"  />

      
      <glyph glyph-name="unid0" unicode="&#xd0;" d="M352 705Q398 705 436.50 699.50Q475 694 516.50 681Q558 668 589 642.50Q620 617 646 579.50Q672 542 685.50 484Q699 426 699 353Q699 265 678.50 200Q658 135 626 97.50Q594 60 546 37Q498 14 453 7Q408 0 352 0L136 0L136 337L66 337L66 393L136 393L136 705L352 705M352 56Q397 56 430 60.50Q463 65 504 82.50Q545 100 571 130.50Q597 161 615 217.50Q633 274 633 353Q633 431 615 488Q597 545 571 575Q545 605 504 622.50Q463 640 430 644.50Q397 649 352 649L202 649L202 393L404 393L404 337L202 337L202 56L352 56Z"  horiz-adv-x="765" vert-adv-y="1000"  />

      
      <glyph glyph-name="unid1" unicode="&#xd1;" d="M221 800Q221 926 314 926Q342 926 365.50 913.50Q389 901 402.50 886Q416 871 432.50 858.50Q449 846 463 846Q483 846 494 860.50Q505 875 505 916L561 916Q561 790 468 790Q440 790 416.50 802.50Q393 815 379.50 830Q366 845 349.50 857.50Q333 870 319 870Q299 870 288 855.50Q277 841 277 800L221 800M76 0L76 705L211 705L590 20L610 20L600 70L600 705L666 705L666 0L531 0L152 685L132 685L142 635L142 0L76 0Z"  horiz-adv-x="742" vert-adv-y="1000"  />

      
      <glyph glyph-name="unid2" unicode="&#xd2;" d="M541 846L527 792L237 870L251 924L541 846M66 353Q66 511 153 613Q240 715 389 715Q538 715 624.50 613Q711 511 711 353Q711 194 624.50 92Q538-10 389-10Q240-10 153 92Q66 194 66 353M132 353Q132 215 198 130.50Q264 46 389 46Q514 46 579.50 130.50Q645 215 645 353Q645 490 579.50 574.50Q514 659 389 659Q264 659 198 574.50Q132 490 132 353Z"  horiz-adv-x="777" vert-adv-y="1000"  />

      
      <glyph glyph-name="unid3" unicode="&#xd3;" d="M237 846L527 924L541 870L251 792L237 846M66 353Q66 511 153 613Q240 715 389 715Q538 715 624.50 613Q711 511 711 353Q711 194 624.50 92Q538-10 389-10Q240-10 153 92Q66 194 66 353M132 353Q132 215 198 130.50Q264 46 389 46Q514 46 579.50 130.50Q645 215 645 353Q645 490 579.50 574.50Q514 659 389 659Q264 659 198 574.50Q132 490 132 353Z"  horiz-adv-x="777" vert-adv-y="1000"  />

      
      <glyph glyph-name="unid4" unicode="&#xd4;" d="M540 814L500 774L389 869L278 774L238 814L389 941L540 814M66 353Q66 511 153 613Q240 715 389 715Q538 715 624.50 613Q711 511 711 353Q711 194 624.50 92Q538-10 389-10Q240-10 153 92Q66 194 66 353M132 353Q132 215 198 130.50Q264 46 389 46Q514 46 579.50 130.50Q645 215 645 353Q645 490 579.50 574.50Q514 659 389 659Q264 659 198 574.50Q132 490 132 353Z"  horiz-adv-x="777" vert-adv-y="1000"  />

      
      <glyph glyph-name="unid5" unicode="&#xd5;" d="M219 800Q219 926 312 926Q340 926 363.50 913.50Q387 901 400.50 886Q414 871 430.50 858.50Q447 846 461 846Q481 846 492 860.50Q503 875 503 916L559 916Q559 790 466 790Q438 790 414.50 802.50Q391 815 377.50 830Q364 845 347.50 857.50Q331 870 317 870Q297 870 286 855.50Q275 841 275 800L219 800M66 353Q66 511 153 613Q240 715 389 715Q538 715 624.50 613Q711 511 711 353Q711 194 624.50 92Q538-10 389-10Q240-10 153 92Q66 194 66 353M132 353Q132 215 198 130.50Q264 46 389 46Q514 46 579.50 130.50Q645 215 645 353Q645 490 579.50 574.50Q514 659 389 659Q264 659 198 574.50Q132 490 132 353Z"  horiz-adv-x="777" vert-adv-y="1000"  />

      
      <glyph glyph-name="unid6" unicode="&#xd6;" d="M339 810Q339 810 329 800Q319 790 291 790Q263 790 243.50 810Q224 830 224 858Q224 885 243.50 905Q263 925 291 925Q319 925 339 905Q359 885 359 858Q359 830 339 810M534 810Q534 810 524 800Q514 790 486 790Q458 790 438.50 810Q419 830 419 858Q419 885 438.50 905Q458 925 486 925Q514 925 534 905Q554 885 554 858Q554 830 534 810M66 353Q66 511 153 613Q240 715 389 715Q538 715 624.50 613Q711 511 711 353Q711 194 624.50 92Q538-10 389-10Q240-10 153 92Q66 194 66 353M132 353Q132 215 198 130.50Q264 46 389 46Q514 46 579.50 130.50Q645 215 645 353Q645 490 579.50 574.50Q514 659 389 659Q264 659 198 574.50Q132 490 132 353Z"  horiz-adv-x="777" vert-adv-y="1000"  />

      
      <glyph glyph-name="unid7" unicode="&#xd7;" d="M454 393L310 249L454 104L414 65L270 209L126 65L86 104L231 249L86 393L126 432L270 288L414 432L454 393Z"  horiz-adv-x="540" vert-adv-y="1000"  />

      
      <glyph glyph-name="unid8" unicode="&#xd8;" d="M591 645Q649 596 680 520Q711 444 711 352Q711 193 624.50 91Q538-11 389-11Q300-11 233 27L183-59L135-31L186 58Q128 107 97 183.50Q66 260 66 352Q66 510 153 612Q240 714 389 714Q476 714 544 677L594 763L643 735L591 645M132 352Q132 193 216 109L516 628Q461 658 389 658Q264 658 198 573.50Q132 489 132 352M389 45Q514 45 579.50 129.50Q645 214 645 352Q645 513 561 594L261 76Q315 45 389 45Z"  horiz-adv-x="777" vert-adv-y="1000"  />

      
      <glyph glyph-name="unid9" unicode="&#xd9;" d="M479 846L465 792L175 870L189 924L479 846M56 262L56 705L122 705L122 263Q122 152 170 99Q218 46 327 46Q436 46 484.50 99Q533 152 533 263L533 705L599 705L599 262Q599-10 327-10Q56-10 56 262Z"  horiz-adv-x="655" vert-adv-y="1000"  />

      
      <glyph glyph-name="unida" unicode="&#xda;" d="M175 846L465 924L479 870L189 792L175 846M56 262L56 705L122 705L122 263Q122 152 170 99Q218 46 327 46Q436 46 484.50 99Q533 152 533 263L533 705L599 705L599 262Q599-10 327-10Q56-10 56 262Z"  horiz-adv-x="655" vert-adv-y="1000"  />

      
      <glyph glyph-name="unidb" unicode="&#xdb;" d="M478 814L438 774L327 869L216 774L176 814L327 941L478 814M56 262L56 705L122 705L122 263Q122 152 170 99Q218 46 327 46Q436 46 484.50 99Q533 152 533 263L533 705L599 705L599 262Q599-10 327-10Q56-10 56 262Z"  horiz-adv-x="655" vert-adv-y="1000"  />

      
      <glyph glyph-name="unidc" unicode="&#xdc;" d="M277 810Q277 810 267 800Q257 790 229 790Q201 790 181.50 810Q162 830 162 858Q162 885 181.50 905Q201 925 229 925Q257 925 277 905Q297 885 297 858Q297 830 277 810M472 810Q472 810 462 800Q452 790 424 790Q396 790 376.50 810Q357 830 357 858Q357 885 376.50 905Q396 925 424 925Q452 925 472 905Q492 885 492 858Q492 830 472 810M56 262L56 705L122 705L122 263Q122 152 170 99Q218 46 327 46Q436 46 484.50 99Q533 152 533 263L533 705L599 705L599 262Q599-10 327-10Q56-10 56 262Z"  horiz-adv-x="655" vert-adv-y="1000"  />

      
      <glyph glyph-name="unidd" unicode="&#xdd;" d="M171 846L461 924L475 870L185 792L171 846M539 705L610 705L356 270L356 0L290 0L290 270L36 705L107 705L313 351L313 301L333 301L333 351L539 705Z"  horiz-adv-x="646" vert-adv-y="1000"  />

      
      <glyph glyph-name="unide" unicode="&#xde;" d="M262 580Q405 580 477 530Q549 480 549 353Q549 226 477 175.50Q405 125 262 125L142 125L142 0L76 0L76 705L142 705L142 580L262 580M262 181Q314 181 350 187.50Q386 194 418.50 211.50Q451 229 467 264Q483 299 483 353Q483 454 426.50 489Q370 524 262 524L142 524L142 181L262 181Z"  horiz-adv-x="605" vert-adv-y="1000"  />

      
      <glyph glyph-name="unidf" unicode="&#xdf;" d="M198 0L198 56L302 47Q363 42 393 72.50Q423 103 423 156Q423 200 402.50 227.50Q382 255 352 268.50Q322 282 292.50 294Q263 306 242.50 329.50Q222 353 222 390Q222 421 234.50 444.50Q247 468 264.50 482Q282 496 299 509Q316 522 328.50 540Q341 558 341 582Q341 659 257 659Q200 659 171 628.50Q142 598 142 508L142 0L76 0L76 518Q76 624 128 669.50Q180 715 257 715Q329 715 368 676.50Q407 638 407 582Q407 550 394.50 526Q382 502 364.50 488Q347 474 330 462Q313 450 300.50 434.50Q288 419 288 400Q288 380 303 365Q318 350 340 341.50Q362 333 388.50 318.50Q415 304 437 287Q459 270 474 236Q489 202 489 156Q489 70 437 26Q385-18 302-10L198 0Z"  horiz-adv-x="525" vert-adv-y="1000"  />

      
      <glyph glyph-name="unie0" unicode="&#xe0;" d="M431 636L417 582L127 660L141 714L431 636M56 138Q56 198 94 235.50Q132 273 211 280L417 299Q408 449 269 449Q206 449 164 416.50Q122 384 122 312L56 312Q56 391 112.50 448Q169 505 269 505Q370 505 426.50 442.50Q483 380 483 282L483 56L556 56L556 0L472 0Q417 0 417 55L417 85L427 135L407 135Q391 72 345 31Q299-10 218-10Q168-10 133.50 5Q99 20 83.50 45Q68 70 62 92Q56 114 56 138M122 144Q122 97 149 71.50Q176 46 224 46Q311 46 364 102Q417 158 417 243L221 224Q170 219 146 201Q122 183 122 144Z"  horiz-adv-x="582" vert-adv-y="1000"  />

      
      <glyph glyph-name="unie1" unicode="&#xe1;" d="M127 636L417 714L431 660L141 582L127 636M56 138Q56 198 94 235.50Q132 273 211 280L417 299Q408 449 269 449Q206 449 164 416.50Q122 384 122 312L56 312Q56 391 112.50 448Q169 505 269 505Q370 505 426.50 442.50Q483 380 483 282L483 56L556 56L556 0L472 0Q417 0 417 55L417 85L427 135L407 135Q391 72 345 31Q299-10 218-10Q168-10 133.50 5Q99 20 83.50 45Q68 70 62 92Q56 114 56 138M122 144Q122 97 149 71.50Q176 46 224 46Q311 46 364 102Q417 158 417 243L221 224Q170 219 146 201Q122 183 122 144Z"  horiz-adv-x="582" vert-adv-y="1000"  />

      
      <glyph glyph-name="unie2" unicode="&#xe2;" d="M430 604L390 564L279 659L168 564L128 604L279 731L430 604M56 138Q56 198 94 235.50Q132 273 211 280L417 299Q408 449 269 449Q206 449 164 416.50Q122 384 122 312L56 312Q56 391 112.50 448Q169 505 269 505Q370 505 426.50 442.50Q483 380 483 282L483 56L556 56L556 0L472 0Q417 0 417 55L417 85L427 135L407 135Q391 72 345 31Q299-10 218-10Q168-10 133.50 5Q99 20 83.50 45Q68 70 62 92Q56 114 56 138M122 144Q122 97 149 71.50Q176 46 224 46Q311 46 364 102Q417 158 417 243L221 224Q170 219 146 201Q122 183 122 144Z"  horiz-adv-x="582" vert-adv-y="1000"  />

      
      <glyph glyph-name="unie3" unicode="&#xe3;" d="M109 590Q109 716 202 716Q230 716 253.50 703.50Q277 691 290.50 676Q304 661 320.50 648.50Q337 636 351 636Q371 636 382 650.50Q393 665 393 706L449 706Q449 580 356 580Q328 580 304.50 592.50Q281 605 267.50 620Q254 635 237.50 647.50Q221 660 207 660Q187 660 176 645.50Q165 631 165 590L109 590M56 138Q56 198 94 235.50Q132 273 211 280L417 299Q408 449 269 449Q206 449 164 416.50Q122 384 122 312L56 312Q56 391 112.50 448Q169 505 269 505Q370 505 426.50 442.50Q483 380 483 282L483 56L556 56L556 0L472 0Q417 0 417 55L417 85L427 135L407 135Q391 72 345 31Q299-10 218-10Q168-10 133.50 5Q99 20 83.50 45Q68 70 62 92Q56 114 56 138M122 144Q122 97 149 71.50Q176 46 224 46Q311 46 364 102Q417 158 417 243L221 224Q170 219 146 201Q122 183 122 144Z"  horiz-adv-x="582" vert-adv-y="1000"  />

      
      <glyph glyph-name="unie4" unicode="&#xe4;" d="M229 600Q229 600 219 590Q209 580 181 580Q153 580 133.50 600Q114 620 114 648Q114 675 133.50 695Q153 715 181 715Q209 715 229 695Q249 675 249 648Q249 620 229 600M424 600Q424 600 414 590Q404 580 376 580Q348 580 328.50 600Q309 620 309 648Q309 675 328.50 695Q348 715 376 715Q404 715 424 695Q444 675 444 648Q444 620 424 600M56 138Q56 198 94 235.50Q132 273 211 280L417 299Q408 449 269 449Q206 449 164 416.50Q122 384 122 312L56 312Q56 391 112.50 448Q169 505 269 505Q370 505 426.50 442.50Q483 380 483 282L483 56L556 56L556 0L472 0Q417 0 417 55L417 85L427 135L407 135Q391 72 345 31Q299-10 218-10Q168-10 133.50 5Q99 20 83.50 45Q68 70 62 92Q56 114 56 138M122 144Q122 97 149 71.50Q176 46 224 46Q311 46 364 102Q417 158 417 243L221 224Q170 219 146 201Q122 183 122 144Z"  horiz-adv-x="582" vert-adv-y="1000"  />

      
      <glyph glyph-name="unie5" unicode="&#xe5;" d="M359 592Q359 592 344 576Q329 560 278 560Q227 560 197.50 591.50Q168 623 168 666Q168 708 197.50 739.50Q227 771 278 771Q329 771 359 739.50Q389 708 389 666Q389 624 359 592M278 616Q333 616 333 666Q333 688 318.50 701.50Q304 715 278 715Q252 715 238 701.50Q224 688 224 666Q224 616 278 616M56 138Q56 198 94 235.50Q132 273 211 280L417 299Q408 449 269 449Q206 449 164 416.50Q122 384 122 312L56 312Q56 391 112.50 448Q169 505 269 505Q370 505 426.50 442.50Q483 380 483 282L483 56L556 56L556 0L472 0Q417 0 417 55L417 85L427 135L407 135Q391 72 345 31Q299-10 218-10Q168-10 133.50 5Q99 20 83.50 45Q68 70 62 92Q56 114 56 138M122 144Q122 97 149 71.50Q176 46 224 46Q311 46 364 102Q417 158 417 243L221 224Q170 219 146 201Q122 183 122 144Z"  horiz-adv-x="582" vert-adv-y="1000"  />

      
      <glyph glyph-name="unie6" unicode="&#xe6;" d="M838 173L904 173Q895 140 880.50 111Q866 82 840 53Q814 24 771 7Q728-10 673-10Q502-10 447 135L437 135Q413 74 356 32Q299-10 218-10Q168-10 133.50 5Q99 20 83.50 45Q68 70 62 92Q56 114 56 138Q56 198 94 235.50Q132 273 211 280L417 299Q408 449 269 449Q206 449 164 416.50Q122 384 122 312L56 312Q56 391 112.50 448Q169 505 269 505Q406 505 459 394Q521 505 662 505Q766 505 826.50 441.50Q887 378 887 264L887 236L493 236Q498 151 540.50 98.50Q583 46 673 46Q807 46 838 173M778.50 404.50Q778.50 404.50 757.25 426.75Q736 449 662 449Q588 449 540.50 404Q493 359 493 292L821 292Q821 360 778.50 404.50M224 46Q311 46 364 102Q417 158 417 243L221 224Q170 219 146 201Q122 183 122 144Q122 97 149 71.50Q176 46 224 46Z"  horiz-adv-x="960" vert-adv-y="1000"  />

      
      <glyph glyph-name="unie7" unicode="&#xe7;" d="M305 46Q441 46 462 184L529 184Q523 119 487 74Q451 29 407.50 10.50Q364-8 316-10L270-56Q300-42 331-42Q357-42 374.50-56Q392-70 392-97Q392-148 346-164Q300-180 197-180L197-124Q275-124 305.50-119Q336-114 336-91Q336-70 313-70Q286-70 245-98L213-51L255-6Q161 10 108.50 81Q56 152 56 248Q56 357 122.50 431Q189 505 305 505Q384 505 451.50 457Q519 409 529 311L462 311Q441 449 305 449Q215 449 168.50 391.50Q122 334 122 248Q122 161 168.50 103.50Q215 46 305 46Z"  horiz-adv-x="585" vert-adv-y="1000"  />

      
      <glyph glyph-name="unie8" unicode="&#xe8;" d="M447 636L433 582L143 660L157 714L447 636M56 254Q56 372 121 438.50Q186 505 291 505Q395 505 455.50 441.50Q516 378 516 264L516 236L122 236Q127 151 169.50 98.50Q212 46 302 46Q436 46 467 173L533 173Q524 140 509.50 111Q495 82 469 53Q443 24 400 7Q357-10 302-10Q178-10 117 64Q56 138 56 254M122 292L450 292Q450 360 407.50 404.50Q365 449 291 449Q217 449 169.50 404Q122 359 122 292Z"  horiz-adv-x="589" vert-adv-y="1000"  />

      
      <glyph glyph-name="unie9" unicode="&#xe9;" d="M143 636L433 714L447 660L157 582L143 636M56 254Q56 372 121 438.50Q186 505 291 505Q395 505 455.50 441.50Q516 378 516 264L516 236L122 236Q127 151 169.50 98.50Q212 46 302 46Q436 46 467 173L533 173Q524 140 509.50 111Q495 82 469 53Q443 24 400 7Q357-10 302-10Q178-10 117 64Q56 138 56 254M122 292L450 292Q450 360 407.50 404.50Q365 449 291 449Q217 449 169.50 404Q122 359 122 292Z"  horiz-adv-x="589" vert-adv-y="1000"  />

      
      <glyph glyph-name="uniea" unicode="&#xea;" d="M446 604L406 564L295 659L184 564L144 604L295 731L446 604M56 254Q56 372 121 438.50Q186 505 291 505Q395 505 455.50 441.50Q516 378 516 264L516 236L122 236Q127 151 169.50 98.50Q212 46 302 46Q436 46 467 173L533 173Q524 140 509.50 111Q495 82 469 53Q443 24 400 7Q357-10 302-10Q178-10 117 64Q56 138 56 254M122 292L450 292Q450 360 407.50 404.50Q365 449 291 449Q217 449 169.50 404Q122 359 122 292Z"  horiz-adv-x="589" vert-adv-y="1000"  />

      
      <glyph glyph-name="unieb" unicode="&#xeb;" d="M245 600Q245 600 235 590Q225 580 197 580Q169 580 149.50 600Q130 620 130 648Q130 675 149.50 695Q169 715 197 715Q225 715 245 695Q265 675 265 648Q265 620 245 600M440 600Q440 600 430 590Q420 580 392 580Q364 580 344.50 600Q325 620 325 648Q325 675 344.50 695Q364 715 392 715Q420 715 440 695Q460 675 460 648Q460 620 440 600M56 254Q56 372 121 438.50Q186 505 291 505Q395 505 455.50 441.50Q516 378 516 264L516 236L122 236Q127 151 169.50 98.50Q212 46 302 46Q436 46 467 173L533 173Q524 140 509.50 111Q495 82 469 53Q443 24 400 7Q357-10 302-10Q178-10 117 64Q56 138 56 254M122 292L450 292Q450 360 407.50 404.50Q365 449 291 449Q217 449 169.50 404Q122 359 122 292Z"  horiz-adv-x="589" vert-adv-y="1000"  />

      
      <glyph glyph-name="uniec" unicode="&#xec;" d="M342 636L328 582L38 660L52 714L342 636M56 0L56 56L197 56L197 449L96 439L96 495L194 505Q227 509 241 492Q255 475 255 440L255 56L396 56L396 0L56 0Z"  horiz-adv-x="432" vert-adv-y="1000"  />

      
      <glyph glyph-name="unied" unicode="&#xed;" d="M38 636L328 714L342 660L52 582L38 636M56 0L56 56L197 56L197 449L96 439L96 495L194 505Q227 509 241 492Q255 475 255 440L255 56L396 56L396 0L56 0Z"  horiz-adv-x="432" vert-adv-y="1000"  />

      
      <glyph glyph-name="uniee" unicode="&#xee;" d="M341 604L301 564L190 659L79 564L39 604L190 731L341 604M56 0L56 56L197 56L197 449L96 439L96 495L194 505Q227 509 241 492Q255 475 255 440L255 56L396 56L396 0L56 0Z"  horiz-adv-x="432" vert-adv-y="1000"  />

      
      <glyph glyph-name="unief" unicode="&#xef;" d="M140 600Q140 600 130 590Q120 580 92 580Q64 580 44.50 600Q25 620 25 648Q25 675 44.50 695Q64 715 92 715Q120 715 140 695Q160 675 160 648Q160 620 140 600M335 600Q335 600 325 590Q315 580 287 580Q259 580 239.50 600Q220 620 220 648Q220 675 239.50 695Q259 715 287 715Q315 715 335 695Q355 675 355 648Q355 620 335 600M56 0L56 56L197 56L197 449L96 439L96 495L194 505Q227 509 241 492Q255 475 255 440L255 56L396 56L396 0L56 0Z"  horiz-adv-x="432" vert-adv-y="1000"  />

      
      <glyph glyph-name="unif0" unicode="&#xf0;" d="M413 641Q585 524 585 319Q585 165 513 77.50Q441-10 317-10Q193-10 124.50 62.50Q56 135 56 252Q56 363 124.50 434Q193 505 308 505Q393 505 453 455Q513 405 529 318L549 318L539 368Q522 523 356 612L220 544L184 592L287 644Q221 669 147 679L147 735Q259 722 352 676L469 735L505 687L413 641M317 46Q411 46 465 106.50Q519 167 519 252Q519 341 461 395Q403 449 308 449Q221 449 171.50 395Q122 341 122 252Q122 154 171.50 100Q221 46 317 46Z"  horiz-adv-x="641" vert-adv-y="1000"  />

      
      <glyph glyph-name="unif1" unicode="&#xf1;" d="M150 590Q150 716 243 716Q271 716 294.50 703.50Q318 691 331.50 676Q345 661 361.50 648.50Q378 636 392 636Q412 636 423 650.50Q434 665 434 706L490 706Q490 580 397 580Q369 580 345.50 592.50Q322 605 308.50 620Q295 635 278.50 647.50Q262 660 248 660Q228 660 217 645.50Q206 631 206 590L150 590M328 449Q246 449 194 387.50Q142 326 142 227L142 0L76 0L76 495L142 495L142 404L132 354L152 354Q168 424 216.50 464.50Q265 505 343 505Q428 505 476 456.50Q524 408 524 310L524 0L458 0L458 302Q458 380 426.50 414.50Q395 449 328 449Z"  horiz-adv-x="590" vert-adv-y="1000"  />

      
      <glyph glyph-name="unif2" unicode="&#xf2;" d="M466 636L452 582L162 660L176 714L466 636M56 248Q56 355 127 430Q198 505 314 505Q429 505 500 430Q571 355 571 248Q571 140 500 65Q429-10 314-10Q198-10 127 65Q56 140 56 248M122 248Q122 162 172.50 104Q223 46 314 46Q404 46 454.50 104.50Q505 163 505 248Q505 333 454.50 391Q404 449 314 449Q224 449 173 391Q122 333 122 248Z"  horiz-adv-x="627" vert-adv-y="1000"  />

      
      <glyph glyph-name="unif3" unicode="&#xf3;" d="M162 636L452 714L466 660L176 582L162 636M56 248Q56 355 127 430Q198 505 314 505Q429 505 500 430Q571 355 571 248Q571 140 500 65Q429-10 314-10Q198-10 127 65Q56 140 56 248M122 248Q122 162 172.50 104Q223 46 314 46Q404 46 454.50 104.50Q505 163 505 248Q505 333 454.50 391Q404 449 314 449Q224 449 173 391Q122 333 122 248Z"  horiz-adv-x="627" vert-adv-y="1000"  />

      
      <glyph glyph-name="unif4" unicode="&#xf4;" d="M465 604L425 564L314 659L203 564L163 604L314 731L465 604M56 248Q56 355 127 430Q198 505 314 505Q429 505 500 430Q571 355 571 248Q571 140 500 65Q429-10 314-10Q198-10 127 65Q56 140 56 248M122 248Q122 162 172.50 104Q223 46 314 46Q404 46 454.50 104.50Q505 163 505 248Q505 333 454.50 391Q404 449 314 449Q224 449 173 391Q122 333 122 248Z"  horiz-adv-x="627" vert-adv-y="1000"  />

      
      <glyph glyph-name="unif5" unicode="&#xf5;" d="M144 590Q144 716 237 716Q265 716 288.50 703.50Q312 691 325.50 676Q339 661 355.50 648.50Q372 636 386 636Q406 636 417 650.50Q428 665 428 706L484 706Q484 580 391 580Q363 580 339.50 592.50Q316 605 302.50 620Q289 635 272.50 647.50Q256 660 242 660Q222 660 211 645.50Q200 631 200 590L144 590M56 248Q56 355 127 430Q198 505 314 505Q429 505 500 430Q571 355 571 248Q571 140 500 65Q429-10 314-10Q198-10 127 65Q56 140 56 248M122 248Q122 162 172.50 104Q223 46 314 46Q404 46 454.50 104.50Q505 163 505 248Q505 333 454.50 391Q404 449 314 449Q224 449 173 391Q122 333 122 248Z"  horiz-adv-x="627" vert-adv-y="1000"  />

      
      <glyph glyph-name="unif6" unicode="&#xf6;" d="M264 600Q264 600 254 590Q244 580 216 580Q188 580 168.50 600Q149 620 149 648Q149 675 168.50 695Q188 715 216 715Q244 715 264 695Q284 675 284 648Q284 620 264 600M459 600Q459 600 449 590Q439 580 411 580Q383 580 363.50 600Q344 620 344 648Q344 675 363.50 695Q383 715 411 715Q439 715 459 695Q479 675 479 648Q479 620 459 600M56 248Q56 355 127 430Q198 505 314 505Q429 505 500 430Q571 355 571 248Q571 140 500 65Q429-10 314-10Q198-10 127 65Q56 140 56 248M122 248Q122 162 172.50 104Q223 46 314 46Q404 46 454.50 104.50Q505 163 505 248Q505 333 454.50 391Q404 449 314 449Q224 449 173 391Q122 333 122 248Z"  horiz-adv-x="627" vert-adv-y="1000"  />

      
      <glyph glyph-name="unif7" unicode="&#xf7;" d="M373 373.50Q373 373.50 361.50 362.25Q350 351 318 351Q286 351 263.50 373.50Q241 396 241 429Q241 461 263.50 483.50Q286 506 318 506Q350 506 373 483.50Q396 461 396 429Q396 396 373 373.50M86 276L550 276L550 220L86 220L86 276M373 12.50Q373 12.50 361.50 1.25Q350-10 318-10Q286-10 263.50 12.50Q241 35 241 68Q241 100 263.50 122.50Q286 145 318 145Q350 145 373 122.50Q396 100 396 68Q396 35 373 12.50Z"  horiz-adv-x="636" vert-adv-y="1000"  />

      
      <glyph glyph-name="unif8" unicode="&#xf8;" d="M468 458Q517 422 544 367Q571 312 571 248Q571 140 500 65Q429-10 314-10Q257-10 208 10L173-51L125-24L160 37Q111 72 83.50 127.50Q56 183 56 248Q56 355 127 430Q198 505 314 505Q371 505 419 485L454 545L503 518L468 458M122 248Q122 144 190 88L391 435Q355 449 314 449Q224 449 173 391Q122 333 122 248M314 46Q404 46 454.50 104.50Q505 163 505 248Q505 350 438 406L237 60Q273 46 314 46Z"  horiz-adv-x="627" vert-adv-y="1000"  />

      
      <glyph glyph-name="unif9" unicode="&#xf9;" d="M452 636L438 582L148 660L162 714L452 636M262 46Q344 46 396 107.50Q448 169 448 268L448 495L514 495L514 0L448 0L448 91L458 141L438 141Q422 71 373.50 30.50Q325-10 247-10Q162-10 114 38.50Q66 87 66 185L66 495L132 495L132 193Q132 115 163.50 80.50Q195 46 262 46Z"  horiz-adv-x="580" vert-adv-y="1000"  />

      
      <glyph glyph-name="unifa" unicode="&#xfa;" d="M148 636L438 714L452 660L162 582L148 636M262 46Q344 46 396 107.50Q448 169 448 268L448 495L514 495L514 0L448 0L448 91L458 141L438 141Q422 71 373.50 30.50Q325-10 247-10Q162-10 114 38.50Q66 87 66 185L66 495L132 495L132 193Q132 115 163.50 80.50Q195 46 262 46Z"  horiz-adv-x="580" vert-adv-y="1000"  />

      
      <glyph glyph-name="unifb" unicode="&#xfb;" d="M451 604L411 564L300 659L189 564L149 604L300 731L451 604M262 46Q344 46 396 107.50Q448 169 448 268L448 495L514 495L514 0L448 0L448 91L458 141L438 141Q422 71 373.50 30.50Q325-10 247-10Q162-10 114 38.50Q66 87 66 185L66 495L132 495L132 193Q132 115 163.50 80.50Q195 46 262 46Z"  horiz-adv-x="580" vert-adv-y="1000"  />

      
      <glyph glyph-name="unifc" unicode="&#xfc;" d="M250 600Q250 600 240 590Q230 580 202 580Q174 580 154.50 600Q135 620 135 648Q135 675 154.50 695Q174 715 202 715Q230 715 250 695Q270 675 270 648Q270 620 250 600M445 600Q445 600 435 590Q425 580 397 580Q369 580 349.50 600Q330 620 330 648Q330 675 349.50 695Q369 715 397 715Q425 715 445 695Q465 675 465 648Q465 620 445 600M262 46Q344 46 396 107.50Q448 169 448 268L448 495L514 495L514 0L448 0L448 91L458 141L438 141Q422 71 373.50 30.50Q325-10 247-10Q162-10 114 38.50Q66 87 66 185L66 495L132 495L132 193Q132 115 163.50 80.50Q195 46 262 46Z"  horiz-adv-x="580" vert-adv-y="1000"  />

      
      <glyph glyph-name="unifd" unicode="&#xfd;" d="M445 660L155 582L141 636L431 714L445 660M468 495L539 495L326 0L326-135Q326-193 261-190L80-180L80-124L260-134L260 0L46 495L117 495L283 87L283 57L303 57L303 87L468 495Z"  horiz-adv-x="575" vert-adv-y="1000"  />

      
      <glyph glyph-name="unife" unicode="&#xfe;" d="M353 505Q460 505 527 432.50Q594 360 594 247Q594 135 527 62.50Q460-10 353-10Q273-10 220.50 29Q168 68 152 131L132 131L142 81L142-180L76-180L76 735L142 735L142 414L132 364L152 364Q168 427 220.50 466Q273 505 353 505M340 46Q424 46 476 96.50Q528 147 528 247Q528 347 476 398Q424 449 340 449Q254 449 198 398.50Q142 348 142 247Q142 147 198 96.50Q254 46 340 46Z"  horiz-adv-x="650" vert-adv-y="1000"  />

      
      <glyph glyph-name="uniff" unicode="&#xff;" d="M243 600Q243 600 233 590Q223 580 195 580Q167 580 147.50 600Q128 620 128 648Q128 675 147.50 695Q167 715 195 715Q223 715 243 695Q263 675 263 648Q263 620 243 600M438 600Q438 600 428 590Q418 580 390 580Q362 580 342.50 600Q323 620 323 648Q323 675 342.50 695Q362 715 390 715Q418 715 438 695Q458 675 458 648Q458 620 438 600M468 495L539 495L326 0L326-135Q326-193 261-190L80-180L80-124L260-134L260 0L46 495L117 495L283 87L283 57L303 57L303 87L468 495Z"  horiz-adv-x="575" vert-adv-y="1000"  />

      
      <glyph glyph-name="uni0100" unicode="&#x0100;" d="M487 886L487 831L186 830L186 886L487 886M571 0L477 286L195 286L101 0L36 0L268 705L404 705L636 0L571 0M213 342L459 342L346 685L326 685L213 342Z"  horiz-adv-x="672" vert-adv-y="1000"  />

      
      <glyph glyph-name="uni0101" unicode="&#x0101;" d="M129 676L430 676L430 621L129 620L129 676M56 138Q56 198 94 235.50Q132 273 211 280L417 299Q408 449 269 449Q206 449 164 416.50Q122 384 122 312L56 312Q56 391 112.50 448Q169 505 269 505Q370 505 426.50 442.50Q483 380 483 282L483 56L556 56L556 0L472 0Q417 0 417 55L417 85L427 135L407 135Q391 72 345 31Q299-10 218-10Q168-10 133.50 5Q99 20 83.50 45Q68 70 62 92Q56 114 56 138M122 144Q122 97 149 71.50Q176 46 224 46Q311 46 364 102Q417 158 417 243L221 224Q170 219 146 201Q122 183 122 144Z"  horiz-adv-x="582" vert-adv-y="1000"  />

      
      <glyph glyph-name="uni0102" unicode="&#x0102;" d="M445.50 819.50Q445.50 819.50 424.75 796.75Q404 774 336 774Q268 774 226.50 819.50Q185 865 185 941L241 941Q241 884 263 857Q285 830 336 830Q387 830 409 857Q431 884 431 941L487 941Q487 865 445.50 819.50M571 0L477 286L195 286L101 0L36 0L268 705L404 705L636 0L571 0M213 342L459 342L346 685L326 685L213 342Z"  horiz-adv-x="672" vert-adv-y="1000"  />

      
      <glyph glyph-name="uni0103" unicode="&#x0103;" d="M430 731Q430 655 388.50 609.50Q347 564 279 564Q211 564 169.50 609.50Q128 655 128 731L184 731Q184 674 206 647Q228 620 279 620Q330 620 352 647Q374 674 374 731L430 731M56 138Q56 198 94 235.50Q132 273 211 280L417 299Q408 449 269 449Q206 449 164 416.50Q122 384 122 312L56 312Q56 391 112.50 448Q169 505 269 505Q370 505 426.50 442.50Q483 380 483 282L483 56L556 56L556 0L472 0Q417 0 417 55L417 85L427 135L407 135Q391 72 345 31Q299-10 218-10Q168-10 133.50 5Q99 20 83.50 45Q68 70 62 92Q56 114 56 138M122 144Q122 97 149 71.50Q176 46 224 46Q311 46 364 102Q417 158 417 243L221 224Q170 219 146 201Q122 183 122 144Z"  horiz-adv-x="582" vert-adv-y="1000"  />

      
      <glyph glyph-name="uni0104" unicode="&#x0104;" d="M565-134L761-114L761-170L561-189Q526-192 511-168.50Q496-145 512-116L572 0L571 0L477 286L195 286L101 0L36 0L268 705L404 705L636 1L636 0L635 0L565-134M213 342L459 342L346 685L326 685L213 342Z"  horiz-adv-x="672" vert-adv-y="1000"  />

      
      <glyph glyph-name="uni0105" unicode="&#x0105;" d="M485-134L681-114L681-170L481-189Q446-192 431-168.50Q416-145 432-116L492 0L472 0Q417 0 417 55L417 85L427 135L407 135Q391 72 345 31Q299-10 218-10Q168-10 133.50 5Q99 20 83.50 45Q68 70 62 92Q56 114 56 138Q56 198 94 235.50Q132 273 211 280L417 299Q408 449 269 449Q206 449 164 416.50Q122 384 122 312L56 312Q56 391 112.50 448Q169 505 269 505Q370 505 426.50 442.50Q483 380 483 282L483 56L556 56L556 0L555 0L485-134M224 46Q311 46 364 102Q417 158 417 243L221 224Q170 219 146 201Q122 183 122 144Q122 97 149 71.50Q176 46 224 46Z"  horiz-adv-x="582" vert-adv-y="1000"  />

      
      <glyph glyph-name="uni0106" unicode="&#x0106;" d="M237 846L527 924L541 870L251 792L237 846M66 353Q66 511 153 613Q240 715 389 715Q521 715 603.50 639.50Q686 564 702 433L636 433Q624 541 560.50 600Q497 659 389 659Q264 659 198 574.50Q132 490 132 353Q132 215 198 130.50Q264 46 389 46Q497 46 560.50 105.50Q624 165 636 273L702 273Q686 141 603.50 65.50Q521-10 389-10Q240-10 153 92Q66 194 66 353Z"  horiz-adv-x="768" vert-adv-y="1000"  />

      
      <glyph glyph-name="uni0107" unicode="&#x0107;" d="M153 636L443 714L457 660L167 582L153 636M122.50 64.50Q122.50 64.50 89.25 101.75Q56 139 56 248Q56 357 122.50 431Q189 505 305 505Q384 505 451.50 457Q519 409 529 311L462 311Q441 449 305 449Q215 449 168.50 391.50Q122 334 122 248Q122 161 168.50 103.50Q215 46 305 46Q441 46 462 184L529 184Q519 86 451.50 38Q384-10 305-10Q189-10 122.50 64.50Z"  horiz-adv-x="585" vert-adv-y="1000"  />

      
      <glyph glyph-name="uni010A" unicode="&#x010A;" d="M436 810Q436 810 426 800Q416 790 388 790Q360 790 340.50 810Q321 830 321 858Q321 885 340.50 905Q360 925 388 925Q416 925 436 905Q456 885 456 858Q456 830 436 810M66 353Q66 511 153 613Q240 715 389 715Q521 715 603.50 639.50Q686 564 702 433L636 433Q624 541 560.50 600Q497 659 389 659Q264 659 198 574.50Q132 490 132 353Q132 215 198 130.50Q264 46 389 46Q497 46 560.50 105.50Q624 165 636 273L702 273Q686 141 603.50 65.50Q521-10 389-10Q240-10 153 92Q66 194 66 353Z"  horiz-adv-x="768" vert-adv-y="1000"  />

      
      <glyph glyph-name="uni010B" unicode="&#x010B;" d="M352 600Q352 600 342 590Q332 580 304 580Q276 580 256.50 600Q237 620 237 648Q237 675 256.50 695Q276 715 304 715Q332 715 352 695Q372 675 372 648Q372 620 352 600M122.50 64.50Q122.50 64.50 89.25 101.75Q56 139 56 248Q56 357 122.50 431Q189 505 305 505Q384 505 451.50 457Q519 409 529 311L462 311Q441 449 305 449Q215 449 168.50 391.50Q122 334 122 248Q122 161 168.50 103.50Q215 46 305 46Q441 46 462 184L529 184Q519 86 451.50 38Q384-10 305-10Q189-10 122.50 64.50Z"  horiz-adv-x="585" vert-adv-y="1000"  />

      
      <glyph glyph-name="uni010C" unicode="&#x010C;" d="M540 901L389 774L238 901L278 941L389 846L500 941L540 901M66 353Q66 511 153 613Q240 715 389 715Q521 715 603.50 639.50Q686 564 702 433L636 433Q624 541 560.50 600Q497 659 389 659Q264 659 198 574.50Q132 490 132 353Q132 215 198 130.50Q264 46 389 46Q497 46 560.50 105.50Q624 165 636 273L702 273Q686 141 603.50 65.50Q521-10 389-10Q240-10 153 92Q66 194 66 353Z"  horiz-adv-x="768" vert-adv-y="1000"  />

      
      <glyph glyph-name="uni010D" unicode="&#x010D;" d="M456 691L305 564L154 691L194 731L305 636L416 731L456 691M122.50 64.50Q122.50 64.50 89.25 101.75Q56 139 56 248Q56 357 122.50 431Q189 505 305 505Q384 505 451.50 457Q519 409 529 311L462 311Q441 449 305 449Q215 449 168.50 391.50Q122 334 122 248Q122 161 168.50 103.50Q215 46 305 46Q441 46 462 184L529 184Q519 86 451.50 38Q384-10 305-10Q189-10 122.50 64.50Z"  horiz-adv-x="585" vert-adv-y="1000"  />

      
      <glyph glyph-name="uni010E" unicode="&#x010E;" d="M446 901L295 774L144 901L184 941L295 846L406 941L446 901M292 705Q338 705 376.50 699.50Q415 694 456.50 681Q498 668 529 642.50Q560 617 586 579.50Q612 542 625.50 484Q639 426 639 353Q639 265 618.50 200Q598 135 566 97.50Q534 60 486 37Q438 14 393 7Q348 0 292 0L76 0L76 705L292 705M292 56Q337 56 370 60.50Q403 65 444 82.50Q485 100 511 130.50Q537 161 555 217.50Q573 274 573 353Q573 431 555 488Q537 545 511 575Q485 605 444 622.50Q403 640 370 644.50Q337 649 292 649L142 649L142 56L292 56Z"  horiz-adv-x="705" vert-adv-y="1000"  />

      
      <glyph glyph-name="uni010F" unicode="&#x010F;" d="M574 0L508 0L508 81L518 131L498 131Q482 68 429 29Q376-10 296-10Q189-10 122.50 62.50Q56 135 56 248Q56 360 122.50 432.50Q189 505 296 505Q376 505 429 466Q482 427 498 364L518 364L508 414L508 735L574 735L574 0M634 735L700 735L700 495L634 495L634 735M508 248Q508 348 452 398.50Q396 449 310 449Q226 449 174 399Q122 349 122 248Q122 146 173.50 96Q225 46 310 46Q396 46 452 96.50Q508 147 508 248Z"  horiz-adv-x="746" vert-adv-y="1000"  />

      
      <glyph glyph-name="uni0110" unicode="&#x0110;" d="M352 705Q398 705 436.50 699.50Q475 694 516.50 681Q558 668 589 642.50Q620 617 646 579.50Q672 542 685.50 484Q699 426 699 353Q699 265 678.50 200Q658 135 626 97.50Q594 60 546 37Q498 14 453 7Q408 0 352 0L136 0L136 337L66 337L66 393L136 393L136 705L352 705M352 56Q397 56 430 60.50Q463 65 504 82.50Q545 100 571 130.50Q597 161 615 217.50Q633 274 633 353Q633 431 615 488Q597 545 571 575Q545 605 504 622.50Q463 640 430 644.50Q397 649 352 649L202 649L202 393L404 393L404 337L202 337L202 56L352 56Z"  horiz-adv-x="765" vert-adv-y="1000"  />

      
      <glyph glyph-name="uni0111" unicode="&#x0111;" d="M634 675L634 619L574 619L574 0L508 0L508 81L518 131L498 131Q482 68 429 29Q376-10 296-10Q189-10 122.50 62.50Q56 135 56 248Q56 360 122.50 432.50Q189 505 296 505Q376 505 429 466Q482 427 498 364L518 364L508 414L508 619L369 619L369 675L508 675L508 735L574 735L574 675L634 675M310 46Q396 46 452 96.50Q508 147 508 248Q508 348 452 398.50Q396 449 310 449Q226 449 174 399Q122 349 122 248Q122 146 173.50 96Q225 46 310 46Z"  horiz-adv-x="680" vert-adv-y="1000"  />

      
      <glyph glyph-name="uni0112" unicode="&#x0112;" d="M138 886L439 886L439 831L138 830L138 886M76 0L76 705L499 705L499 649L142 649L142 381L449 381L449 325L142 325L142 56L499 56L499 0L76 0Z"  horiz-adv-x="555" vert-adv-y="1000"  />

      
      <glyph glyph-name="uni0113" unicode="&#x0113;" d="M145 676L446 676L446 621L145 620L145 676M56 254Q56 372 121 438.50Q186 505 291 505Q395 505 455.50 441.50Q516 378 516 264L516 236L122 236Q127 151 169.50 98.50Q212 46 302 46Q436 46 467 173L533 173Q524 140 509.50 111Q495 82 469 53Q443 24 400 7Q357-10 302-10Q178-10 117 64Q56 138 56 254M122 292L450 292Q450 360 407.50 404.50Q365 449 291 449Q217 449 169.50 404Q122 359 122 292Z"  horiz-adv-x="589" vert-adv-y="1000"  />

      
      <glyph glyph-name="uni0116" unicode="&#x0116;" d="M335 810Q335 810 325 800Q315 790 287 790Q259 790 239.50 810Q220 830 220 858Q220 885 239.50 905Q259 925 287 925Q315 925 335 905Q355 885 355 858Q355 830 335 810M76 0L76 705L499 705L499 649L142 649L142 381L449 381L449 325L142 325L142 56L499 56L499 0L76 0Z"  horiz-adv-x="555" vert-adv-y="1000"  />

      
      <glyph glyph-name="uni0117" unicode="&#x0117;" d="M342 600Q342 600 332 590Q322 580 294 580Q266 580 246.50 600Q227 620 227 648Q227 675 246.50 695Q266 715 294 715Q322 715 342 695Q362 675 362 648Q362 620 342 600M56 254Q56 372 121 438.50Q186 505 291 505Q395 505 455.50 441.50Q516 378 516 264L516 236L122 236Q127 151 169.50 98.50Q212 46 302 46Q436 46 467 173L533 173Q524 140 509.50 111Q495 82 469 53Q443 24 400 7Q357-10 302-10Q178-10 117 64Q56 138 56 254M122 292L450 292Q450 360 407.50 404.50Q365 449 291 449Q217 449 169.50 404Q122 359 122 292Z"  horiz-adv-x="589" vert-adv-y="1000"  />

      
      <glyph glyph-name="uni0118" unicode="&#x0118;" d="M499 649L142 649L142 381L449 381L449 325L142 325L142 56L499 56L499 0L365 0L295-134L491-114L491-170L291-189Q256-192 241-168.50Q226-145 242-116L302 0L76 0L76 705L499 705L499 649Z"  horiz-adv-x="555" vert-adv-y="1000"  />

      
      <glyph glyph-name="uni0119" unicode="&#x0119;" d="M370-2L301-134L497-114L497-170L297-189Q262-192 247-168.50Q232-145 248-116L303-10L302-10Q178-10 117 64Q56 138 56 254Q56 372 121 438.50Q186 505 291 505Q395 505 455.50 441.50Q516 378 516 264L516 236L122 236Q127 151 169.50 98.50Q212 46 302 46Q436 46 467 173L533 173Q495 29 370-2M407.50 404.50Q407.50 404.50 386.25 426.75Q365 449 291 449Q217 449 169.50 404Q122 359 122 292L450 292Q450 360 407.50 404.50Z"  horiz-adv-x="589" vert-adv-y="1000"  />

      
      <glyph glyph-name="uni011A" unicode="&#x011A;" d="M439 901L288 774L137 901L177 941L288 846L399 941L439 901M76 0L76 705L499 705L499 649L142 649L142 381L449 381L449 325L142 325L142 56L499 56L499 0L76 0Z"  horiz-adv-x="555" vert-adv-y="1000"  />

      
      <glyph glyph-name="uni011B" unicode="&#x011B;" d="M446 691L295 564L144 691L184 731L295 636L406 731L446 691M56 254Q56 372 121 438.50Q186 505 291 505Q395 505 455.50 441.50Q516 378 516 264L516 236L122 236Q127 151 169.50 98.50Q212 46 302 46Q436 46 467 173L533 173Q524 140 509.50 111Q495 82 469 53Q443 24 400 7Q357-10 302-10Q178-10 117 64Q56 138 56 254M122 292L450 292Q450 360 407.50 404.50Q365 449 291 449Q217 449 169.50 404Q122 359 122 292Z"  horiz-adv-x="589" vert-adv-y="1000"  />

      
      <glyph glyph-name="uni011E" unicode="&#x011E;" d="M539 941Q539 865 497.50 819.50Q456 774 388 774Q320 774 278.50 819.50Q237 865 237 941L293 941Q293 884 315 857Q337 830 388 830Q439 830 461 857Q483 884 483 941L539 941M66 353Q66 510 155 612.50Q244 715 394 715Q522 715 593.50 644.50Q665 574 682 453L616 453Q589 659 394 659Q268 659 200 574Q132 489 132 353Q132 261 154.50 194.50Q177 128 232 87Q287 46 371 46Q482 46 533.50 112.50Q585 179 582 317L325 317L325 373L669 373Q724 373 724 324L724 0L658 0L658 267L668 353L648 353Q647-10 371-10Q222-10 144 90.50Q66 191 66 353Z"  horiz-adv-x="800" vert-adv-y="1000"  />

      
      <glyph glyph-name="uni011F" unicode="&#x011F;" d="M413.50 609.50Q413.50 609.50 392.75 586.75Q372 564 304 564Q236 564 194.50 609.50Q153 655 153 731L209 731Q209 674 231 647Q253 620 304 620Q355 620 377 647Q399 674 399 731L455 731Q455 655 413.50 609.50M581 495L625 495L625 439L581 439Q542 439 513 417Q551 370 551 303Q551 223 492.50 167.50Q434 112 316 68Q376 77 427 75.50Q478 74 511.50 46.50Q545 19 545-34Q545-73 528-99Q511-125 480.50-141Q450-157 391-165.50Q332-174 265-177Q198-180 92-180L92-124Q317-124 398-108Q479-92 479-34Q479-6 462 11Q445 28 415.50 32.50Q386 37 351.50 36Q317 35 276 26Q235 17 201.50 8Q168-1 135-12L118 38Q155 50 228.50 74.50Q302 99 339 111L339 131Q218 103 137 148Q56 193 56 303Q56 402 125 453.50Q194 505 304 505Q399 505 467 459Q511 483 529.50 489Q548 495 581 495M304 156Q485 156 485 303Q485 449 304 449Q122 449 122 303Q122 156 304 156Z"  horiz-adv-x="651" vert-adv-y="1000"  />

      
      <glyph glyph-name="uni0120" unicode="&#x0120;" d="M435 810Q435 810 425 800Q415 790 387 790Q359 790 339.50 810Q320 830 320 858Q320 885 339.50 905Q359 925 387 925Q415 925 435 905Q455 885 455 858Q455 830 435 810M66 353Q66 510 155 612.50Q244 715 394 715Q522 715 593.50 644.50Q665 574 682 453L616 453Q589 659 394 659Q268 659 200 574Q132 489 132 353Q132 261 154.50 194.50Q177 128 232 87Q287 46 371 46Q482 46 533.50 112.50Q585 179 582 317L325 317L325 373L669 373Q724 373 724 324L724 0L658 0L658 267L668 353L648 353Q647-10 371-10Q222-10 144 90.50Q66 191 66 353Z"  horiz-adv-x="800" vert-adv-y="1000"  />

      
      <glyph glyph-name="uni0121" unicode="&#x0121;" d="M351 600Q351 600 341 590Q331 580 303 580Q275 580 255.50 600Q236 620 236 648Q236 675 255.50 695Q275 715 303 715Q331 715 351 695Q371 675 371 648Q371 620 351 600M581 495L625 495L625 439L581 439Q542 439 513 417Q551 370 551 303Q551 223 492.50 167.50Q434 112 316 68Q376 77 427 75.50Q478 74 511.50 46.50Q545 19 545-34Q545-73 528-99Q511-125 480.50-141Q450-157 391-165.50Q332-174 265-177Q198-180 92-180L92-124Q317-124 398-108Q479-92 479-34Q479-6 462 11Q445 28 415.50 32.50Q386 37 351.50 36Q317 35 276 26Q235 17 201.50 8Q168-1 135-12L118 38Q155 50 228.50 74.50Q302 99 339 111L339 131Q218 103 137 148Q56 193 56 303Q56 402 125 453.50Q194 505 304 505Q399 505 467 459Q511 483 529.50 489Q548 495 581 495M304 156Q485 156 485 303Q485 449 304 449Q122 449 122 303Q122 156 304 156Z"  horiz-adv-x="651" vert-adv-y="1000"  />

      
      <glyph glyph-name="uni0122" unicode="&#x0122;" d="M66 353Q66 510 155 612.50Q244 715 394 715Q522 715 593.50 644.50Q665 574 682 453L616 453Q589 659 394 659Q268 659 200 574Q132 489 132 353Q132 261 154.50 194.50Q177 128 232 87Q287 46 371 46Q482 46 533.50 112.50Q585 179 582 317L325 317L325 373L669 373Q724 373 724 324L724 0L658 0L658 267L668 353L648 353Q647-10 371-10Q222-10 144 90.50Q66 191 66 353M331-49L395-66L344-230L280-213L331-49Z"  horiz-adv-x="800" vert-adv-y="1000"  />

      
      <glyph glyph-name="uni0123" unicode="&#x0123;" d="M389 754L342 580L278 597L325 771L389 754M581 495L625 495L625 439L581 439Q542 439 513 417Q551 370 551 303Q551 223 492.50 167.50Q434 112 316 68Q376 77 427 75.50Q478 74 511.50 46.50Q545 19 545-34Q545-73 528-99Q511-125 480.50-141Q450-157 391-165.50Q332-174 265-177Q198-180 92-180L92-124Q317-124 398-108Q479-92 479-34Q479-6 462 11Q445 28 415.50 32.50Q386 37 351.50 36Q317 35 276 26Q235 17 201.50 8Q168-1 135-12L118 38Q155 50 228.50 74.50Q302 99 339 111L339 131Q218 103 137 148Q56 193 56 303Q56 402 125 453.50Q194 505 304 505Q399 505 467 459Q511 483 529.50 489Q548 495 581 495M304 156Q485 156 485 303Q485 449 304 449Q122 449 122 303Q122 156 304 156Z"  horiz-adv-x="651" vert-adv-y="1000"  />

      
      <glyph glyph-name="uni0126" unicode="&#x0126;" d="M726 602L726 546L666 546L666 0L600 0L600 321L172 321L172 0L106 0L106 546L46 546L46 602L106 602L106 705L172 705L172 602L600 602L600 705L666 705L666 602L726 602M600 377L600 546L172 546L172 377L600 377Z"  horiz-adv-x="772" vert-adv-y="1000"  />

      
      <glyph glyph-name="uni0127" unicode="&#x0127;" d="M373 505Q458 505 506 456.50Q554 408 554 310L554 0L488 0L488 302Q488 380 456.50 414.50Q425 449 358 449Q276 449 224 387.50Q172 326 172 227L172 0L106 0L106 619L56 619L56 675L106 675L106 735L172 735L172 675L321 675L321 619L172 619L172 404L162 354L182 354Q198 424 246.50 464.50Q295 505 373 505Z"  horiz-adv-x="620" vert-adv-y="1000"  />

      
      <glyph glyph-name="uni012A" unicode="&#x012A;" d="M407 886L407 831L106 830L106 886L407 886M446 649L289 649L289 56L446 56L446 0L66 0L66 56L223 56L223 649L66 649L66 705L446 705L446 649Z"  horiz-adv-x="512" vert-adv-y="1000"  />

      
      <glyph glyph-name="uni012B" unicode="&#x012B;" d="M40 676L341 676L341 621L40 620L40 676M56 0L56 56L197 56L197 449L96 439L96 495L194 505Q227 509 241 492Q255 475 255 440L255 56L396 56L396 0L56 0Z"  horiz-adv-x="432" vert-adv-y="1000"  />

      
      <glyph glyph-name="uni012E" unicode="&#x012E;" d="M268-134L464-114L464-170L264-189Q229-192 214-168.50Q199-145 215-116L275 0L66 0L66 56L223 56L223 649L66 649L66 705L446 705L446 649L289 649L289 56L446 56L446 0L338 0L268-134Z"  horiz-adv-x="512" vert-adv-y="1000"  />

      
      <glyph glyph-name="uni012F" unicode="&#x012F;" d="M237 600Q237 600 227 590Q217 580 189 580Q161 580 141.50 600Q122 620 122 648Q122 675 141.50 695Q161 715 189 715Q217 715 237 695Q257 675 257 648Q257 620 237 600M396 0L260 0L190-134L386-114L386-170L186-189Q151-192 136-168.50Q121-145 137-116L197 0L56 0L56 56L197 56L197 449L96 439L96 495L194 505Q227 509 241 492Q255 475 255 440L255 56L396 56L396 0Z"  horiz-adv-x="432" vert-adv-y="1000"  />

      
      <glyph glyph-name="uni0130" unicode="&#x0130;" d="M303 810Q303 810 293 800Q283 790 255 790Q227 790 207.50 810Q188 830 188 858Q188 885 207.50 905Q227 925 255 925Q283 925 303 905Q323 885 323 858Q323 830 303 810M446 649L289 649L289 56L446 56L446 0L66 0L66 56L223 56L223 649L66 649L66 705L446 705L446 649Z"  horiz-adv-x="512" vert-adv-y="1000"  />

      
      <glyph glyph-name="uni0131" unicode="&#x0131;" d="M56 0L56 56L197 56L197 449L96 439L96 495L194 505Q227 509 241 492Q255 475 255 440L255 56L396 56L396 0L56 0Z"  horiz-adv-x="432" vert-adv-y="1000"  />

      
      <glyph glyph-name="uni0136" unicode="&#x0136;" d="M615 705L184 353L615 0L520 0L142 310L142 0L76 0L76 705L142 705L142 395L520 705L615 705M229-213L280-49L344-66L293-230L229-213Z"  horiz-adv-x="651" vert-adv-y="1000"  />

      
      <glyph glyph-name="uni0137" unicode="&#x0137;" d="M298 268L494 0L419 0L245 238L142 180L142 0L76 0L76 735L142 735L142 250L399 395L388 495L454 495L464 408Q468 365 428 342L298 268M194-213L245-49L309-66L258-230L194-213Z"  horiz-adv-x="540" vert-adv-y="1000"  />

      
      <glyph glyph-name="uni0139" unicode="&#x0139;" d="M77 846L367 924L381 870L91 792L77 846M131-10Q105-11 90.50 4Q76 19 76 45L76 705L142 705L142 46L499 56L499 0L131-10Z"  horiz-adv-x="535" vert-adv-y="1000"  />

      
      <glyph glyph-name="uni013A" unicode="&#x013A;" d="M44 876L334 954L348 900L58 822L44 876M46 0L46 56L185 56L185 689L86 679L86 735L186 745Q219 749 235 732Q251 715 251 680L251 56L390 56L390 0L46 0Z"  horiz-adv-x="426" vert-adv-y="1000"  />

      
      <glyph glyph-name="uni013B" unicode="&#x013B;" d="M131-10Q105-11 90.50 4Q76 19 76 45L76 705L142 705L142 46L499 56L499 0L131-10M275-49L339-66L288-230L224-213L275-49Z"  horiz-adv-x="535" vert-adv-y="1000"  />

      
      <glyph glyph-name="uni013C" unicode="&#x013C;" d="M46 0L46 56L185 56L185 689L86 679L86 735L186 745Q219 749 235 732Q251 715 251 680L251 56L390 56L390 0L46 0M180-49L244-66L193-230L129-213L180-49Z"  horiz-adv-x="426" vert-adv-y="1000"  />

      
      <glyph glyph-name="uni013D" unicode="&#x013D;" d="M246 735L312 735L312 495L246 495L246 735M131-10Q105-11 90.50 4Q76 19 76 45L76 705L142 705L142 46L499 56L499 0L131-10Z"  horiz-adv-x="545" vert-adv-y="1000"  />

      
      <glyph glyph-name="uni013E" unicode="&#x013E;" d="M46 0L46 56L185 56L185 689L86 679L86 735L186 745Q219 749 235 732Q251 715 251 680L251 56L390 56L390 0L46 0M331 735L397 735L397 495L331 495L331 735Z"  horiz-adv-x="433" vert-adv-y="1000"  />

      
      <glyph glyph-name="uni0141" unicode="&#x0141;" d="M192 46L549 56L549 0L181-10Q155-11 140.50 4Q126 19 126 45L126 309L70 294L56 348L126 367L126 705L192 705L192 385L382 436L396 382L192 327L192 46Z"  horiz-adv-x="595" vert-adv-y="1000"  />

      
      <glyph glyph-name="uni0142" unicode="&#x0142;" d="M251 56L390 56L390 0L46 0L46 56L185 56L185 327L62 294L48 348L185 385L185 689L86 679L86 735L186 745Q219 749 235 732Q251 715 251 680L251 403L374 436L388 382L251 345L251 56Z"  horiz-adv-x="426" vert-adv-y="1000"  />

      
      <glyph glyph-name="uni0143" unicode="&#x0143;" d="M239 846L529 924L543 870L253 792L239 846M76 0L76 705L211 705L590 20L610 20L600 70L600 705L666 705L666 0L531 0L152 685L132 685L142 635L142 0L76 0Z"  horiz-adv-x="742" vert-adv-y="1000"  />

      
      <glyph glyph-name="uni0144" unicode="&#x0144;" d="M168 636L458 714L472 660L182 582L168 636M328 449Q246 449 194 387.50Q142 326 142 227L142 0L76 0L76 495L142 495L142 404L132 354L152 354Q168 424 216.50 464.50Q265 505 343 505Q428 505 476 456.50Q524 408 524 310L524 0L458 0L458 302Q458 380 426.50 414.50Q395 449 328 449Z"  horiz-adv-x="590" vert-adv-y="1000"  />

      
      <glyph glyph-name="uni0145" unicode="&#x0145;" d="M76 0L76 705L211 705L590 20L610 20L600 70L600 705L666 705L666 0L531 0L152 685L132 685L142 635L142 0L76 0M333-49L397-66L346-230L282-213L333-49Z"  horiz-adv-x="742" vert-adv-y="1000"  />

      
      <glyph glyph-name="uni0146" unicode="&#x0146;" d="M328 449Q246 449 194 387.50Q142 326 142 227L142 0L76 0L76 495L142 495L142 404L132 354L152 354Q168 424 216.50 464.50Q265 505 343 505Q428 505 476 456.50Q524 408 524 310L524 0L458 0L458 302Q458 380 426.50 414.50Q395 449 328 449M262-49L326-66L275-230L211-213L262-49Z"  horiz-adv-x="590" vert-adv-y="1000"  />

      
      <glyph glyph-name="uni0147" unicode="&#x0147;" d="M542 901L391 774L240 901L280 941L391 846L502 941L542 901M76 0L76 705L211 705L590 20L610 20L600 70L600 705L666 705L666 0L531 0L152 685L132 685L142 635L142 0L76 0Z"  horiz-adv-x="742" vert-adv-y="1000"  />

      
      <glyph glyph-name="uni0148" unicode="&#x0148;" d="M471 691L320 564L169 691L209 731L320 636L431 731L471 691M328 449Q246 449 194 387.50Q142 326 142 227L142 0L76 0L76 495L142 495L142 404L132 354L152 354Q168 424 216.50 464.50Q265 505 343 505Q428 505 476 456.50Q524 408 524 310L524 0L458 0L458 302Q458 380 426.50 414.50Q395 449 328 449Z"  horiz-adv-x="590" vert-adv-y="1000"  />

      
      <glyph glyph-name="uni014A" unicode="&#x014A;" d="M600 705L666 705L666-135Q666-193 601-190L420-180L420-124L600-134L600 0L531 0L152 685L132 685L142 635L142 0L76 0L76 705L211 705L590 20L610 20L600 70L600 705Z"  horiz-adv-x="742" vert-adv-y="1000"  />

      
      <glyph glyph-name="uni014B" unicode="&#x014B;" d="M343 505Q428 505 476 456.50Q524 408 524 310L524-135Q524-193 459-190L278-180L278-124L458-134L458 302Q458 380 426.50 414.50Q395 449 328 449Q246 449 194 387.50Q142 326 142 227L142 0L76 0L76 495L142 495L142 404L132 354L152 354Q168 424 216.50 464.50Q265 505 343 505Z"  horiz-adv-x="590" vert-adv-y="1000"  />

      
      <glyph glyph-name="uni014C" unicode="&#x014C;" d="M239 886L540 886L540 831L239 830L239 886M66 353Q66 511 153 613Q240 715 389 715Q538 715 624.50 613Q711 511 711 353Q711 194 624.50 92Q538-10 389-10Q240-10 153 92Q66 194 66 353M132 353Q132 215 198 130.50Q264 46 389 46Q514 46 579.50 130.50Q645 215 645 353Q645 490 579.50 574.50Q514 659 389 659Q264 659 198 574.50Q132 490 132 353Z"  horiz-adv-x="777" vert-adv-y="1000"  />

      
      <glyph glyph-name="uni014D" unicode="&#x014D;" d="M164 676L465 676L465 621L164 620L164 676M56 248Q56 355 127 430Q198 505 314 505Q429 505 500 430Q571 355 571 248Q571 140 500 65Q429-10 314-10Q198-10 127 65Q56 140 56 248M122 248Q122 162 172.50 104Q223 46 314 46Q404 46 454.50 104.50Q505 163 505 248Q505 333 454.50 391Q404 449 314 449Q224 449 173 391Q122 333 122 248Z"  horiz-adv-x="627" vert-adv-y="1000"  />

      
      <glyph glyph-name="uni0150" unicode="&#x0150;" d="M270 813L401 945L440 905L309 774L270 813M418 813L549 945L588 905L457 774L418 813M66 353Q66 511 153 613Q240 715 389 715Q538 715 624.50 613Q711 511 711 353Q711 194 624.50 92Q538-10 389-10Q240-10 153 92Q66 194 66 353M132 353Q132 215 198 130.50Q264 46 389 46Q514 46 579.50 130.50Q645 215 645 353Q645 490 579.50 574.50Q514 659 389 659Q264 659 198 574.50Q132 490 132 353Z"  horiz-adv-x="777" vert-adv-y="1000"  />

      
      <glyph glyph-name="uni0151" unicode="&#x0151;" d="M195 603L326 735L365 695L234 564L195 603M343 603L474 735L513 695L382 564L343 603M56 248Q56 355 127 430Q198 505 314 505Q429 505 500 430Q571 355 571 248Q571 140 500 65Q429-10 314-10Q198-10 127 65Q56 140 56 248M122 248Q122 162 172.50 104Q223 46 314 46Q404 46 454.50 104.50Q505 163 505 248Q505 333 454.50 391Q404 449 314 449Q224 449 173 391Q122 333 122 248Z"  horiz-adv-x="627" vert-adv-y="1000"  />

      
      <glyph glyph-name="uni0152" unicode="&#x0152;" d="M1078 649L721 649L721 381L1028 381L1028 325L721 325L721 56L1078 56L1078 0L655 0L655 134Q613 66 545.50 28Q478-10 389-10Q240-10 153 92Q66 194 66 353Q66 511 153 613Q240 715 389 715Q478 715 545.50 677Q613 639 655 571L655 705L1078 705L1078 649M198 130.50Q198 130.50 231 88.25Q264 46 389 46Q514 46 579.50 130.50Q645 215 645 353Q645 490 579.50 574.50Q514 659 389 659Q264 659 198 574.50Q132 490 132 353Q132 215 198 130.50Z"  horiz-adv-x="1134" vert-adv-y="1000"  />

      
      <glyph glyph-name="uni0153" unicode="&#x0153;" d="M926 173L992 173Q983 140 968.50 111Q954 82 928 53Q902 24 859 7Q816-10 761-10Q599-10 540 121Q509 61 450 25.50Q391-10 314-10Q198-10 127 65Q56 140 56 248Q56 355 127 430Q198 505 314 505Q391 505 449 470.50Q507 436 539 377Q567 439 622 472Q677 505 750 505Q854 505 914.50 441.50Q975 378 975 264L975 236L581 236Q586 151 628.50 98.50Q671 46 761 46Q895 46 926 173M314 46Q404 46 454.50 104.50Q505 163 505 248Q505 333 454.50 391Q404 449 314 449Q224 449 173 391Q122 333 122 248Q122 162 172.50 104Q223 46 314 46M866.50 404.50Q866.50 404.50 845.25 426.75Q824 449 750 449Q676 449 628.50 404Q581 359 581 292L909 292Q909 360 866.50 404.50Z"  horiz-adv-x="1048" vert-adv-y="1000"  />

      
      <glyph glyph-name="uni0154" unicode="&#x0154;" d="M160 846L450 924L464 870L174 792L160 846M76 0L76 705L302 705Q438 705 503.50 662.50Q569 620 569 508Q569 363 447 340L447 320L528 320Q555 320 566.50 309Q578 298 578 273L578 0L512 0L512 290L142 290L142 0L76 0M142 346L302 346Q355 346 387 350.50Q419 355 448 370Q477 385 490 416.50Q503 448 503 498Q503 539 493.50 567Q484 595 469 611Q454 627 426.50 635.50Q399 644 371.50 646.50Q344 649 302 649L142 649L142 346Z"  horiz-adv-x="654" vert-adv-y="1000"  />

      
      <glyph glyph-name="uni0155" unicode="&#x0155;" d="M99 636L389 714L403 660L113 582L99 636M76 0L76 440Q76 508 141 505L406 495L406 439L142 449L142 0L76 0Z"  horiz-adv-x="432" vert-adv-y="1000"  />

      
      <glyph glyph-name="uni0156" unicode="&#x0156;" d="M76 0L76 705L302 705Q438 705 503.50 662.50Q569 620 569 508Q569 363 447 340L447 320L528 320Q555 320 566.50 309Q578 298 578 273L578 0L512 0L512 290L142 290L142 0L76 0M142 346L302 346Q355 346 387 350.50Q419 355 448 370Q477 385 490 416.50Q503 448 503 498Q503 539 493.50 567Q484 595 469 611Q454 627 426.50 635.50Q399 644 371.50 646.50Q344 649 302 649L142 649L142 346M304-49L368-66L317-230L253-213L304-49Z"  horiz-adv-x="654" vert-adv-y="1000"  />

      
      <glyph glyph-name="uni0157" unicode="&#x0157;" d="M76 0L76 440Q76 508 141 505L406 495L406 439L142 449L142 0L76 0M72-49L136-66L85-230L21-213L72-49Z"  horiz-adv-x="432" vert-adv-y="1000"  />

      
      <glyph glyph-name="uni0158" unicode="&#x0158;" d="M463 901L312 774L161 901L201 941L312 846L423 941L463 901M76 0L76 705L302 705Q438 705 503.50 662.50Q569 620 569 508Q569 363 447 340L447 320L528 320Q555 320 566.50 309Q578 298 578 273L578 0L512 0L512 290L142 290L142 0L76 0M142 346L302 346Q355 346 387 350.50Q419 355 448 370Q477 385 490 416.50Q503 448 503 498Q503 539 493.50 567Q484 595 469 611Q454 627 426.50 635.50Q399 644 371.50 646.50Q344 649 302 649L142 649L142 346Z"  horiz-adv-x="654" vert-adv-y="1000"  />

      
      </font>
</defs>
</svg>
